<?xml version="1.0" encoding="utf-8"?>
<!-- Generator: Adobe Illustrator 19.2.1, SVG Export Plug-In . SVG Version: 6.00 Build 0)  -->
<!DOCTYPE svg PUBLIC "-//W3C//DTD SVG 1.1//EN" "http://www.w3.org/Graphics/SVG/1.1/DTD/svg11.dtd">
<svg version="1.1" id="icons" xmlns="http://www.w3.org/2000/svg" xmlns:xlink="http://www.w3.org/1999/xlink" x="0px" y="0px"
	 width="43.708px" height="47px" viewBox="0 0 43.708 47" enable-background="new 0 0 43.708 47" xml:space="preserve">
<g id="Icon_59_">
	<circle fill="none" stroke="#50BC93" stroke-width="4" stroke-miterlimit="10" cx="21.851" cy="23.722" r="6"/>
	<path fill="none" stroke="#50BC93" stroke-width="4" stroke-miterlimit="10" d="M38.207,28.525c0.548-1.67,0.855-3.449,0.855-5.302
		c0-1.858-0.308-3.641-0.859-5.315l3.086-2.198c0.45-0.32,0.555-0.945,0.234-1.395l-4.642-6.516c-0.32-0.45-0.945-0.555-1.395-0.234
		l-3.18,2.192c-1.588-1.222-3.452-2.181-5.452-2.784V3c0-1-0.24-1-0.792-1h-8c-0.552,0-1.208,1-1.208,1v3.973
		c-2,0.623-3.782,1.623-5.408,2.906L8.118,7.514c-0.453-0.317-1.05-0.206-1.367,0.246l-4.572,6.555
		c-0.317,0.453-0.2,1.076,0.253,1.393l3.417,2.388c-0.511,1.618-0.789,3.339-0.789,5.126c0,1.884,0.32,3.691,0.886,5.385
		l-3.111,2.216c-0.45,0.32-0.554,0.945-0.234,1.395l4.642,6.516c0.32,0.45,0.945,0.555,1.395,0.234l3.033-2.234
		c1.573,1.2,3.184,2.143,5.184,2.739v3.838c0,0.552,0.656,1.689,1.208,1.689h8c0.552,0,0.792-1.137,0.792-1.689v-3.838
		c2-0.604,3.873-1.566,5.463-2.792l2.918,2.005c0.453,0.317,1.102,0.206,1.419-0.246l4.598-6.555
		c0.317-0.453,0.213-1.076-0.24-1.393L38.207,28.525z"/>
</g>
</svg>
