<?xml version="1.0" encoding="utf-8"?>
<!-- Generator: Adobe Illustrator 19.2.1, SVG Export Plug-In . SVG Version: 6.00 Build 0)  -->
<!DOCTYPE svg PUBLIC "-//W3C//DTD SVG 1.1//EN" "http://www.w3.org/Graphics/SVG/1.1/DTD/svg11.dtd">
<svg version="1.1" id="icons" xmlns="http://www.w3.org/2000/svg" xmlns:xlink="http://www.w3.org/1999/xlink" x="0px" y="0px"
	 width="47px" height="46px" viewBox="0 0 47 46" enable-background="new 0 0 47 46" xml:space="preserve">
<g id="Icon_41_">
	<path fill="none" stroke="#50BC93" stroke-width="4" stroke-linecap="round" stroke-miterlimit="10" d="M11,43c0,0.552-0.448,1-1,1
		H3c-0.552,0-1-0.448-1-1V18c0-0.552,0.448-1,1-1h7c0.552,0,1,0.448,1,1V43z"/>
	<path fill="none" stroke="#50BC93" stroke-width="4" stroke-linecap="round" stroke-miterlimit="10" d="M45,43c0,0.552-0.448,1-1,1
		h-7c-0.552,0-1-0.448-1-1V28c0-0.552,0.448-1,1-1h7c0.552,0,1,0.448,1,1V43z"/>
	<path fill="none" stroke="#50BC93" stroke-width="4" stroke-linecap="round" stroke-miterlimit="10" d="M28,43c0,0.552-0.448,1-1,1
		h-7c-0.552,0-1-0.448-1-1V3c0-0.552,0.448-1,1-1h7c0.552,0,1,0.448,1,1V43z"/>
</g>
</svg>
