<?xml version="1.0" encoding="utf-8"?>
<!-- Generator: Adobe Illustrator 19.2.1, SVG Export Plug-In . SVG Version: 6.00 Build 0)  -->
<!DOCTYPE svg PUBLIC "-//W3C//DTD SVG 1.1//EN" "http://www.w3.org/Graphics/SVG/1.1/DTD/svg11.dtd">
<svg version="1.1" id="icons" xmlns="http://www.w3.org/2000/svg" xmlns:xlink="http://www.w3.org/1999/xlink" x="0px" y="0px"
	 width="32px" height="46px" viewBox="0 0 32 46" enable-background="new 0 0 32 46" xml:space="preserve">
<g id="Icon_55_">
	<path fill="none" stroke="#50BC93" stroke-width="4" stroke-linecap="round" stroke-linejoin="round" stroke-miterlimit="10" d="
		M28.928,44H3.139C2.545,44,2,43.03,2,42.45v-9.624V2.55C2,1.97,2.545,2,3.139,2h25.79C29.522,2,30,1.97,30,2.55v39.9
		C30,43.03,29.522,44,28.928,44z"/>
	<line fill="none" stroke="#50BC93" stroke-width="4" stroke-miterlimit="10" x1="2" y1="32" x2="30" y2="32"/>
	<line fill="none" stroke="#50BC93" stroke-width="4" stroke-miterlimit="10" x1="30" y1="9" x2="2" y2="9"/>
	<g>
		<path fill="#50BC93" d="M15.854,35.334c-1.187,0-2.149,0.895-2.149,2c0,1.104,0.962,2,2.149,2c1.187,0,2.149-0.896,2.149-2
			C18.003,36.229,17.041,35.334,15.854,35.334L15.854,35.334z"/>
	</g>
</g>
</svg>
