<?xml version="1.0" encoding="utf-8"?>
<!-- Generator: Adobe Illustrator 19.2.1, SVG Export Plug-In . SVG Version: 6.00 Build 0)  -->
<!DOCTYPE svg PUBLIC "-//W3C//DTD SVG 1.1//EN" "http://www.w3.org/Graphics/SVG/1.1/DTD/svg11.dtd">
<svg version="1.1" id="icons" xmlns="http://www.w3.org/2000/svg" xmlns:xlink="http://www.w3.org/1999/xlink" x="0px" y="0px"
	 width="44px" height="45.998px" viewBox="0 0 44 45.998" enable-background="new 0 0 44 45.998" xml:space="preserve">
<g id="Icon_58_">
	<path fill="none" stroke="#50BC93" stroke-width="4" stroke-linecap="round" stroke-miterlimit="10" d="M35.051,29.302
		C38.642,29.133,42,26.709,42,22.734c0-1.819-0.669-3.453-1.618-4.663c-1.198-1.832-3.326-3.073-5.751-3.073
		c-0.211,0-0.42-0.002-0.626,0.016c0.216-0.855,0.331-1.76,0.331-2.688C34.336,6.625,29.981,2,24.608,2
		c-5.372,0-9.728,4.621-9.728,10.322c0,0.215,0.006,0.428,0.018,0.64c-1.147-0.485-2.42-0.756-3.761-0.756
		C6.091,12.206,2,16.036,2,20.76c0,4.431,2.302,8.095,6.751,8.511c0.065,0.027,0.136,0.22,0.211,0.22h25.987
		C34.983,29.491,35.018,29.309,35.051,29.302z"/>
	
		<line fill="none" stroke="#50BC93" stroke-width="4" stroke-linecap="round" stroke-miterlimit="10" x1="26.103" y1="43.998" x2="32.256" y2="35.595"/>
	
		<line fill="none" stroke="#50BC93" stroke-width="4" stroke-linecap="round" stroke-miterlimit="10" x1="15.846" y1="43.998" x2="22" y2="35.595"/>
	
		<line fill="none" stroke="#50BC93" stroke-width="4" stroke-linecap="round" stroke-miterlimit="10" x1="5.59" y1="43.998" x2="11.744" y2="35.595"/>
</g>
</svg>
