<?xml version="1.0" encoding="utf-8"?>
<!-- Generator: Adobe Illustrator 19.2.1, SVG Export Plug-In . SVG Version: 6.00 Build 0)  -->
<!DOCTYPE svg PUBLIC "-//W3C//DTD SVG 1.1//EN" "http://www.w3.org/Graphics/SVG/1.1/DTD/svg11.dtd">
<svg version="1.1" id="icons" xmlns="http://www.w3.org/2000/svg" xmlns:xlink="http://www.w3.org/1999/xlink" x="0px" y="0px"
	 width="53.116px" height="48.024px" viewBox="0 0 53.116 48.024" enable-background="new 0 0 53.116 48.024" xml:space="preserve">
<g id="Icon_15_">
	
		<polyline fill="none" stroke="#50BC93" stroke-width="4" stroke-linecap="round" stroke-linejoin="round" stroke-miterlimit="10" points="
		44.558,23.024 44.558,46.024 8.558,46.024 8.558,23.024 	"/>
	<path fill="none" stroke="#50BC93" stroke-width="4" stroke-linecap="round" stroke-linejoin="round" stroke-miterlimit="10" d="
		M32.558,44.024c0,0.552-0.448,1-1,1h-10c-0.552,0-1-0.448-1-1v-10c0-0.552,0.448-1,1-1h10c0.552,0,1,0.448,1,1V44.024z"/>
	<path fill="none" stroke="#50BC93" stroke-width="4" stroke-linecap="round" stroke-linejoin="round" stroke-miterlimit="10" d="
		M2,15.35L8.14,2.311c0-0.435,0.458-0.287,1.023-0.287h34.791c0.565,0,1.023-0.148,1.023,0.287l6.14,13.288"/>
	<g>
		<path fill="none" stroke="#50BC93" stroke-width="4" stroke-linecap="round" stroke-linejoin="round" stroke-miterlimit="10" d="
			M14.279,16.373c0,3.391,2.749,6.14,6.14,6.14s6.14-2.749,6.14-6.14"/>
		<path fill="none" stroke="#50BC93" stroke-width="4" stroke-linecap="round" stroke-linejoin="round" stroke-miterlimit="10" d="
			M38.837,16.373c0,3.391,2.749,6.14,6.14,6.14c3.391,0,6.14-2.749,6.14-6.14"/>
		<path fill="none" stroke="#50BC93" stroke-width="4" stroke-linecap="round" stroke-linejoin="round" stroke-miterlimit="10" d="
			M26.558,16.373c0,3.391,2.749,6.14,6.14,6.14s6.14-2.749,6.14-6.14"/>
		<path fill="none" stroke="#50BC93" stroke-width="4" stroke-linecap="round" stroke-linejoin="round" stroke-miterlimit="10" d="
			M2,16.373c0,3.391,2.749,6.14,6.14,6.14s6.14-2.749,6.14-6.14"/>
	</g>
</g>
</svg>
