<?xml version="1.0" encoding="utf-8"?>
<!-- Generator: Adobe Illustrator 19.2.1, SVG Export Plug-In . SVG Version: 6.00 Build 0)  -->
<!DOCTYPE svg PUBLIC "-//W3C//DTD SVG 1.1//EN" "http://www.w3.org/Graphics/SVG/1.1/DTD/svg11.dtd">
<svg version="1.1" id="icons" xmlns="http://www.w3.org/2000/svg" xmlns:xlink="http://www.w3.org/1999/xlink" x="0px" y="0px"
	 width="46px" height="44px" viewBox="0 0 46 44" enable-background="new 0 0 46 44" xml:space="preserve">
<g id="Icon_31_">
	<path fill="none" stroke="#50BC93" stroke-width="4" stroke-linecap="round" stroke-linejoin="round" stroke-miterlimit="10" d="
		M43,18v22.474C43,41.041,42.552,42,42,42H4c-0.552,0-1-0.959-1-1.526V18"/>
	<path fill="none" stroke="#50BC93" stroke-width="4" stroke-linecap="round" stroke-linejoin="round" stroke-miterlimit="10" d="
		M30,7c0,0.552-0.448,1-1,1H17c-0.552,0-1-0.448-1-1V3c0-0.552,0.448-1,1-1h12c0.552,0,1,0.448,1,1V7z"/>
	<path fill="none" stroke="#50BC93" stroke-width="4" stroke-linecap="round" stroke-linejoin="round" stroke-miterlimit="10" d="
		M38,21H8c-3.314,0-6-3.212-6-6.526V9.167C2,8.614,2.448,9,3,9h40c0.552,0,1-0.386,1,0.167v5.308C44,17.788,41.314,21,38,21z"/>
	<path fill="none" stroke="#50BC93" stroke-width="4" stroke-linecap="round" stroke-linejoin="round" stroke-miterlimit="10" d="
		M28,22v5.141C28,27.693,27.552,29,27,29h-8c-0.552,0-1-1.307-1-1.859V22"/>
</g>
</svg>
