<?xml version="1.0" encoding="utf-8"?>
<!-- Generator: Adobe Illustrator 19.2.1, SVG Export Plug-In . SVG Version: 6.00 Build 0)  -->
<!DOCTYPE svg PUBLIC "-//W3C//DTD SVG 1.1//EN" "http://www.w3.org/Graphics/SVG/1.1/DTD/svg11.dtd">
<svg version="1.1" id="icons" xmlns="http://www.w3.org/2000/svg" xmlns:xlink="http://www.w3.org/1999/xlink" x="0px" y="0px"
	 width="44px" height="42px" viewBox="0 0 44 42" enable-background="new 0 0 44 42" xml:space="preserve">
<g id="Icon_2_">
	<path fill="none" stroke="#50BC93" stroke-width="4" stroke-linecap="round" stroke-linejoin="round" stroke-miterlimit="10" d="
		M3.629,18.444l17.809,21.282c0.307,0.367,0.809,0.362,1.112,0l17.809-21.282l-0.711,0.91c1.049-1.311,1.799-2.892,2.143-4.628
		C41.928,14.031,42,13.312,42,12.574c0-5.835-4.519-10.566-10.093-10.566c-4.599,0-8.479,3.22-9.697,7.623l-0.42-0.008
		C20.573,5.22,16.692,2,12.093,2C6.519,2,2,6.73,2,12.566c0,0.737,0.072,1.457,0.209,2.152c0.343,1.737,1.094,3.318,2.143,4.628"/>
</g>
</svg>
