<?xml version="1.0" encoding="utf-8"?>
<!-- Generator: Adobe Illustrator 19.2.1, SVG Export Plug-In . SVG Version: 6.00 Build 0)  -->
<!DOCTYPE svg PUBLIC "-//W3C//DTD SVG 1.1//EN" "http://www.w3.org/Graphics/SVG/1.1/DTD/svg11.dtd">
<svg version="1.1" id="icons" xmlns="http://www.w3.org/2000/svg" xmlns:xlink="http://www.w3.org/1999/xlink" x="0px" y="0px"
	 width="42px" height="40px" viewBox="0 0 42 40" enable-background="new 0 0 42 40" xml:space="preserve">
<g id="Icon_62_">
	<path fill="none" stroke="#50BC93" stroke-width="4" stroke-linecap="round" stroke-linejoin="round" stroke-miterlimit="10" d="
		M40,15c0,0.552-0.448,1-1,1H3c-0.552,0-1-0.448-1-1V3c0-0.552,0.448-1,1-1h36c0.552,0,1,0.448,1,1V15z"/>
	<path fill="none" stroke="#50BC93" stroke-width="4" stroke-linecap="round" stroke-linejoin="round" stroke-miterlimit="10" d="
		M40,37c0,0.552-0.448,1-1,1H3c-0.552,0-1-0.448-1-1V25c0-0.552,0.448-1,1-1h36c0.552,0,1,0.448,1,1V37z"/>
</g>
</svg>
