<?xml version="1.0" encoding="utf-8"?>
<!-- Generator: Adobe Illustrator 19.2.1, SVG Export Plug-In . SVG Version: 6.00 Build 0)  -->
<!DOCTYPE svg PUBLIC "-//W3C//DTD SVG 1.1//EN" "http://www.w3.org/Graphics/SVG/1.1/DTD/svg11.dtd">
<svg version="1.1" id="icons" xmlns="http://www.w3.org/2000/svg" xmlns:xlink="http://www.w3.org/1999/xlink" x="0px" y="0px"
	 width="48.12px" height="47.06px" viewBox="0 0 48.12 47.06" enable-background="new 0 0 48.12 47.06" xml:space="preserve">
<g id="Icon_48_">
	
		<ellipse fill="none" stroke="#50BC93" stroke-width="3.6522" stroke-miterlimit="10" cx="19.41" cy="41.449" rx="3.684" ry="3.785"/>
	
		<ellipse fill="none" stroke="#50BC93" stroke-width="3.6522" stroke-miterlimit="10" cx="35.067" cy="41.449" rx="3.684" ry="3.785"/>
	<path fill="none" stroke="#50BC93" stroke-width="4" stroke-miterlimit="10" d="M9.987,8h35.424c0.52,0,0.822,0.07,0.67,0.555
		l-5.399,17.392C40.532,26.422,40.126,27,39.77,27H15.627c-0.354,0-0.76-0.723-0.912-1.208L9.317,8.727C9.167,8.251,9.465,8,9.987,8
		z"/>
	
		<line fill="none" stroke="#50BC93" stroke-width="3.6522" stroke-linecap="round" stroke-miterlimit="10" x1="9.278" y1="7.858" x2="7.436" y2="3.234"/>
	<path fill="none" stroke="#50BC93" stroke-width="3.6522" stroke-linecap="round" stroke-miterlimit="10" d="M15.726,26.782
		c-0.34,0-0.729,0.384-0.875,0.876l-2.809,7.641"/>
	<line fill="none" stroke="#50BC93" stroke-width="4" stroke-linecap="round" stroke-miterlimit="10" x1="2" y1="2" x2="7" y2="2"/>
	
		<line fill-rule="evenodd" clip-rule="evenodd" fill="none" stroke="#50BC93" stroke-width="4" stroke-linecap="round" stroke-miterlimit="10" x1="12" y1="36" x2="41" y2="36"/>
</g>
</svg>
