<?xml version="1.0" encoding="utf-8"?>
<!-- Generator: Adobe Illustrator 19.2.1, SVG Export Plug-In . SVG Version: 6.00 Build 0)  -->
<!DOCTYPE svg PUBLIC "-//W3C//DTD SVG 1.1//EN" "http://www.w3.org/Graphics/SVG/1.1/DTD/svg11.dtd">
<svg version="1.1" id="icons" xmlns="http://www.w3.org/2000/svg" xmlns:xlink="http://www.w3.org/1999/xlink" x="0px" y="0px"
	 width="42px" height="48px" viewBox="0 0 42 48" enable-background="new 0 0 42 48" xml:space="preserve">
<g id="Icon_42_">
	<path fill="none" stroke="#50BC93" stroke-width="4" stroke-linecap="round" stroke-miterlimit="10" d="M31.372,46H11.628
		C7.762,46,5,42.366,5,38.5V11.086C5,9.982,5.523,10,6.628,10h28.744C36.477,10,37,9.982,37,11.086V39.5
		C37,42.814,34.686,46,31.372,46z"/>
	
		<line fill="none" stroke="#50BC93" stroke-width="4" stroke-linecap="round" stroke-miterlimit="10" x1="2" y1="10" x2="40" y2="10"/>
	<path fill="none" stroke="#50BC93" stroke-width="4" stroke-linecap="round" stroke-miterlimit="10" d="M28,8c0,0.552-0.448,1-1,1
		H15c-0.552,0-1-0.448-1-1V3c0-0.552,0.448-1,1-1h12c0.552,0,1,0.448,1,1V8z"/>
	
		<line fill="none" stroke="#50BC93" stroke-width="4" stroke-linecap="round" stroke-miterlimit="10" x1="13" y1="19" x2="13" y2="37"/>
	
		<line fill="none" stroke="#50BC93" stroke-width="4" stroke-linecap="round" stroke-miterlimit="10" x1="21" y1="19" x2="21" y2="37"/>
	
		<line fill="none" stroke="#50BC93" stroke-width="4" stroke-linecap="round" stroke-miterlimit="10" x1="29" y1="19" x2="29" y2="37"/>
</g>
</svg>
