<?xml version="1.0" encoding="utf-8"?>
<!-- Generator: Adobe Illustrator 19.2.1, SVG Export Plug-In . SVG Version: 6.00 Build 0)  -->
<!DOCTYPE svg PUBLIC "-//W3C//DTD SVG 1.1//EN" "http://www.w3.org/Graphics/SVG/1.1/DTD/svg11.dtd">
<svg version="1.1" id="icons" xmlns="http://www.w3.org/2000/svg" xmlns:xlink="http://www.w3.org/1999/xlink" x="0px" y="0px"
	 width="46px" height="46px" viewBox="0 0 46 46" enable-background="new 0 0 46 46" xml:space="preserve">
<g>
	<path fill="none" stroke="#50BC93" stroke-width="4" stroke-linecap="round" stroke-linejoin="round" stroke-miterlimit="10" d="
		M11,36H7.625h-4.5C2.573,36,2,35.584,2,35.071v-19.5C2,12.494,4.811,10,8.125,10h30C41.439,10,44,12.494,44,15.571v19.5
		C44,35.584,43.677,36,43.125,36h-4.25H35"/>
	<path fill="none" stroke="#50BC93" stroke-width="4" stroke-linecap="round" stroke-linejoin="round" stroke-miterlimit="10" d="
		M34,43c0,0.552-0.448,1-1,1H13c-0.552,0-1-0.448-1-1V27c0-0.552,0.448-1,1-1h20c0.552,0,1,0.448,1,1V43z"/>
	<path fill="none" stroke="#50BC93" stroke-width="4" stroke-linecap="round" stroke-linejoin="round" stroke-miterlimit="10" d="
		M10,10V3c0-0.552,0.573-1,1.125-1h24C35.677,2,36,2.448,36,3v7"/>
</g>
</svg>
