<?xml version="1.0" encoding="utf-8"?>
<!-- Generator: Adobe Illustrator 19.2.1, SVG Export Plug-In . SVG Version: 6.00 Build 0)  -->
<!DOCTYPE svg PUBLIC "-//W3C//DTD SVG 1.1//EN" "http://www.w3.org/Graphics/SVG/1.1/DTD/svg11.dtd">
<svg version="1.1" id="icons" xmlns="http://www.w3.org/2000/svg" xmlns:xlink="http://www.w3.org/1999/xlink" x="0px" y="0px"
	 width="48.014px" height="38.064px" viewBox="0 0 48.014 38.064" enable-background="new 0 0 48.014 38.064" xml:space="preserve">
<g id="Icon_65_">
	<path fill="none" stroke="#50BC93" stroke-width="4" stroke-miterlimit="10" d="M45.162,36.064H2.867
		c-0.641,0-0.852-1.026-0.852-1.669V2.733c0-0.266-0.066-0.513,0.085-0.71C2.155,1.95,2.142,2.134,2.213,2.075
		c0.2-0.163,0.377-0.011,0.654-0.011h42.296c0.641,0,0.852,0.026,0.852,0.669v31.663C46.014,35.039,45.803,36.064,45.162,36.064z"/>
	<path fill="none" stroke="#50BC93" stroke-width="4.1039" stroke-miterlimit="10" d="M1.943,2.023l17.338,16.97
		c2.719,2.564,7.064,2.546,9.76-0.04L46.16,2.141"/>
	
		<line fill="none" stroke="#50BC93" stroke-width="4.1039" stroke-miterlimit="10" x1="46.16" y1="34.987" x2="32.075" y2="15.974"/>
	
		<line fill="none" stroke="#50BC93" stroke-width="4.1039" stroke-miterlimit="10" x1="1.869" y1="34.987" x2="16.246" y2="15.974"/>
</g>
</svg>
