<?xml version="1.0" encoding="utf-8"?>
<!-- Generator: Adobe Illustrator 19.2.1, SVG Export Plug-In . SVG Version: 6.00 Build 0)  -->
<!DOCTYPE svg PUBLIC "-//W3C//DTD SVG 1.1//EN" "http://www.w3.org/Graphics/SVG/1.1/DTD/svg11.dtd">
<svg version="1.1" id="icons" xmlns="http://www.w3.org/2000/svg" xmlns:xlink="http://www.w3.org/1999/xlink" x="0px" y="0px"
	 width="47.879px" height="42px" viewBox="0 0 47.879 42" enable-background="new 0 0 47.879 42" xml:space="preserve">
<g id="Icon_11_">
	<path fill="none" stroke="#50BC93" stroke-width="4" stroke-miterlimit="10" d="M2,17.561C2,16.933,2.64,16,3.271,16h10.922
		C14.828,16,15,16.938,15,17.561v21.302C15,39.491,14.825,40,14.193,40H3.271C2.636,40,2,39.486,2,38.863V17.561z"/>
	<path fill="none" stroke="#50BC93" stroke-width="4" stroke-linecap="round" stroke-linejoin="bevel" stroke-miterlimit="10" d="
		M31,14h12.372c1.465,0,2.757,3.754,2.465,5.129c0,0-3.539,14.307-4.4,16.53C40.577,37.882,37.696,38,37.078,38H35"/>
	<path fill="none" stroke="#50BC93" stroke-width="4" stroke-linecap="round" stroke-miterlimit="10" d="M16.029,19.12l2.266-0.899
		l4.83-8.566c0,0-0.191-4.54,0.29-5.905c0.482-1.366,4.909-3.854,7.516,1.724c2.607,5.578,0,8.696,0,8.696"/>
	<path fill="none" stroke="#50BC93" stroke-width="4" stroke-linecap="round" stroke-linejoin="bevel" stroke-miterlimit="10" d="
		M23.862,38.378c-2.276-0.832-8.134-3.039-8.134-3.039"/>
	
		<line fill="none" stroke="#50BC93" stroke-width="4" stroke-linecap="round" stroke-miterlimit="10" x1="24" y1="38" x2="37" y2="38"/>
</g>
</svg>
