<?xml version="1.0" encoding="utf-8"?>
<!-- Generator: Adobe Illustrator 19.2.1, SVG Export Plug-In . SVG Version: 6.00 Build 0)  -->
<!DOCTYPE svg PUBLIC "-//W3C//DTD SVG 1.1//EN" "http://www.w3.org/Graphics/SVG/1.1/DTD/svg11.dtd">
<svg version="1.1" id="icons" xmlns="http://www.w3.org/2000/svg" xmlns:xlink="http://www.w3.org/1999/xlink" x="0px" y="0px"
	 width="47.105px" height="46px" viewBox="0 0 47.105 46" enable-background="new 0 0 47.105 46" xml:space="preserve">
<g id="Icon_39_">
	<path fill="none" stroke="#50BC93" stroke-width="4" stroke-linecap="round" stroke-miterlimit="10" d="M37.506,30
		c0.038,0,0.075-0.004,0.111-0.01c3.869-0.175,7.488-2.584,7.488-6.685c0-1.876-0.721-3.517-1.744-4.765
		c-1.291-1.891-3.584-3.148-6.197-3.148c-0.228,0-0.453,0.01-0.675,0.028c0.233-0.882,0.357-1.81,0.357-2.767
		C36.846,6.769,32.153,2,26.363,2S15.88,6.769,15.88,12.652c0,0.222,0.007,0.442,0.02,0.661c-1.236-0.501-2.608-0.78-4.053-0.78
		C6.409,12.533,2,16.485,2,21.359c0,4.571,2.481,8.168,7.275,8.598C9.345,29.985,9.422,30,9.502,30"/>
	
		<line fill="none" stroke="#50BC93" stroke-width="4" stroke-linecap="round" stroke-miterlimit="10" x1="10.172" y1="30" x2="16.698" y2="29.99"/>
	
		<line fill="none" stroke="#50BC93" stroke-width="4" stroke-linecap="round" stroke-miterlimit="10" x1="31.172" y1="30.129" x2="36.698" y2="30.058"/>
	
		<polyline fill="none" stroke="#50BC93" stroke-width="4" stroke-linecap="round" stroke-linejoin="round" stroke-miterlimit="10" points="
		23.553,21.584 23.553,44 17.227,38.814 	"/>
	
		<line fill="none" stroke="#50BC93" stroke-width="4" stroke-linecap="round" stroke-linejoin="round" stroke-miterlimit="10" x1="23.553" y1="44" x2="29.878" y2="38.814"/>
</g>
</svg>
