<?xml version="1.0" encoding="utf-8"?>
<!-- Generator: Adobe Illustrator 19.2.1, SVG Export Plug-In . SVG Version: 6.00 Build 0)  -->
<!DOCTYPE svg PUBLIC "-//W3C//DTD SVG 1.1//EN" "http://www.w3.org/Graphics/SVG/1.1/DTD/svg11.dtd">
<svg version="1.1" id="icons" xmlns="http://www.w3.org/2000/svg" xmlns:xlink="http://www.w3.org/1999/xlink" x="0px" y="0px"
	 width="46.25px" height="26px" viewBox="0 0 46.25 26" enable-background="new 0 0 46.25 26" xml:space="preserve">
<g id="Icon_21_">
	<path fill="none" stroke="#50BC93" stroke-width="4" stroke-linecap="round" stroke-linejoin="round" stroke-miterlimit="10" d="
		M37,24H3c-0.552,0-1-0.448-1-1V3c0-0.552,0.448-1,1-1h34c0.552,0,1,0.448,1,1v20C38,23.552,37.552,24,37,24z"/>
	<path fill="none" stroke="#50BC93" stroke-width="4" stroke-linecap="round" stroke-linejoin="round" stroke-miterlimit="10" d="
		M42.25,18.583h-2c-1.105,0-2-0.895-2-2v-6c0-1.105,0.895-2,2-2h2c1.105,0,2,0.895,2,2v6C44.25,17.688,43.355,18.583,42.25,18.583z"
		/>
	
		<line fill="none" stroke="#50BC93" stroke-width="4" stroke-linecap="round" stroke-linejoin="round" stroke-miterlimit="10" x1="29.5" y1="4.576" x2="29.5" y2="22.591"/>
</g>
</svg>
