<?xml version="1.0" encoding="utf-8"?>
<!-- Generator: Adobe Illustrator 19.2.1, SVG Export Plug-In . SVG Version: 6.00 Build 0)  -->
<!DOCTYPE svg PUBLIC "-//W3C//DTD SVG 1.1//EN" "http://www.w3.org/Graphics/SVG/1.1/DTD/svg11.dtd">
<svg version="1.1" id="icons" xmlns="http://www.w3.org/2000/svg" xmlns:xlink="http://www.w3.org/1999/xlink" x="0px" y="0px"
	 width="53.5px" height="43.491px" viewBox="0 0 53.5 43.491" enable-background="new 0 0 53.5 43.491" xml:space="preserve">
<g id="Icon_63_">
	<path fill="none" stroke="#50BC93" stroke-width="4" stroke-linecap="round" stroke-miterlimit="10" d="M28.5,18.224
		C27.527,14.642,24.153,12,20.141,12c-4.772,0-8.641,3.738-8.641,8.349c0,2.714,1.34,5.126,3.416,6.651"/>
	<path fill="none" stroke="#50BC93" stroke-width="4" stroke-linecap="round" stroke-miterlimit="10" d="M44.725,41.491
		c3.501-0.156,6.775-2.557,6.775-6.219c0-1.675-0.652-3.265-1.578-4.38c-1.168-1.688-3.243-2.873-5.607-2.873
		c-0.206,0-0.41-0.023-0.611-0.006c0.211-0.788,0.323-1.632,0.323-2.486c0-5.253-4.246-9.519-9.484-9.519
		c-5.238,0-9.484,4.254-9.484,9.507c0,0.198,0.006,0.393,0.018,0.588c-1.118-0.447-2.36-0.697-3.667-0.697
		c-4.921,0-8.91,3.528-8.91,7.88c0,4.082,2.245,7.793,6.582,8.176L44.725,41.491z"/>
	
		<line fill="none" stroke="#50BC93" stroke-width="4" stroke-linecap="round" stroke-miterlimit="10" x1="19" y1="6" x2="19" y2="2"/>
	
		<line fill="none" stroke="#50BC93" stroke-width="4" stroke-linecap="round" stroke-miterlimit="10" x1="6" y1="21" x2="2" y2="21"/>
	
		<line fill="none" stroke="#50BC93" stroke-width="4" stroke-linecap="round" stroke-miterlimit="10" x1="30.436" y1="10.064" x2="33.564" y2="6.936"/>
	
		<line fill="none" stroke="#50BC93" stroke-width="4" stroke-linecap="round" stroke-miterlimit="10" x1="9.564" y1="10.064" x2="6.436" y2="6.936"/>
</g>
</svg>
