<?xml version="1.0" encoding="utf-8"?>
<!-- Generator: Adobe Illustrator 19.2.1, SVG Export Plug-In . SVG Version: 6.00 Build 0)  -->
<!DOCTYPE svg PUBLIC "-//W3C//DTD SVG 1.1//EN" "http://www.w3.org/Graphics/SVG/1.1/DTD/svg11.dtd">
<svg version="1.1" id="icons" xmlns="http://www.w3.org/2000/svg" xmlns:xlink="http://www.w3.org/1999/xlink" x="0px" y="0px"
	 width="46.023px" height="48px" viewBox="0 0 46.023 48" enable-background="new 0 0 46.023 48" xml:space="preserve">
<g id="Icon_60_">
	<path fill="none" stroke="#50BC93" stroke-width="4" stroke-linecap="round" stroke-linejoin="round" stroke-miterlimit="10" d="
		M11.951,33.091l10.725,12.74c0.192,0.228,0.505,0.224,0.694,0l10.74-12.757"/>
	<path fill="none" stroke="#50BC93" stroke-width="4" stroke-linecap="round" stroke-linejoin="round" stroke-miterlimit="10" d="
		M3.997,18.542c-0.843-1.162-1.45-2.502-1.754-3.951c-0.144-0.688-0.22-1.4-0.22-2.13C2.023,6.683,6.768,2,12.621,2
		c4.829,0,8.903,3.188,10.182,7.547l0.441,0.008c1.278-4.36,5.353-7.547,10.181-7.547c5.853,0,10.598,4.683,10.598,10.461
		c0,0.73-0.076,1.443-0.22,2.13c-0.312,1.49-0.946,2.865-1.826,4.049"/>
	
		<polyline fill="none" stroke="#50BC93" stroke-width="4" stroke-linecap="round" stroke-linejoin="round" stroke-miterlimit="10" points="
		2,26.157 10.16,26.006 14.696,19.229 21.231,30.939 26.798,26.5 43.023,26.5 	"/>
</g>
</svg>
