<svg width="24" height="24" viewBox="0 0 24 24" fill="none" xmlns="http://www.w3.org/2000/svg">
<path d="M19 16.4489C18.4792 17.4915 17.5 19.2013 16.5 20.2021C15.25 21.4532 13.6875 20.2021 12.125 20.2021C10.2241 20.2021 9.3125 21.766 7.4375 20.5149C5.5625 19.2638 4 15.8234 4 12.383C4 8.94255 6.5 7.69149 8.0625 7.69149C9.625 7.69149 10.25 8.00426 11.1875 8.31702C10.875 6.85745 11.1875 3.75064 14.9375 3C14.8333 4.25106 14.25 7.03468 12.75 8.16064C13.8958 7.69149 16.375 7.0034 18.375 9.25532C17.75 9.56809 15.875 12.0702 17.125 14.5723" stroke="black" stroke-linecap="round" stroke-linejoin="round"/>
</svg>
