<svg width="24" height="24" viewBox="0 0 24 24" fill="none" xmlns="http://www.w3.org/2000/svg">
<path d="M18 6.67847C18 7.5 16.8727 8.11285 16 7C15.5 6.3624 15.6774 4.43215 18 4.47139C20.3226 4.51063 20.9677 6.3842 21 7.31608C21 7.93733 21 10.3177 21 14.8692C21 19.4207 17.7742 20.8529 16.1613 21C15.2903 21 12.5032 21 8.32258 21C4.14194 21 3.03226 17.7629 3 16.1444C3 15.5068 3 13.1232 3 8.68937C3 4.25559 5.96774 3.04905 7.45161 3H14.5161C12.2097 4.02997 7.31 6.06747 7.45161 11.0436C7.59677 16.1444 12.4076 17.4645 14.5161 15.3597C16.6246 13.2548 15.5 8.68937 12 8.68937" stroke="black" stroke-linecap="round" stroke-linejoin="round"/>
</svg>
