<svg width="24" height="24" viewBox="0 0 24 24" fill="none" xmlns="http://www.w3.org/2000/svg">
<path d="M10.3414 17.6824C9.76466 17.888 9.14352 18 8.49625 18C5.46075 18 3 15.5376 3 12.5C3 9.46243 5.46075 7 8.49625 7C11.5317 7 13.9925 9.46244 13.9925 12.5C13.9925 14.2051 13.2171 15.7289 12 16.7378C10.7829 15.7289 10.0075 14.2051 10.0075 12.5C10.0075 9.46243 12.4683 7 15.5037 7C18.5392 7 21 9.46244 21 12.5C21 15.5376 18.5392 18 15.5037 18C14.8565 18 14.2353 17.888 13.6586 17.6824" stroke="black" stroke-linecap="round" stroke-linejoin="round"/>
</svg>
