<svg width="24" height="24" viewBox="0 0 24 24" fill="none" xmlns="http://www.w3.org/2000/svg">
<path d="M14.4484 20.125C15.0078 20.7812 16.188 20.9747 16.788 21C19.7125 20.924 20.2151 18.3701 19.9305 17.0456C18.9678 19.5171 17.0848 18.2255 16.5882 17.4829C16.0915 16.7403 15.5043 15.6705 15.0078 14.9924C12.5374 11.7072 9.71584 13.0152 8.61385 14.0798C11.5052 13.4935 12.9076 16.7577 13.2474 18.4631C12.6494 18.6298 12.0219 18.7186 11.3749 18.7186C7.30185 18.7186 4 15.1999 4 10.8593C4 6.51873 7.30185 3 11.3749 3C15.4479 3 18.7498 6.51873 18.7498 10.8593C18.7498 12.6423 18.4926 13.8375 17.5537 15.1562C17.1683 14.5337 16.0739 13.05 15.4636 12.5938C15.8632 9.72936 15.0078 4.55165 11.3749 4.4981C7.24786 4.43726 6.89425 10.1255 7.23333 12.9772" stroke="black" stroke-linecap="round" stroke-linejoin="round"/>
</svg>
