<svg width="24" height="24" viewBox="0 0 24 24" fill="none" xmlns="http://www.w3.org/2000/svg">
<path d="M10.4247 8.4257C8.66593 8.49885 6.80632 9.54146 6.09637 10.0536C5.06581 9.37532 3.96648 9.47706 3.48553 10.0536C2.39403 11.3621 3.4054 12.5972 3.96649 12.9703C3.38257 17.6845 9.20789 19.2287 12.6231 18.9733C17.9859 18.5722 20.2665 15.5648 19.9744 13.2077C20.5928 12.8686 21.5273 11.8767 20.6271 10.4267C19.9744 9.37532 18.2568 9.59011 17.6729 10.0536C15.8866 9.0226 13.2644 8.42569 12.1766 8.25612L13.4819 4.25413L16.8913 5.17833C17.1657 4.30143 18.106 3.80289 18.9942 4.07385C19.8824 4.34482 20.3799 5.27534 20.1055 6.15224C19.831 7.02914 18.8885 7.52034 18.0003 7.24938C17.6105 7.13046 17.296 6.88451 17.0889 6.5718" stroke="black" stroke-linecap="round" stroke-linejoin="round"/>
</svg>
