<svg width="24" height="24" viewBox="0 0 24 24" fill="none" xmlns="http://www.w3.org/2000/svg">
<path d="M11.0413 6.04327C11.7139 5.87196 13.3996 5.70921 14.7616 6.42873C16.4641 7.32813 17.6411 6.3859 17.494 5.42226C17.3469 4.45861 15.8336 3.06668 12.4706 3.00244C9.10765 2.9382 6.66951 4.1374 6.08099 7.30672C5.49247 10.476 8.25155 12.253 9.82228 12.853C12.0083 13.6882 14.4253 14.352 14.3832 16.7076C14.3412 19.0632 10.8311 18.3351 10.0745 17.9496C9.31779 17.5642 6.87508 15.7198 6.144 17.6927C5.36632 19.7913 8.14076 20.9048 10.2426 20.9905C12.3444 21.0761 18.1037 20.6693 17.9986 16.1723C17.9145 12.5746 14.84 11.1688 12.744 10.733C11.2496 10.4223 8.86816 9.20831 9.50712 7.47803" stroke="black" stroke-linecap="round" stroke-linejoin="round"/>
</svg>
