<svg width="24" height="24" viewBox="0 0 24 24" fill="none" xmlns="http://www.w3.org/2000/svg">
<path d="M6.43191 9.46289C6.05837 9.3123 5.27626 9.27523 5.13619 10.3317C4.99611 11.3881 6.57198 12.1156 7.37743 12.3473C6.76109 14.9884 4.20233 16.0889 3 16.309C4.51284 16.0032 7.24903 17.5253 8.42802 18.3246C9.21012 18.9269 11.1315 20.1038 12.5603 19.9926C14.3463 19.8536 15.3268 19.1934 17.0778 17.8728C18.4786 16.8163 20.2763 16.3901 21 16.309C18.2265 15.2803 16.9961 13.2392 16.7276 12.3473C17.4747 12.2314 18.9058 11.6661 18.6537 10.3317C18.4016 8.99722 17.0545 9.42814 16.4125 9.81041C16.6576 7.79481 16.1113 3.81227 11.965 4.00688C8.93853 4.14893 7.87982 6.1881 7.64218 8" stroke="black" stroke-linecap="round" stroke-linejoin="round"/>
</svg>
