<svg width="24" height="24" viewBox="0 0 24 24" fill="none" xmlns="http://www.w3.org/2000/svg">
<path d="M10.1086 13.1341C10.1313 12.1178 10.1086 9.92765 10.1086 9.14149C10.1086 8.36112 9.51618 7.38716 9.18582 7H13.2869V11.3934C13.2869 11.8167 13.6822 12.0591 13.9846 11.7832C15.0301 10.8294 16.4892 8.90072 17.1716 7.36077C17.267 7.1456 17.4666 7 17.6905 7H19.7391C20.0567 7 20.3041 7.2869 20.2203 7.61225C19.86 9.00941 18.7036 11.0295 17.864 12.3827C17.5881 12.8275 17.6214 13.4121 17.9647 13.8002C18.7799 14.7217 20.0168 16.077 20.8702 17.1111C21.1659 17.4693 20.9234 17.9978 20.4749 17.9978H17.9592C17.7926 17.9978 17.6359 17.9171 17.5295 17.7809C16.8488 16.909 15.7928 15.7601 14.7223 15.0578C14.503 14.9397 14.1453 14.7544 13.8363 14.6113C13.5464 14.4769 13.2869 14.6893 13.2869 15.0252V16.546C13.2869 17.7453 12.4781 18.0099 11.9882 17.9978C11.0541 18.0462 8.64142 17.2898 6.60555 14.7312C4.555 12.1541 3.2848 8.65754 3 7H6.52011C6.6739 7.93766 7.17188 9.7173 8.34375 11.3934" stroke="black" stroke-linecap="round" stroke-linejoin="round"/>
</svg>
