<svg width="24" height="24" viewBox="0 0 24 24" fill="none" xmlns="http://www.w3.org/2000/svg">
<path d="M8.89703 15.6813C8.20622 15.7097 7.45784 15.4745 7.17 15.3533L4.59745 16.9254L5.35039 14.2324C3.91531 13.2773 3 11.8289 3 10.2073C3 7.33141 5.87918 5 9.43084 5C12.8736 5 15.6845 7.19061 15.8536 9.94435C15.7808 9.94196 15.7075 9.94076 15.634 9.94076C12.6704 9.94076 10.2679 11.8974 10.2679 14.311C10.2679 14.6702 10.3211 15.0193 10.4215 15.3533C10.9954 17.2637 13.1114 18.6813 15.634 18.6813C16.1734 18.6813 16.6942 18.6164 17.1853 18.4958L19.7 20L19.0106 17.7077C20.2242 16.9065 21 15.6825 21 14.311C21 12.5125 19.666 10.9677 17.7599 10.2972" stroke="black" stroke-linecap="round" stroke-linejoin="round"/>
</svg>
