<svg width="24" height="24" viewBox="0 0 24 24" fill="none" xmlns="http://www.w3.org/2000/svg">
<path d="M5.98367 5.30634C4.1519 6.95382 3 9.34239 3 12C3 16.9706 7.02944 21 12 21C16.9706 21 21 16.9706 21 12C21 7.02944 16.9706 3 12 3C10.4452 3 8.98241 3.39428 7.70628 4.08831C8.85509 4.50953 11.3827 5.5082 12 6.04623C12.7123 5.47878 14.2552 4.58865 16.2531 4.85939C15.5937 5.38687 14.2196 6.75042 13.9981 7.98474C15.5014 8.94041 18.2312 12.5009 18.6268 16.174C17.0969 14.0113 13.6297 10.064 12 9.969C10.2793 9.969 7.8265 12.5027 5.13632 16.174C5.61105 13.3713 6.80581 10.7699 9.52764 7.98474C9.03971 7.43088 7.88979 6.26777 7.19351 6.04623" stroke="black" stroke-linecap="round" stroke-linejoin="round"/>
</svg>
