<?xml version="1.0" encoding="utf-8"?>
<!-- Generator: Adobe Illustrator 19.2.1, SVG Export Plug-In . SVG Version: 6.00 Build 0)  -->
<!DOCTYPE svg PUBLIC "-//W3C//DTD SVG 1.1//EN" "http://www.w3.org/Graphics/SVG/1.1/DTD/svg11.dtd">
<svg version="1.1" xmlns="http://www.w3.org/2000/svg" xmlns:xlink="http://www.w3.org/1999/xlink" x="0px" y="0px"
	 width="1144.01px" height="1110.38px" viewBox="0 0 1144.01 1110.38" enable-background="new 0 0 1144.01 1110.38"
	 xml:space="preserve">
<g id="Download_x5F_25_x25_">
	<g>
		<path fill="none" stroke="#000000" stroke-width="4" stroke-linejoin="round" stroke-miterlimit="10" d="M75.279,52.002
			c12.806,0,23.188,10.381,23.188,23.188"/>
		<g>
			<path fill="none" stroke="#000000" stroke-width="4" stroke-linecap="round" stroke-linejoin="round" stroke-miterlimit="10" d="
				M65.435,70.865c3.537,3.537,5.864,5.864,8.442,8.442c0.781,0.781,2.044,0.777,2.825-0.004l8.814-8.814"/>
			
				<line fill="none" stroke="#000000" stroke-width="4" stroke-linecap="round" stroke-linejoin="round" stroke-miterlimit="10" x1="75.476" y1="52.002" x2="75.476" y2="79.873"/>
		</g>
		<g>
			<circle cx="98.467" cy="75.19" r="1.959"/>
			<circle cx="97.121" cy="82.894" r="1.959"/>
			<circle cx="93.329" cy="89.769" r="1.959"/>
			<circle cx="87.416" cy="94.949" r="1.959"/>
			<circle cx="80.105" cy="97.889" r="1.959"/>
		</g>
		<g>
			<ellipse transform="matrix(0.9968 -0.0794 0.0794 0.9968 -5.9543 4.3848)" cx="52.136" cy="77.033" rx="1.959" ry="1.959"/>
			<ellipse transform="matrix(0.9968 -0.0794 0.0794 0.9968 -6.5497 4.5639)" cx="54.09" cy="84.606" rx="1.959" ry="1.959"/>
			<ellipse transform="matrix(0.9968 -0.0794 0.0794 0.9968 -7.0564 4.9283)" cx="58.416" cy="91.157" rx="1.959" ry="1.959"/>
			<ellipse transform="matrix(0.9968 -0.0794 0.0794 0.9968 -7.4093 5.444)" cx="64.722" cy="95.851" rx="1.959" ry="1.959"/>
			<ellipse transform="matrix(0.9968 -0.0794 0.0794 0.9968 -7.5723 6.0489)" cx="72.244" cy="98.202" rx="1.959" ry="1.959"/>
		</g>
		<g>
			<ellipse transform="matrix(0.9962 -0.0867 0.0867 0.9962 -5.8015 4.8362)" cx="52.801" cy="69.239" rx="1.959" ry="1.959"/>
			<ellipse transform="matrix(0.9962 -0.0867 0.0867 0.9962 -5.1676 5.0849)" cx="55.984" cy="62.062" rx="1.959" ry="1.959"/>
			<ellipse transform="matrix(0.9962 -0.0867 0.0867 0.9962 -4.6555 5.5352)" cx="61.426" cy="56.389" rx="1.959" ry="1.959"/>
			<ellipse transform="matrix(0.9962 -0.0867 0.0867 0.9962 -4.3203 6.1309)" cx="68.455" cy="52.826" rx="1.959" ry="1.959"/>
		</g>
	</g>
</g>
<g id="Download_x5F_50_x25_">
	<g>
		<path fill="none" stroke="#000000" stroke-width="4" stroke-linejoin="round" stroke-miterlimit="10" d="M195.279,52.002
			c12.806,0,23.188,10.381,23.188,23.188s-10.381,23.188-23.188,23.188c0,0-1.947-0.008-3.035-0.176"/>
		<g>
			<path fill="none" stroke="#000000" stroke-width="4" stroke-linecap="round" stroke-linejoin="round" stroke-miterlimit="10" d="
				M185.435,70.865c3.537,3.537,5.864,5.864,8.442,8.442c0.781,0.781,2.044,0.777,2.825-0.004l8.814-8.814"/>
			
				<line fill="none" stroke="#000000" stroke-width="4" stroke-linecap="round" stroke-linejoin="round" stroke-miterlimit="10" x1="195.476" y1="52.002" x2="195.476" y2="79.873"/>
		</g>
		<g>
			<ellipse transform="matrix(0.9968 -0.0794 0.0794 0.9968 -5.5751 13.9169)" cx="172.136" cy="77.033" rx="1.959" ry="1.959"/>
			<ellipse transform="matrix(0.9968 -0.0794 0.0794 0.9968 -6.1705 14.096)" cx="174.09" cy="84.606" rx="1.959" ry="1.959"/>
			<ellipse transform="matrix(0.9968 -0.0794 0.0794 0.9968 -6.6772 14.4604)" cx="178.416" cy="91.157" rx="1.959" ry="1.959"/>
			<ellipse transform="matrix(0.9968 -0.0794 0.0794 0.9968 -7.0302 14.9761)" cx="184.722" cy="95.851" rx="1.959" ry="1.959"/>
			<ellipse transform="matrix(0.9968 -0.0794 0.0794 0.9968 -7.1931 15.581)" cx="192.244" cy="98.202" rx="1.959" ry="1.959"/>
		</g>
		<g>
			<ellipse transform="matrix(0.9962 -0.0867 0.0867 0.9962 -5.3501 15.2352)" cx="172.801" cy="69.239" rx="1.959" ry="1.959"/>
			<ellipse transform="matrix(0.9962 -0.0867 0.0867 0.9962 -4.7162 15.4839)" cx="175.984" cy="62.062" rx="1.959" ry="1.959"/>
			<ellipse transform="matrix(0.9962 -0.0867 0.0867 0.9962 -4.2041 15.9342)" cx="181.426" cy="56.389" rx="1.959" ry="1.959"/>
			<ellipse transform="matrix(0.9962 -0.0867 0.0867 0.9962 -3.8689 16.5299)" cx="188.455" cy="52.826" rx="1.959" ry="1.959"/>
		</g>
	</g>
</g>
<g id="Download_x5F_75_x25_">
	<g>
		<path fill="none" stroke="#000000" stroke-width="4" stroke-linecap="round" stroke-linejoin="round" stroke-miterlimit="10" d="
			M316.007,52.014c12.469,0.384,22.46,10.614,22.46,23.176c0,12.806-10.381,23.188-23.188,23.188
			c-11.303,0-20.717-8.087-22.771-18.79c-0.154-0.804-0.262-1.566-0.331-2.397"/>
		<g>
			<path fill="none" stroke="#000000" stroke-width="4" stroke-linecap="round" stroke-linejoin="round" stroke-miterlimit="10" d="
				M305.435,70.865c3.537,3.537,5.864,5.864,8.442,8.442c0.781,0.781,2.044,0.777,2.825-0.004l8.814-8.814"/>
			
				<line fill="none" stroke="#000000" stroke-width="4" stroke-linecap="round" stroke-linejoin="round" stroke-miterlimit="10" x1="315.476" y1="52.002" x2="315.476" y2="79.873"/>
		</g>
		<g>
			<ellipse transform="matrix(0.9962 -0.0867 0.0867 0.9962 -4.8986 25.6342)" cx="292.801" cy="69.239" rx="1.959" ry="1.959"/>
			<ellipse transform="matrix(0.9962 -0.0867 0.0867 0.9962 -4.2647 25.883)" cx="295.984" cy="62.062" rx="1.959" ry="1.959"/>
			<ellipse transform="matrix(0.9962 -0.0867 0.0867 0.9962 -3.7526 26.3332)" cx="301.426" cy="56.389" rx="1.959" ry="1.959"/>
			<ellipse transform="matrix(0.9962 -0.0867 0.0867 0.9962 -3.4174 26.9289)" cx="308.454" cy="52.826" rx="1.959" ry="1.959"/>
		</g>
	</g>
</g>
<g id="Download_x5F_100_x25_">
	<g>
		
			<circle fill="none" stroke="#000000" stroke-width="4" stroke-linecap="round" stroke-linejoin="round" stroke-miterlimit="10" cx="435.279" cy="75.19" r="23.188"/>
		<g>
			<path fill="none" stroke="#000000" stroke-width="4" stroke-linecap="round" stroke-linejoin="round" stroke-miterlimit="10" d="
				M425.435,70.865c3.537,3.537,5.864,5.864,8.442,8.442c0.781,0.781,2.044,0.777,2.825-0.004l8.814-8.814"/>
			
				<line fill="none" stroke="#000000" stroke-width="4" stroke-linecap="round" stroke-linejoin="round" stroke-miterlimit="10" x1="435.476" y1="52.002" x2="435.476" y2="79.873"/>
		</g>
	</g>
</g>
<g id="Upload">
	<g>
		
			<circle fill="none" stroke="#000000" stroke-width="4" stroke-linecap="round" stroke-linejoin="round" stroke-miterlimit="10" cx="555.279" cy="75.19" r="23.188"/>
		<g>
			<path fill="none" stroke="#000000" stroke-width="4" stroke-linecap="round" stroke-linejoin="round" stroke-miterlimit="10" d="
				M565.123,79.515c-3.537-3.537-5.864-5.864-8.442-8.442c-0.781-0.781-2.044-0.777-2.825,0.004l-8.814,8.814"/>
			
				<line fill="none" stroke="#000000" stroke-width="4" stroke-linecap="round" stroke-linejoin="round" stroke-miterlimit="10" x1="555.083" y1="98.378" x2="555.083" y2="70.507"/>
		</g>
	</g>
</g>
<g id="Next">
	<g>
		
			<circle fill="none" stroke="#000000" stroke-width="4" stroke-linecap="round" stroke-linejoin="round" stroke-miterlimit="10" cx="675.279" cy="75.19" r="23.188"/>
		<g>
			<path fill="none" stroke="#000000" stroke-width="4" stroke-linecap="round" stroke-linejoin="round" stroke-miterlimit="10" d="
				M670.954,85.034c3.537-3.537,5.864-5.864,8.442-8.442c0.781-0.781,0.777-2.044-0.004-2.825l-8.814-8.814"/>
			
				<line fill="none" stroke="#000000" stroke-width="4" stroke-linecap="round" stroke-linejoin="round" stroke-miterlimit="10" x1="652.092" y1="74.994" x2="679.962" y2="74.994"/>
		</g>
	</g>
</g>
<g id="Last">
	<g>
		
			<circle fill="none" stroke="#000000" stroke-width="4" stroke-linecap="round" stroke-linejoin="round" stroke-miterlimit="10" cx="795.279" cy="75.19" r="23.188"/>
		<g>
			<path fill="none" stroke="#000000" stroke-width="4" stroke-linecap="round" stroke-linejoin="round" stroke-miterlimit="10" d="
				M799.605,65.346c-3.537,3.537-5.864,5.864-8.442,8.442c-0.781,0.781-0.777,2.044,0.004,2.825l8.814,8.814"/>
			
				<line fill="none" stroke="#000000" stroke-width="4" stroke-linecap="round" stroke-linejoin="round" stroke-miterlimit="10" x1="818.467" y1="75.386" x2="790.597" y2="75.386"/>
		</g>
	</g>
</g>
<g id="OK">
	<g>
		
			<circle fill="none" stroke="#000000" stroke-width="4" stroke-linecap="round" stroke-linejoin="round" stroke-miterlimit="10" cx="915.279" cy="75.19" r="23.188"/>
		<g>
			<path fill="none" stroke="#000000" stroke-width="4" stroke-linecap="round" stroke-linejoin="round" stroke-miterlimit="10" d="
				M907.231,72.66c3.537,3.537,4.068,4.068,6.646,6.646c0.781,0.781,2.044,0.777,2.825-0.004l17.463-17.462"/>
		</g>
	</g>
</g>
<g id="Fail">
	<g>
		
			<circle fill="none" stroke="#000000" stroke-width="4" stroke-linecap="round" stroke-linejoin="round" stroke-miterlimit="10" cx="1035.215" cy="75.19" r="23.188"/>
		
			<line fill="none" stroke="#000000" stroke-width="4" stroke-linecap="round" stroke-linejoin="round" stroke-miterlimit="10" x1="1018.962" y1="58.937" x2="1043.991" y2="83.967"/>
		
			<line fill="none" stroke="#000000" stroke-width="4" stroke-linecap="round" stroke-linejoin="round" stroke-miterlimit="10" x1="1026.438" y1="83.967" x2="1043.991" y2="66.413"/>
	</g>
</g>
<g id="Add">
	<g>
		
			<ellipse transform="matrix(0.7071 -0.7071 0.7071 0.7071 -115.9903 110.3547)" fill="none" stroke="#000000" stroke-width="4" stroke-linecap="round" stroke-linejoin="round" stroke-miterlimit="10" cx="75.215" cy="195.19" rx="23.188" ry="23.188"/>
		
			<line fill="none" stroke="#000000" stroke-width="4" stroke-linecap="round" stroke-linejoin="round" stroke-miterlimit="10" x1="75.215" y1="172.205" x2="75.215" y2="207.602"/>
		
			<line fill="none" stroke="#000000" stroke-width="4" stroke-linecap="round" stroke-linejoin="round" stroke-miterlimit="10" x1="62.803" y1="195.19" x2="87.627" y2="195.19"/>
	</g>
</g>
<g id="Spinner_x5F_0_x25_">
	<g>
		<g>
			<circle cx="218.467" cy="195.19" r="1.959"/>
			<circle cx="217.121" cy="202.894" r="1.959"/>
			<circle cx="213.329" cy="209.769" r="1.959"/>
			<circle cx="207.416" cy="214.949" r="1.959"/>
			<circle cx="200.105" cy="217.889" r="1.959"/>
		</g>
		<ellipse transform="matrix(0.9968 -0.0794 0.0794 0.9968 -15.1072 14.2961)" cx="172.136" cy="197.033" rx="1.959" ry="1.959"/>
		<ellipse transform="matrix(0.9968 -0.0794 0.0794 0.9968 -15.7026 14.4752)" cx="174.09" cy="204.606" rx="1.959" ry="1.959"/>
		<ellipse transform="matrix(0.9968 -0.0794 0.0794 0.9968 -16.2093 14.8396)" cx="178.416" cy="211.157" rx="1.959" ry="1.959"/>
		<ellipse transform="matrix(0.9968 -0.0794 0.0794 0.9968 -16.5623 15.3553)" cx="184.722" cy="215.851" rx="1.959" ry="1.959"/>
		<ellipse transform="matrix(0.9968 -0.0794 0.0794 0.9968 -16.7252 15.9602)" cx="192.244" cy="218.202" rx="1.959" ry="1.959"/>
		<g>
			<ellipse transform="matrix(0.9962 -0.0867 0.0867 0.9962 -15.7491 15.6866)" cx="172.801" cy="189.239" rx="1.959" ry="1.959"/>
			<ellipse transform="matrix(0.9962 -0.0867 0.0867 0.9962 -15.1152 15.9354)" cx="175.984" cy="182.062" rx="1.959" ry="1.959"/>
			<ellipse transform="matrix(0.9962 -0.0867 0.0867 0.9962 -14.6031 16.3856)" cx="181.426" cy="176.389" rx="1.959" ry="1.959"/>
			<ellipse transform="matrix(0.9962 -0.0867 0.0867 0.9962 -14.2679 16.9813)" cx="188.455" cy="172.826" rx="1.959" ry="1.959"/>
		</g>
		<g>
			<ellipse transform="matrix(1 -0.0098 0.0098 1 -1.9112 2.1615)" cx="218.581" cy="195.19" rx="1.959" ry="1.959"/>
			<g>
				<ellipse transform="matrix(1 -0.0026 0.0026 1 -0.4861 0.5646)" cx="217.223" cy="187.486" rx="1.959" ry="1.959"/>
				<ellipse transform="matrix(1 -0.0026 0.0026 1 -0.4682 0.5547)" cx="213.413" cy="180.622" rx="1.959" ry="1.959"/>
				<ellipse transform="matrix(1 -0.0026 0.0026 1 -0.4549 0.5393)" cx="207.487" cy="175.457" rx="1.959" ry="1.959"/>
				<ellipse transform="matrix(1 -0.0026 0.0026 1 -0.4473 0.5203)" cx="200.168" cy="172.536" rx="1.959" ry="1.959"/>
			</g>
		</g>
	</g>
</g>
<g id="Spinner_x5F_25_x25_">
	<g>
		<path fill="none" stroke="#000000" stroke-width="4" stroke-linejoin="round" stroke-miterlimit="10" d="M315.279,172.002
			c12.806,0,23.188,10.381,23.188,23.188"/>
		<g>
			<circle cx="338.467" cy="195.19" r="1.959"/>
			<circle cx="337.121" cy="202.894" r="1.959"/>
			<circle cx="333.329" cy="209.769" r="1.959"/>
			<circle cx="327.416" cy="214.949" r="1.959"/>
			<circle cx="320.105" cy="217.889" r="1.959"/>
		</g>
		<g>
			<ellipse transform="matrix(0.9968 -0.0794 0.0794 0.9968 -14.728 23.8282)" cx="292.136" cy="197.033" rx="1.959" ry="1.959"/>
			<ellipse transform="matrix(0.9968 -0.0794 0.0794 0.9968 -15.3234 24.0073)" cx="294.09" cy="204.606" rx="1.959" ry="1.959"/>
			<ellipse transform="matrix(0.9968 -0.0794 0.0794 0.9968 -15.8301 24.3716)" cx="298.416" cy="211.157" rx="1.959" ry="1.959"/>
			<ellipse transform="matrix(0.9968 -0.0794 0.0794 0.9968 -16.1831 24.8874)" cx="304.722" cy="215.851" rx="1.959" ry="1.959"/>
			<ellipse transform="matrix(0.9968 -0.0794 0.0794 0.9968 -16.346 25.4923)" cx="312.244" cy="218.202" rx="1.959" ry="1.959"/>
		</g>
		<g>
			<ellipse transform="matrix(0.9962 -0.0867 0.0867 0.9962 -15.2977 26.0856)" cx="292.801" cy="189.239" rx="1.959" ry="1.959"/>
			<ellipse transform="matrix(0.9962 -0.0867 0.0867 0.9962 -14.6637 26.3344)" cx="295.984" cy="182.062" rx="1.959" ry="1.959"/>
			<ellipse transform="matrix(0.9962 -0.0867 0.0867 0.9962 -14.1517 26.7846)" cx="301.426" cy="176.389" rx="1.959" ry="1.959"/>
			<ellipse transform="matrix(0.9962 -0.0867 0.0867 0.9962 -13.8164 27.3803)" cx="308.454" cy="172.826" rx="1.959" ry="1.959"/>
		</g>
	</g>
</g>
<g id="Spinner_x5F_50_x25_">
	<g>
		<path fill="none" stroke="#000000" stroke-width="4" stroke-linejoin="round" stroke-miterlimit="10" d="M435.279,172.002
			c12.806,0,23.188,10.381,23.188,23.188s-10.381,23.188-23.188,23.188c0,0-1.947-0.008-3.035-0.176"/>
		<g>
			<ellipse transform="matrix(0.9968 -0.0794 0.0794 0.9968 -14.3488 33.3603)" cx="412.136" cy="197.033" rx="1.959" ry="1.959"/>
			<ellipse transform="matrix(0.9968 -0.0794 0.0794 0.9968 -14.9442 33.5394)" cx="414.09" cy="204.606" rx="1.959" ry="1.959"/>
			<ellipse transform="matrix(0.9968 -0.0794 0.0794 0.9968 -15.4509 33.9037)" cx="418.416" cy="211.157" rx="1.959" ry="1.959"/>
			<ellipse transform="matrix(0.9968 -0.0794 0.0794 0.9968 -15.8039 34.4195)" cx="424.722" cy="215.851" rx="1.959" ry="1.959"/>
			<ellipse transform="matrix(0.9968 -0.0794 0.0794 0.9968 -15.9668 35.0244)" cx="432.244" cy="218.202" rx="1.959" ry="1.959"/>
		</g>
		<g>
			<ellipse transform="matrix(0.9962 -0.0867 0.0867 0.9962 -14.8462 36.4846)" cx="412.801" cy="189.239" rx="1.959" ry="1.959"/>
			<ellipse transform="matrix(0.9962 -0.0867 0.0867 0.9962 -14.2123 36.7334)" cx="415.984" cy="182.062" rx="1.959" ry="1.959"/>
			<ellipse transform="matrix(0.9962 -0.0867 0.0867 0.9962 -13.7002 37.1836)" cx="421.426" cy="176.389" rx="1.959" ry="1.959"/>
			<ellipse transform="matrix(0.9962 -0.0867 0.0867 0.9962 -13.365 37.7794)" cx="428.454" cy="172.826" rx="1.959" ry="1.959"/>
		</g>
	</g>
</g>
<g id="Spinner_x5F_75_x25_">
	<g>
		<path fill="none" stroke="#000000" stroke-width="4" stroke-linecap="round" stroke-linejoin="round" stroke-miterlimit="10" d="
			M556.007,172.014c12.469,0.384,22.46,10.614,22.46,23.176c0,12.806-10.381,23.188-23.188,23.188
			c-11.303,0-20.717-8.087-22.771-18.79c-0.154-0.804-0.262-1.566-0.331-2.397"/>
		<g>
			<ellipse transform="matrix(0.9962 -0.0867 0.0867 0.9962 -14.3948 46.8836)" cx="532.801" cy="189.239" rx="1.959" ry="1.959"/>
			<ellipse transform="matrix(0.9962 -0.0867 0.0867 0.9962 -13.7609 47.1324)" cx="535.984" cy="182.062" rx="1.959" ry="1.959"/>
			<ellipse transform="matrix(0.9962 -0.0867 0.0867 0.9962 -13.2488 47.5827)" cx="541.426" cy="176.389" rx="1.959" ry="1.959"/>
			<ellipse transform="matrix(0.9962 -0.0867 0.0867 0.9962 -12.9136 48.1784)" cx="548.455" cy="172.826" rx="1.959" ry="1.959"/>
		</g>
	</g>
</g>
<g id="Brightest_x5F_25_x25_">
	<g>
		
			<circle fill="none" stroke="#000000" stroke-width="4" stroke-linecap="round" stroke-linejoin="round" stroke-miterlimit="10" cx="675.279" cy="195.19" r="23.188"/>
		<g>
			<defs>
				<path id="SVGID_1_" d="M675.279,172.002c8.582,0,16.076,4.663,20.085,11.593l-40.17,0.001
					C659.203,176.665,666.697,172.002,675.279,172.002z"/>
			</defs>
			<clipPath id="SVGID_2_">
				<use xlink:href="#SVGID_1_"  overflow="visible"/>
			</clipPath>
			<g clip-path="url(#SVGID_2_)">
				
					<line fill="none" stroke="#000000" stroke-width="4" stroke-linecap="round" stroke-linejoin="round" stroke-miterlimit="10" x1="702.012" y1="167.953" x2="688.769" y2="181.196"/>
				
					<line fill="none" stroke="#000000" stroke-width="4" stroke-linecap="round" stroke-linejoin="round" stroke-miterlimit="10" x1="692.012" y1="167.953" x2="678.769" y2="181.196"/>
				
					<line fill="none" stroke="#000000" stroke-width="4" stroke-linecap="round" stroke-linejoin="round" stroke-miterlimit="10" x1="682.012" y1="167.953" x2="668.769" y2="181.196"/>
				
					<line fill="none" stroke="#000000" stroke-width="4" stroke-linecap="round" stroke-linejoin="round" stroke-miterlimit="10" x1="672.012" y1="167.953" x2="658.683" y2="181.282"/>
				
					<line fill="none" stroke="#000000" stroke-width="4" stroke-linecap="round" stroke-linejoin="round" stroke-miterlimit="10" x1="712.012" y1="167.953" x2="659.092" y2="220.873"/>
				
					<line fill="none" stroke="#000000" stroke-width="4" stroke-linecap="round" stroke-linejoin="round" stroke-miterlimit="10" x1="722.012" y1="167.953" x2="669.092" y2="220.873"/>
				
					<line fill="none" stroke="#000000" stroke-width="4" stroke-linecap="round" stroke-linejoin="round" stroke-miterlimit="10" x1="732.012" y1="167.953" x2="679.092" y2="220.873"/>
			</g>
		</g>
	</g>
</g>
<g id="Brightest_x5F_50_x25_">
	<g>
		
			<circle fill="none" stroke="#000000" stroke-width="4" stroke-linecap="round" stroke-linejoin="round" stroke-miterlimit="10" cx="795.279" cy="195.19" r="23.188"/>
		<g>
			<defs>
				<path id="SVGID_3_" d="M795.279,172.002c12.806,0,23.188,11.381,23.188,24.188h-46.375
					C772.092,183.384,782.473,172.002,795.279,172.002z"/>
			</defs>
			<clipPath id="SVGID_4_">
				<use xlink:href="#SVGID_3_"  overflow="visible"/>
			</clipPath>
			<g clip-path="url(#SVGID_4_)">
				
					<line fill="none" stroke="#000000" stroke-width="4" stroke-linecap="round" stroke-linejoin="round" stroke-miterlimit="10" x1="822.012" y1="167.953" x2="796.768" y2="193.197"/>
				
					<line fill="none" stroke="#000000" stroke-width="4" stroke-linecap="round" stroke-linejoin="round" stroke-miterlimit="10" x1="812.012" y1="167.953" x2="786.768" y2="193.197"/>
				
					<line fill="none" stroke="#000000" stroke-width="4" stroke-linecap="round" stroke-linejoin="round" stroke-miterlimit="10" x1="802.012" y1="167.953" x2="776.768" y2="193.197"/>
				
					<line fill="none" stroke="#000000" stroke-width="4" stroke-linecap="round" stroke-linejoin="round" stroke-miterlimit="10" x1="792.012" y1="167.953" x2="739.092" y2="220.873"/>
				
					<line fill="none" stroke="#000000" stroke-width="4" stroke-linecap="round" stroke-linejoin="round" stroke-miterlimit="10" x1="832.012" y1="167.953" x2="806.723" y2="193.243"/>
				
					<line fill="none" stroke="#000000" stroke-width="4" stroke-linecap="round" stroke-linejoin="round" stroke-miterlimit="10" x1="842.012" y1="167.953" x2="816.768" y2="193.197"/>
				
					<line fill="none" stroke="#000000" stroke-width="4" stroke-linecap="round" stroke-linejoin="round" stroke-miterlimit="10" x1="852.012" y1="167.953" x2="799.092" y2="220.873"/>
			</g>
		</g>
	</g>
</g>
<g id="Brightest_x5F_75_x25_">
	<g>
		
			<circle fill="none" stroke="#000000" stroke-width="4" stroke-linecap="round" stroke-linejoin="round" stroke-miterlimit="10" cx="915.279" cy="195.19" r="23.188"/>
		<g>
			<defs>
				<circle id="SVGID_5_" cx="915.279" cy="195.19" r="23.188"/>
			</defs>
			<clipPath id="SVGID_6_">
				<use xlink:href="#SVGID_5_"  overflow="visible"/>
			</clipPath>
			<g clip-path="url(#SVGID_6_)">
				
					<line fill="none" stroke="#000000" stroke-width="4" stroke-linecap="round" stroke-linejoin="round" stroke-miterlimit="10" x1="942.012" y1="167.953" x2="903.181" y2="206.784"/>
				
					<line fill="none" stroke="#000000" stroke-width="4" stroke-linecap="round" stroke-linejoin="round" stroke-miterlimit="10" x1="932.012" y1="167.953" x2="893.181" y2="206.784"/>
				
					<line fill="none" stroke="#000000" stroke-width="4" stroke-linecap="round" stroke-linejoin="round" stroke-miterlimit="10" x1="922.012" y1="167.953" x2="883.181" y2="206.784"/>
				
					<line fill="none" stroke="#000000" stroke-width="4" stroke-linecap="round" stroke-linejoin="round" stroke-miterlimit="10" x1="912.012" y1="167.953" x2="873.181" y2="206.784"/>
				
					<line fill="none" stroke="#000000" stroke-width="4" stroke-linecap="round" stroke-linejoin="round" stroke-miterlimit="10" x1="952.012" y1="167.953" x2="913.181" y2="206.784"/>
				
					<line fill="none" stroke="#000000" stroke-width="4" stroke-linecap="round" stroke-linejoin="round" stroke-miterlimit="10" x1="962.012" y1="167.953" x2="923.181" y2="206.784"/>
				
					<line fill="none" stroke="#000000" stroke-width="4" stroke-linecap="round" stroke-linejoin="round" stroke-miterlimit="10" x1="972.012" y1="167.953" x2="933.181" y2="206.784"/>
			</g>
		</g>
	</g>
</g>
<g id="Brightest_x5F_100_x25_">
	<g>
		
			<circle fill="none" stroke="#000000" stroke-width="4" stroke-linecap="round" stroke-linejoin="round" stroke-miterlimit="10" cx="1035.279" cy="195.19" r="23.188"/>
		<g>
			<defs>
				<circle id="SVGID_7_" cx="1035.279" cy="195.19" r="23.188"/>
			</defs>
			<clipPath id="SVGID_8_">
				<use xlink:href="#SVGID_7_"  overflow="visible"/>
			</clipPath>
			<g clip-path="url(#SVGID_8_)">
				
					<line fill="none" stroke="#000000" stroke-width="4" stroke-linecap="round" stroke-linejoin="round" stroke-miterlimit="10" x1="1062.012" y1="167.953" x2="1009.092" y2="220.873"/>
				
					<line fill="none" stroke="#000000" stroke-width="4" stroke-linecap="round" stroke-linejoin="round" stroke-miterlimit="10" x1="1052.012" y1="167.953" x2="999.092" y2="220.873"/>
				
					<line fill="none" stroke="#000000" stroke-width="4" stroke-linecap="round" stroke-linejoin="round" stroke-miterlimit="10" x1="1042.012" y1="167.953" x2="989.092" y2="220.873"/>
				
					<line fill="none" stroke="#000000" stroke-width="4" stroke-linecap="round" stroke-linejoin="round" stroke-miterlimit="10" x1="1032.012" y1="167.953" x2="979.092" y2="220.873"/>
				
					<line fill="none" stroke="#000000" stroke-width="4" stroke-linecap="round" stroke-linejoin="round" stroke-miterlimit="10" x1="1072.012" y1="167.953" x2="1019.092" y2="220.873"/>
				
					<line fill="none" stroke="#000000" stroke-width="4" stroke-linecap="round" stroke-linejoin="round" stroke-miterlimit="10" x1="1082.012" y1="167.953" x2="1029.092" y2="220.873"/>
				
					<line fill="none" stroke="#000000" stroke-width="4" stroke-linecap="round" stroke-linejoin="round" stroke-miterlimit="10" x1="1092.012" y1="167.953" x2="1039.092" y2="220.873"/>
			</g>
		</g>
	</g>
</g>
<g id="Reload">
	<path fill="none" stroke="#000000" stroke-width="4" stroke-linecap="round" stroke-linejoin="round" stroke-miterlimit="10" d="
		M89.733,297.132c5.27,4.25,8.64,10.76,8.64,18.058c0,12.806-10.381,23.188-23.188,23.188c-3.061,0-5.983-0.593-8.658-1.671"/>
	<path fill="none" stroke="#000000" stroke-width="4" stroke-linecap="round" stroke-linejoin="round" stroke-miterlimit="10" d="
		M61.017,333.547c-5.486-4.241-9.019-10.886-9.019-18.357c0-12.806,10.381-23.188,23.188-23.188c3.202,0,6.252,0.649,9.026,1.822"/>
	<path fill="none" stroke="#000000" stroke-width="4" stroke-linecap="round" stroke-linejoin="round" stroke-miterlimit="10" d="
		M73.868,301.923c4.097-2.869,6.793-4.757,9.78-6.847c0.905-0.634,1.121-1.878,0.487-2.783l-7.149-10.211"/>
	<path fill="none" stroke="#000000" stroke-width="4" stroke-linecap="round" stroke-linejoin="round" stroke-miterlimit="10" d="
		M76.921,328.98c-4.097,2.869-6.793,4.757-9.78,6.848c-0.905,0.634-1.121,1.878-0.487,2.783l7.149,10.211"/>
</g>
<g id="Forbidden">
	
		<circle fill="none" stroke="#000000" stroke-width="4" stroke-linecap="round" stroke-linejoin="round" stroke-miterlimit="10" cx="195.279" cy="315.19" r="23.188"/>
	
		<line fill="none" stroke="#000000" stroke-width="4" stroke-linecap="round" stroke-linejoin="round" stroke-miterlimit="10" x1="211.581" y1="298.701" x2="184.103" y2="326.178"/>
</g>
<g id="Clock">
	
		<circle fill="none" stroke="#000000" stroke-width="4" stroke-linecap="round" stroke-linejoin="round" stroke-miterlimit="10" cx="315.279" cy="315.19" r="23.188"/>
	<g>
		<path fill="none" stroke="#000000" stroke-width="4" stroke-linecap="round" stroke-linejoin="round" stroke-miterlimit="10" d="
			M308.669,309.84c3.537,3.537,2.63,2.63,5.208,5.208c0.781,0.781,2.044,0.777,2.825-0.004l9.792-9.792"/>
	</g>
	<path d="M292.225,315.688c-0.359-1.489,0.949-2.796,2.438-2.438c0.7,0.169,1.274,0.743,1.443,1.442
		c0.359,1.489-0.949,2.796-2.438,2.438C292.968,316.961,292.394,316.387,292.225,315.688z"/>
	<path d="M334.576,315.688c-0.359-1.489,0.949-2.796,2.438-2.438c0.7,0.169,1.274,0.743,1.443,1.442
		c0.359,1.489-0.949,2.796-2.438,2.438C335.319,316.961,334.745,316.387,334.576,315.688z"/>
	<path d="M295.52,327.122c-0.988-1.113-0.501-2.847,0.943-3.273c0.715-0.211,1.527,0.026,2.022,0.584
		c0.988,1.113,0.501,2.847-0.943,3.273C296.826,327.917,296.014,327.68,295.52,327.122z"/>
	<path d="M332.197,305.947c-0.988-1.113-0.501-2.847,0.943-3.273c0.715-0.211,1.527,0.026,2.022,0.584
		c0.988,1.113,0.501,2.847-0.943,3.273C333.503,306.742,332.692,306.505,332.197,305.947z"/>
	<path d="M304.214,335.457c-1.444-0.426-1.931-2.16-0.943-3.273c0.495-0.558,1.307-0.795,2.022-0.584
		c1.444,0.426,1.931,2.16,0.943,3.273C305.741,335.431,304.929,335.668,304.214,335.457z"/>
	<path d="M325.39,298.78c-1.444-0.426-1.931-2.16-0.943-3.273c0.495-0.558,1.307-0.795,2.022-0.584
		c1.444,0.426,1.931,2.16,0.943,3.273C326.916,298.754,326.105,298.991,325.39,298.78z"/>
	<path d="M315.838,338.306c-1.489,0.359-2.796-0.949-2.438-2.438c0.169-0.7,0.743-1.274,1.442-1.443
		c1.489-0.359,2.796,0.949,2.438,2.438C317.112,337.563,316.538,338.137,315.838,338.306z"/>
	<path d="M315.838,295.954c-1.489,0.359-2.796-0.949-2.438-2.438c0.169-0.7,0.743-1.274,1.442-1.442
		c1.489-0.359,2.796,0.949,2.438,2.438C317.112,295.212,316.538,295.786,315.838,295.954z"/>
	<path d="M335.583,326.31c-0.421,1.426-2.133,1.907-3.232,0.932c-0.551-0.489-0.785-1.29-0.577-1.996
		c0.421-1.426,2.133-1.907,3.232-0.932C335.558,324.803,335.792,325.604,335.583,326.31z"/>
	<path d="M298.906,305.134c-0.421,1.426-2.133,1.907-3.232,0.932c-0.551-0.489-0.785-1.29-0.577-1.996
		c0.421-1.426,2.133-1.907,3.232-0.932C298.88,303.627,299.115,304.428,298.906,305.134z"/>
	<path d="M327.256,334.992c-1.099,0.975-2.811,0.494-3.232-0.932c-0.208-0.706,0.026-1.507,0.576-1.996
		c1.099-0.975,2.811-0.494,3.232,0.932C328.041,333.702,327.807,334.504,327.256,334.992z"/>
	<path d="M306.081,298.315c-1.099,0.975-2.811,0.494-3.232-0.932c-0.208-0.706,0.026-1.507,0.576-1.996
		c1.099-0.975,2.811-0.494,3.232,0.932C306.866,297.025,306.631,297.827,306.081,298.315z"/>
</g>
<g id="Compass">
	
		<circle fill="none" stroke="#000000" stroke-width="4" stroke-linecap="round" stroke-linejoin="round" stroke-miterlimit="10" cx="435.279" cy="315.19" r="23.188"/>
	<path d="M412.225,315.688c-0.359-1.489,0.949-2.796,2.438-2.438c0.7,0.169,1.274,0.743,1.443,1.442
		c0.359,1.489-0.949,2.796-2.438,2.438C412.968,316.961,412.394,316.387,412.225,315.688z"/>
	<path d="M454.576,315.688c-0.359-1.489,0.949-2.796,2.438-2.438c0.7,0.169,1.274,0.743,1.443,1.442
		c0.359,1.489-0.949,2.796-2.438,2.438C455.319,316.961,454.745,316.387,454.576,315.688z"/>
	<path d="M435.838,338.306c-1.489,0.359-2.796-0.949-2.438-2.438c0.169-0.7,0.743-1.274,1.442-1.443
		c1.489-0.359,2.796,0.949,2.438,2.438C437.112,337.563,436.538,338.137,435.838,338.306z"/>
	<path d="M435.838,295.954c-1.489,0.359-2.796-0.949-2.438-2.438c0.169-0.7,0.743-1.274,1.442-1.442
		c1.489-0.359,2.796,0.949,2.438,2.438C437.112,295.212,436.538,295.786,435.838,295.954z"/>
	<path fill="none" stroke="#000000" stroke-width="4" stroke-miterlimit="10" d="M430.738,315.19l4.448-15.155
		c0.032-0.088,0.156-0.088,0.188,0l4.448,15.155l-4.448,15.155c-0.032,0.087-0.156,0.087-0.188,0L430.738,315.19z"/>
	<path d="M430.738,315.19l4.448-15.155c0.032-0.088,0.156-0.088,0.188,0l4.448,15.155H430.738z"/>
</g>
<g id="World">
	
		<circle fill="none" stroke="#000000" stroke-width="4" stroke-linecap="round" stroke-linejoin="round" stroke-miterlimit="10" cx="555.279" cy="315.19" r="23.188"/>
	
		<ellipse fill="none" stroke="#000000" stroke-width="4" stroke-linecap="round" stroke-linejoin="round" stroke-miterlimit="10" cx="555.279" cy="315.19" rx="23.229" ry="12.25"/>
	
		<ellipse fill="none" stroke="#000000" stroke-width="4" stroke-linecap="round" stroke-linejoin="round" stroke-miterlimit="10" cx="555.279" cy="315.19" rx="12.438" ry="23.229"/>
	
		<line fill="none" stroke="#000000" stroke-width="4" stroke-linecap="round" stroke-linejoin="round" stroke-miterlimit="10" x1="532.092" y1="315.19" x2="578.092" y2="315.19"/>
	
		<line fill="none" stroke="#000000" stroke-width="4" stroke-linecap="round" stroke-linejoin="round" stroke-miterlimit="10" x1="555.092" y1="292.19" x2="555.092" y2="338.19"/>
</g>
<g id="Speed">
	
		<circle fill="none" stroke="#000000" stroke-width="4" stroke-linecap="round" stroke-linejoin="round" stroke-miterlimit="10" cx="675.279" cy="315.19" r="23.188"/>
	<path d="M675.838,300.797c-1.489,0.359-2.797-0.949-2.438-2.438c0.169-0.7,0.743-1.274,1.443-1.443
		c1.489-0.359,2.797,0.949,2.438,2.438C677.112,300.054,676.538,300.628,675.838,300.797z"/>
	<path d="M680.883,301.861c-1.496-0.169-2.277-1.792-1.497-3.059c0.39-0.635,1.148-1.01,1.889-0.926
		c1.496,0.169,2.277,1.792,1.497,3.059C682.382,301.57,681.624,301.945,680.883,301.861z"/>
	<path d="M685.498,304.69c-1.672-0.608-1.863-2.791-0.322-3.679c0.471-0.272,1.063-0.323,1.574-0.138
		c1.672,0.608,1.863,2.791,0.322,3.679C686.602,304.824,686.01,304.876,685.498,304.69z"/>
	<path d="M688.387,308.59c-0.987-1.113-0.501-2.847,0.943-3.273c0.715-0.211,1.527,0.026,2.022,0.584
		c0.988,1.113,0.501,2.847-0.943,3.273C689.694,309.385,688.882,309.148,688.387,308.59z"/>
	<path d="M659.329,325.367c-0.988-1.113-0.501-2.847,0.943-3.273c0.715-0.211,1.527,0.026,2.022,0.584
		c0.988,1.113,0.501,2.847-0.943,3.273C660.636,326.161,659.824,325.924,659.329,325.367z"/>
	<path d="M670.666,301.556c-1.263,0.776-2.88-0.001-3.049-1.492c-0.083-0.738,0.29-1.494,0.923-1.883
		c1.263-0.776,2.88,0.001,3.049,1.492C671.672,300.412,671.299,301.167,670.666,301.556z"/>
	<path d="M666.305,303.718c-0.878,1.522-3.033,1.334-3.633-0.318c-0.183-0.505-0.132-1.089,0.136-1.554
		c0.877-1.522,3.033-1.334,3.633,0.318C666.625,302.668,666.574,303.253,666.305,303.718z"/>
	<path d="M662.721,307.779c-0.422,1.43-2.139,1.912-3.241,0.934c-0.552-0.49-0.787-1.294-0.578-2.002
		c0.422-1.43,2.139-1.912,3.241-0.934C662.695,306.267,662.93,307.071,662.721,307.779z"/>
	<path d="M691.779,324.556c-0.422,1.43-2.139,1.912-3.241,0.934c-0.552-0.49-0.787-1.294-0.578-2.002
		c0.422-1.43,2.139-1.912,3.241-0.934C691.753,323.044,691.988,323.848,691.779,324.556z"/>
	<path d="M660.815,312.567c0.093,1.502-1.369,2.552-2.752,2.005c-0.693-0.274-1.193-0.955-1.24-1.699
		c-0.093-1.502,1.369-2.552,2.752-2.005C660.268,311.142,660.769,311.824,660.815,312.567z"/>
	<path d="M693.858,318.394c0.093,1.502-1.369,2.552-2.752,2.005c-0.693-0.274-1.193-0.955-1.24-1.699
		c-0.093-1.502,1.369-2.552,2.752-2.005C693.312,316.969,693.812,317.65,693.858,318.394z"/>
	<path d="M660.672,317.79c0.547,1.384-0.503,2.846-2.006,2.753c-0.744-0.046-1.426-0.547-1.7-1.24
		c-0.547-1.384,0.503-2.846,2.006-2.753C659.716,316.596,660.398,317.097,660.672,317.79z"/>
	<path d="M693.716,311.964c0.547,1.384-0.503,2.846-2.006,2.753c-0.744-0.046-1.426-0.547-1.7-1.24
		c-0.547-1.384,0.503-2.846,2.006-2.753C692.76,310.77,693.441,311.271,693.716,311.964z"/>
	<g>
		
			<line fill="none" stroke="#000000" stroke-width="4" stroke-linecap="round" stroke-miterlimit="10" x1="674.822" y1="324.382" x2="685.391" y2="313.813"/>
		<path fill="#FFFFFF" stroke="#000000" stroke-width="4" stroke-miterlimit="10" d="M671.244,325.988
			c-1.556-4.644,3.816-7.745,7.06-4.076c0.176,0.199,0.315,0.44,0.4,0.692c1.556,4.644-3.816,7.745-7.06,4.076
			C671.468,326.481,671.328,326.24,671.244,325.988z"/>
	</g>
</g>
<g id="Microphone">
	<path fill="none" stroke="#000000" stroke-width="4" stroke-linecap="round" stroke-linejoin="round" stroke-miterlimit="10" d="
		M772.092,315.19c0-6.403,2.595-12.2,6.791-16.396c4.196-4.196,9.993-6.792,16.396-6.792c6.401,0,12.197,2.594,16.393,6.788
		c4.198,4.196,6.795,9.995,6.795,16.399c0,12.806-10.381,23.188-23.188,23.188C782.473,338.378,772.092,327.996,772.092,315.19z"/>
	<path fill="none" stroke="#000000" stroke-width="4" stroke-linecap="round" stroke-linejoin="round" stroke-miterlimit="10" d="
		M795.279,301.659L795.279,301.659c3.685,0,6.673,2.988,6.673,6.673v13.716c0,3.685-2.988,6.673-6.673,6.673h0
		c-3.685,0-6.673-2.988-6.673-6.673v-13.716C788.606,304.647,791.594,301.659,795.279,301.659z"/>
	
		<line fill="none" stroke="#000000" stroke-width="4" stroke-linecap="round" stroke-linejoin="round" stroke-miterlimit="10" x1="788.606" y1="318.19" x2="801.952" y2="318.19"/>
	
		<line fill="none" stroke="#000000" stroke-width="4" stroke-linecap="round" stroke-linejoin="round" stroke-miterlimit="10" x1="795.279" y1="328.721" x2="795.279" y2="338.378"/>
	<g>
		<defs>
			<path id="SVGID_9_" d="M795.279,301.659L795.279,301.659c3.685,0,6.673,2.988,6.673,6.673v13.716
				c0,3.685-2.988,6.673-6.673,6.673h0c-3.685,0-6.673-2.988-6.673-6.673v-13.716C788.606,304.647,791.594,301.659,795.279,301.659z
				"/>
		</defs>
		<clipPath id="SVGID_10_">
			<use xlink:href="#SVGID_9_"  overflow="visible"/>
		</clipPath>
	</g>
	<circle cx="795.279" cy="307.912" r="2"/>
</g>
<g id="Options">
	
		<circle fill="none" stroke="#000000" stroke-width="4" stroke-linecap="round" stroke-linejoin="round" stroke-miterlimit="10" cx="915.279" cy="315.19" r="23.188"/>
	<circle cx="915.279" cy="315.19" r="2"/>
	<circle cx="907.279" cy="315.19" r="2"/>
	<circle cx="923.279" cy="315.19" r="2"/>
</g>
<g id="Chronometer">
	<circle cx="1058.467" cy="296.002" r="2"/>
	
		<circle fill="none" stroke="#000000" stroke-width="4" stroke-linecap="round" stroke-linejoin="round" stroke-miterlimit="10" cx="1035.279" cy="315.19" r="23.188"/>
	<path fill="none" stroke="#000000" stroke-width="4" stroke-linecap="round" stroke-linejoin="round" stroke-miterlimit="10" d="
		M1026.542,286.482c2.765-0.84,5.698-1.292,8.737-1.292c3.018,0,5.931,0.446,8.678,1.274"/>
	
		<line fill="none" stroke="#000000" stroke-width="4" stroke-linecap="round" stroke-miterlimit="10" x1="1033.736" y1="315.64" x2="1043.635" y2="305.74"/>
</g>
<g id="Lock">
	
		<circle fill="none" stroke="#000000" stroke-width="4" stroke-linecap="round" stroke-linejoin="round" stroke-miterlimit="10" cx="75.279" cy="435.19" r="23.188"/>
	
		<circle fill="none" stroke="#000000" stroke-width="4" stroke-linecap="round" stroke-linejoin="round" stroke-miterlimit="10" cx="75.279" cy="435.19" r="7.123"/>
	<path d="M67.969,435.19c0-3.934,3.123-7.123,7.123-7.123v14.246C71.092,442.313,67.969,439.124,67.969,435.19z"/>
	<path fill="none" stroke="#000000" stroke-width="4" stroke-linecap="round" stroke-linejoin="round" stroke-miterlimit="10" d="
		M65.092,414.19v-6c0-5.897,4.603-10.782,10.5-10.782c5.897,0,10.5,4.676,10.5,10.573v6.209"/>
</g>
<g id="User">
	
		<circle fill="none" stroke="#000000" stroke-width="4" stroke-linecap="round" stroke-linejoin="round" stroke-miterlimit="10" cx="195.279" cy="435.19" r="23.188"/>
	
		<circle fill="none" stroke="#000000" stroke-width="4" stroke-linecap="round" stroke-linejoin="round" stroke-miterlimit="10" cx="195.279" cy="428.19" r="9.977"/>
	<g>
		<defs>
			<circle id="SVGID_11_" cx="195.279" cy="435.19" r="23.188"/>
		</defs>
		<clipPath id="SVGID_12_">
			<use xlink:href="#SVGID_11_"  overflow="visible"/>
		</clipPath>
		
			<circle clip-path="url(#SVGID_12_)" fill="none" stroke="#000000" stroke-width="4" stroke-linecap="round" stroke-linejoin="round" stroke-miterlimit="10" cx="195.279" cy="467.19" r="23.188"/>
	</g>
</g>
<g id="Position">
	
		<circle fill="none" stroke="#000000" stroke-width="4" stroke-linecap="round" stroke-linejoin="round" stroke-miterlimit="10" cx="315.279" cy="435.19" r="23.188"/>
	
		<circle fill="none" stroke="#000000" stroke-width="4" stroke-linecap="round" stroke-linejoin="round" stroke-miterlimit="10" cx="315.279" cy="435.19" r="7.199"/>
	
		<line fill="none" stroke="#000000" stroke-width="4" stroke-linecap="round" stroke-linejoin="round" stroke-miterlimit="10" x1="315.092" y1="407.19" x2="315.092" y2="411.19"/>
	
		<line fill="none" stroke="#000000" stroke-width="4" stroke-linecap="round" stroke-linejoin="round" stroke-miterlimit="10" x1="315.092" y1="459.19" x2="315.092" y2="463.19"/>
	
		<line fill="none" stroke="#000000" stroke-width="4" stroke-linecap="round" stroke-linejoin="round" stroke-miterlimit="10" x1="287.092" y1="435.19" x2="291.092" y2="435.19"/>
	
		<line fill="none" stroke="#000000" stroke-width="4" stroke-linecap="round" stroke-linejoin="round" stroke-miterlimit="10" x1="339.092" y1="435.19" x2="343.092" y2="435.19"/>
</g>
<g id="No_x5F_Signal">
	<path fill="none" stroke="#000000" stroke-width="4" stroke-linecap="round" stroke-linejoin="round" stroke-miterlimit="10" d="
		M412.092,435.19c0-6.403,2.595-12.2,6.791-16.396c4.196-4.196,9.993-6.792,16.396-6.792c6.402,0,12.197,2.594,16.393,6.788
		c4.198,4.196,6.795,9.995,6.795,16.399c0,12.806-10.381,23.188-23.188,23.188C422.473,458.378,412.092,447.996,412.092,435.19z"/>
	<g>
		
			<line fill="none" stroke="#000000" stroke-width="4" stroke-linecap="round" stroke-linejoin="round" stroke-miterlimit="10" x1="438.851" y1="438.762" x2="431.708" y2="431.618"/>
		
			<line fill="none" stroke="#000000" stroke-width="4" stroke-linecap="round" stroke-linejoin="round" stroke-miterlimit="10" x1="438.851" y1="431.618" x2="431.708" y2="438.762"/>
	</g>
</g>
<g id="Low_x5F_Signal">
	<path fill="none" stroke="#000000" stroke-width="4" stroke-linecap="round" stroke-linejoin="round" stroke-miterlimit="10" d="
		M532.091,435.19c0-6.403,2.595-12.2,6.792-16.396c4.196-4.196,9.993-6.792,16.396-6.792c6.401,0,12.197,2.594,16.393,6.788
		c4.198,4.196,6.795,9.995,6.795,16.399c0,12.806-10.381,23.188-23.188,23.188S532.091,447.996,532.091,435.19z"/>
	<path fill="none" stroke="#000000" stroke-width="4" stroke-linecap="round" stroke-linejoin="round" stroke-miterlimit="10" d="
		M551.181,437.786c1.049-1.049,2.498-1.698,4.099-1.698c1.599,0,3.047,0.648,4.096,1.695"/>
	<circle cx="555.28" cy="442.885" r="2"/>
</g>
<g id="Mid_x5F_Signal">
	<path fill="none" stroke="#000000" stroke-width="4" stroke-linecap="round" stroke-linejoin="round" stroke-miterlimit="10" d="
		M652.091,435.19c0-6.403,2.595-12.2,6.792-16.396c4.196-4.196,9.993-6.792,16.396-6.792c6.401,0,12.197,2.594,16.393,6.788
		c4.198,4.196,6.795,9.995,6.795,16.399c0,12.806-10.381,23.188-23.188,23.188S652.091,447.996,652.091,435.19z"/>
	<path fill="none" stroke="#000000" stroke-width="4" stroke-linecap="round" stroke-linejoin="round" stroke-miterlimit="10" d="
		M671.181,437.786c1.049-1.049,2.498-1.698,4.099-1.698c1.599,0,3.047,0.648,4.096,1.695"/>
	<circle cx="675.28" cy="442.885" r="2"/>
	<path fill="none" stroke="#000000" stroke-width="4" stroke-linecap="round" stroke-linejoin="round" stroke-miterlimit="10" d="
		M667.082,432.687c2.098-2.098,4.997-3.396,8.198-3.396c3.201,0,6.099,1.297,8.197,3.394"/>
</g>
<g id="High_x5F_Signal">
	<path fill="none" stroke="#000000" stroke-width="4" stroke-linecap="round" stroke-linejoin="round" stroke-miterlimit="10" d="
		M772.091,435.19c0-6.403,2.595-12.2,6.792-16.396c4.196-4.196,9.993-6.792,16.396-6.792c6.401,0,12.197,2.594,16.393,6.788
		c4.198,4.196,6.795,9.995,6.795,16.399c0,12.806-10.381,23.188-23.188,23.188S772.091,447.996,772.091,435.19z"/>
	<path fill="none" stroke="#000000" stroke-width="4" stroke-linecap="round" stroke-linejoin="round" stroke-miterlimit="10" d="
		M791.181,437.786c1.049-1.049,2.498-1.698,4.099-1.698c1.599,0,3.047,0.648,4.096,1.695"/>
	<circle cx="795.28" cy="442.885" r="2"/>
	<path fill="none" stroke="#000000" stroke-width="4" stroke-linecap="round" stroke-linejoin="round" stroke-miterlimit="10" d="
		M787.082,432.687c2.098-2.098,4.997-3.396,8.198-3.396c3.201,0,6.099,1.297,8.197,3.394"/>
	<path fill="none" stroke="#000000" stroke-width="4" stroke-linecap="round" stroke-linejoin="round" stroke-miterlimit="10" d="
		M782.983,427.588c3.147-3.147,7.495-5.094,12.297-5.094c4.801,0,9.148,1.946,12.295,5.091"/>
</g>
<g id="Options_1_">
	<g>
		<path fill="none" stroke="#000000" stroke-width="4" stroke-linecap="round" stroke-linejoin="round" stroke-miterlimit="10" d="
			M891.904,435.19c0-6.403,2.595-12.2,6.792-16.396c4.196-4.196,9.993-6.792,16.396-6.792c6.401,0,12.197,2.594,16.393,6.788
			c4.198,4.196,6.795,9.995,6.795,16.399c0,12.806-10.381,23.188-23.188,23.188S891.904,447.996,891.904,435.19z"/>
		<g>
			<defs>
				<path id="SVGID_13_" d="M891.904,435.19c0-6.403,2.595-12.2,6.792-16.396c4.196-4.196,9.993-6.792,16.396-6.792
					c6.401,0,12.197,2.594,16.393,6.788c4.198,4.196,6.795,9.995,6.795,16.399c0,12.806-10.381,23.188-23.188,23.188
					S891.904,447.996,891.904,435.19z"/>
			</defs>
			<clipPath id="SVGID_14_">
				<use xlink:href="#SVGID_13_"  overflow="visible"/>
			</clipPath>
		</g>
		<g>
			<g>
				
					<path fill="none" stroke="#000000" stroke-width="4" stroke-linecap="round" stroke-linejoin="round" stroke-miterlimit="10" d="
					M904.954,435.19c0-2.799,1.135-5.334,2.969-7.168c1.835-1.835,4.369-2.969,7.168-2.969c2.799,0,5.333,1.134,7.167,2.968
					c1.835,1.835,2.971,4.37,2.971,7.17c0,5.599-4.539,10.138-10.138,10.138S904.954,440.789,904.954,435.19z"/>
				<path d="M913.326,435.19c0-0.488,0.198-0.929,0.517-1.248c0.32-0.319,0.761-0.517,1.248-0.517c0.487,0,0.929,0.198,1.248,0.517
					c0.32,0.32,0.517,0.761,0.517,1.249c0,0.975-0.79,1.765-1.766,1.765S913.326,436.165,913.326,435.19z"/>
				<g>
					<g>
						
							<line fill="none" stroke="#000000" stroke-width="4" stroke-linecap="round" stroke-linejoin="round" stroke-miterlimit="10" x1="915.092" y1="425.052" x2="915.092" y2="420.18"/>
						
							<line fill="none" stroke="#000000" stroke-width="4" stroke-linecap="round" stroke-linejoin="round" stroke-miterlimit="10" x1="915.092" y1="450.2" x2="915.092" y2="445.328"/>
					</g>
					<g>
						
							<line fill="none" stroke="#000000" stroke-width="4" stroke-linecap="round" stroke-linejoin="round" stroke-miterlimit="10" x1="904.954" y1="435.19" x2="900.081" y2="435.19"/>
						
							<line fill="none" stroke="#000000" stroke-width="4" stroke-linecap="round" stroke-linejoin="round" stroke-miterlimit="10" x1="930.102" y1="435.19" x2="925.229" y2="435.19"/>
					</g>
				</g>
				<g>
					<g>
						
							<line fill="none" stroke="#000000" stroke-width="4" stroke-linecap="round" stroke-linejoin="round" stroke-miterlimit="10" x1="910.023" y1="426.411" x2="907.587" y2="422.191"/>
						
							<line fill="none" stroke="#000000" stroke-width="4" stroke-linecap="round" stroke-linejoin="round" stroke-miterlimit="10" x1="922.597" y1="448.189" x2="920.161" y2="443.969"/>
					</g>
					<g>
						
							<line fill="none" stroke="#000000" stroke-width="4" stroke-linecap="round" stroke-linejoin="round" stroke-miterlimit="10" x1="906.312" y1="440.259" x2="902.092" y2="442.695"/>
						
							<line fill="none" stroke="#000000" stroke-width="4" stroke-linecap="round" stroke-linejoin="round" stroke-miterlimit="10" x1="928.091" y1="427.685" x2="923.871" y2="430.121"/>
					</g>
				</g>
				<g>
					<g>
						
							<line fill="none" stroke="#000000" stroke-width="4" stroke-linecap="round" stroke-linejoin="round" stroke-miterlimit="10" x1="906.312" y1="430.121" x2="902.092" y2="427.685"/>
						
							<line fill="none" stroke="#000000" stroke-width="4" stroke-linecap="round" stroke-linejoin="round" stroke-miterlimit="10" x1="928.091" y1="442.695" x2="923.871" y2="440.259"/>
					</g>
					<g>
						
							<line fill="none" stroke="#000000" stroke-width="4" stroke-linecap="round" stroke-linejoin="round" stroke-miterlimit="10" x1="910.023" y1="443.969" x2="907.587" y2="448.189"/>
						
							<line fill="none" stroke="#000000" stroke-width="4" stroke-linecap="round" stroke-linejoin="round" stroke-miterlimit="10" x1="922.597" y1="422.191" x2="920.161" y2="426.411"/>
					</g>
				</g>
			</g>
		</g>
	</g>
</g>
<g id="Flash">
	<g>
		<path fill="none" stroke="#000000" stroke-width="4" stroke-linecap="round" stroke-linejoin="round" stroke-miterlimit="10" d="
			M1012.124,435.19c0-6.403,2.595-12.2,6.792-16.396c4.196-4.196,9.993-6.792,16.396-6.792c6.401,0,12.197,2.594,16.393,6.788
			c4.198,4.196,6.795,9.995,6.795,16.399c0,12.806-10.381,23.188-23.188,23.188S1012.124,447.996,1012.124,435.19z"/>
		
			<polyline fill="none" stroke="#000000" stroke-width="4" stroke-linecap="round" stroke-linejoin="round" stroke-miterlimit="10" points="
			1039.263,422.523 1030.307,431.479 1038.823,439.995 1030.347,448.47 		"/>
	</g>
</g>
<g id="No_x5F_Signal_x5F_02">
	<path fill="none" stroke="#000000" stroke-width="4" stroke-linecap="round" stroke-linejoin="round" stroke-miterlimit="10" d="
		M52.092,555.19c0-6.403,2.595-12.2,6.791-16.396c4.196-4.196,9.993-6.792,16.396-6.792c6.402,0,12.197,2.594,16.393,6.788
		c4.198,4.196,6.795,9.995,6.795,16.399c0,12.806-10.381,23.188-23.188,23.188S52.092,567.996,52.092,555.19z"/>
	
		<line fill="none" stroke="#000000" stroke-width="4" stroke-linecap="round" stroke-miterlimit="10" x1="75.279" y1="563.255" x2="75.279" y2="578.362"/>
	<g>
		
			<line fill="none" stroke="#000000" stroke-width="4" stroke-linecap="round" stroke-linejoin="round" stroke-miterlimit="10" x1="78.851" y1="558.762" x2="71.708" y2="551.618"/>
		
			<line fill="none" stroke="#000000" stroke-width="4" stroke-linecap="round" stroke-linejoin="round" stroke-miterlimit="10" x1="78.851" y1="551.618" x2="71.708" y2="558.762"/>
	</g>
</g>
<g id="Low_x5F_Signal_x5F_02">
	<path fill="none" stroke="#000000" stroke-width="4" stroke-linecap="round" stroke-linejoin="round" stroke-miterlimit="10" d="
		M172.092,555.19c0-6.403,2.595-12.2,6.791-16.396c4.196-4.196,9.993-6.792,16.396-6.792c6.402,0,12.197,2.594,16.393,6.788
		c4.198,4.196,6.795,9.995,6.795,16.399c0,12.806-10.381,23.188-23.188,23.188C182.473,578.378,172.092,567.996,172.092,555.19z"/>
	<g>
		<circle cx="195.279" cy="555.19" r="2"/>
	</g>
	
		<line fill="none" stroke="#000000" stroke-width="4" stroke-linecap="round" stroke-miterlimit="10" x1="195.279" y1="563.255" x2="195.279" y2="578.362"/>
</g>
<g id="Mid_x5F_Signal_x5F_02">
	<path fill="none" stroke="#000000" stroke-width="4" stroke-linecap="round" stroke-linejoin="round" stroke-miterlimit="10" d="
		M292.092,555.19c0-6.403,2.595-12.2,6.791-16.396c4.196-4.196,9.993-6.792,16.396-6.792c6.402,0,12.197,2.594,16.393,6.788
		c4.198,4.196,6.795,9.995,6.795,16.399c0,12.806-10.381,23.188-23.188,23.188C302.473,578.378,292.092,567.996,292.092,555.19z"/>
	<g>
		<circle cx="315.279" cy="555.19" r="2"/>
	</g>
	
		<line fill="none" stroke="#000000" stroke-width="4" stroke-linecap="round" stroke-miterlimit="10" x1="315.279" y1="563.255" x2="315.279" y2="578.362"/>
	<path fill="none" stroke="#000000" stroke-width="4" stroke-linecap="round" stroke-linejoin="round" stroke-miterlimit="10" d="
		M320.529,551.093c1.049,1.049,1.698,2.498,1.698,4.099c0,1.599-0.648,3.047-1.695,4.096"/>
	<path fill="none" stroke="#000000" stroke-width="4" stroke-linecap="round" stroke-linejoin="round" stroke-miterlimit="10" d="
		M309.878,559.287c-1.049-1.049-1.698-2.498-1.698-4.099c0-1.599,0.648-3.047,1.695-4.096"/>
</g>
<g id="High_x5F_Signal_x5F_02">
	<path fill="none" stroke="#000000" stroke-width="4" stroke-linecap="round" stroke-linejoin="round" stroke-miterlimit="10" d="
		M412.092,555.19c0-6.403,2.595-12.2,6.791-16.396c4.196-4.196,9.993-6.792,16.396-6.792c6.402,0,12.197,2.594,16.393,6.788
		c4.198,4.196,6.795,9.995,6.795,16.399c0,12.806-10.381,23.188-23.188,23.188C422.473,578.378,412.092,567.996,412.092,555.19z"/>
	<g>
		<circle cx="435.279" cy="555.19" r="2"/>
	</g>
	
		<line fill="none" stroke="#000000" stroke-width="4" stroke-linecap="round" stroke-miterlimit="10" x1="435.279" y1="563.255" x2="435.279" y2="578.362"/>
	<path fill="none" stroke="#000000" stroke-width="4" stroke-linecap="round" stroke-linejoin="round" stroke-miterlimit="10" d="
		M440.529,551.093c1.049,1.049,1.698,2.498,1.698,4.099c0,1.599-0.648,3.047-1.695,4.096"/>
	<path fill="none" stroke="#000000" stroke-width="4" stroke-linecap="round" stroke-linejoin="round" stroke-miterlimit="10" d="
		M445.628,546.993c2.098,2.098,3.396,4.997,3.396,8.198c0,3.201-1.297,6.099-3.394,8.197"/>
	<path fill="none" stroke="#000000" stroke-width="4" stroke-linecap="round" stroke-linejoin="round" stroke-miterlimit="10" d="
		M429.878,559.287c-1.049-1.049-1.698-2.498-1.698-4.099c0-1.599,0.648-3.047,1.695-4.096"/>
	<path fill="none" stroke="#000000" stroke-width="4" stroke-linecap="round" stroke-linejoin="round" stroke-miterlimit="10" d="
		M424.779,563.387c-2.098-2.098-3.396-4.997-3.396-8.198c0-3.201,1.297-6.099,3.394-8.197"/>
</g>
<g id="Favorite">
	<path fill="none" stroke="#000000" stroke-width="4" stroke-linecap="round" stroke-linejoin="round" stroke-miterlimit="10" d="
		M532.092,555.19c0-6.403,2.595-12.2,6.791-16.396c4.196-4.196,9.993-6.792,16.396-6.792c6.401,0,12.197,2.594,16.393,6.788
		c4.198,4.196,6.795,9.995,6.795,16.399c0,12.806-10.381,23.188-23.188,23.188C542.473,578.378,532.092,567.996,532.092,555.19z"/>
	
		<polygon fill="none" stroke="#000000" stroke-width="4" stroke-linecap="round" stroke-linejoin="round" stroke-miterlimit="10" points="
		555.092,540.284 558.635,551.19 570.102,551.19 560.825,557.661 564.369,568.433 555.092,561.626 545.815,568.332 549.358,557.678 
		540.081,551.19 551.548,551.19 	"/>
</g>
<g id="Search">
	<path fill="none" stroke="#000000" stroke-width="4" stroke-linecap="round" stroke-linejoin="round" stroke-miterlimit="10" d="
		M652.091,555.19c0-6.403,2.595-12.2,6.792-16.396c4.196-4.196,9.993-6.792,16.396-6.792c6.401,0,12.197,2.594,16.393,6.788
		c4.198,4.196,6.795,9.995,6.795,16.399c0,12.806-10.381,23.188-23.188,23.188S652.091,567.996,652.091,555.19z"/>
	<path fill="none" stroke="#000000" stroke-width="4" stroke-linecap="round" stroke-linejoin="round" stroke-miterlimit="10" d="
		M665.403,556.858c-1.634-1.634-2.451-3.775-2.451-5.917s0.817-4.283,2.451-5.917c1.633-1.633,3.774-2.45,5.915-2.451
		c2.142,0,4.284,0.817,5.918,2.451c3.268,3.268,3.268,8.566,0,11.834C673.969,560.126,668.67,560.126,665.403,556.858z"/>
	
		<line fill="none" stroke="#000000" stroke-width="4" stroke-linecap="round" stroke-linejoin="round" stroke-miterlimit="10" x1="677.236" y1="556.858" x2="691.819" y2="571.441"/>
</g>
<g id="Stats_x5F_01">
	<path fill="none" stroke="#000000" stroke-width="4" stroke-linecap="round" stroke-linejoin="round" stroke-miterlimit="10" d="
		M772.091,555.19c0-6.403,2.595-12.2,6.792-16.396c4.196-4.196,9.993-6.792,16.396-6.792c6.401,0,12.197,2.594,16.393,6.788
		c4.198,4.196,6.795,9.995,6.795,16.399c0,12.806-10.381,23.188-23.188,23.188S772.091,567.996,772.091,555.19z"/>
	
		<line fill="none" stroke="#000000" stroke-width="4" stroke-linecap="round" stroke-linejoin="round" stroke-miterlimit="10" x1="791.279" y1="555.19" x2="791.279" y2="577.202"/>
	
		<line fill="none" stroke="#000000" stroke-width="4" stroke-linecap="round" stroke-linejoin="round" stroke-miterlimit="10" x1="783.279" y1="549.19" x2="783.279" y2="574.202"/>
	
		<line fill="none" stroke="#000000" stroke-width="4" stroke-linecap="round" stroke-linejoin="round" stroke-miterlimit="10" x1="815.279" y1="552.19" x2="815.279" y2="566.202"/>
	
		<line fill="none" stroke="#000000" stroke-width="4" stroke-linecap="round" stroke-linejoin="round" stroke-miterlimit="10" x1="807.279" y1="562.19" x2="807.279" y2="574.202"/>
	
		<line fill="none" stroke="#000000" stroke-width="4" stroke-linecap="round" stroke-linejoin="round" stroke-miterlimit="10" x1="799.279" y1="545.19" x2="799.279" y2="577.202"/>
	
		<line fill="none" stroke="#000000" stroke-width="4" stroke-linecap="round" stroke-linejoin="round" stroke-miterlimit="10" x1="775.279" y1="559.19" x2="775.279" y2="566.202"/>
</g>
<g id="Stats_x5F_02">
	<path fill="none" stroke="#000000" stroke-width="4" stroke-linecap="round" stroke-linejoin="round" stroke-miterlimit="10" d="
		M892.217,557.635c-0.754-7.363,1.942-14.117,6.666-18.841c4.196-4.196,9.993-6.792,16.396-6.792v17.188c0,3.314,2.686,6,6,6h17.188
		c0,13.676-11.839,24.586-25.828,23.042C901.918,577.047,893.315,568.365,892.217,557.635z"/>
	<path fill="none" stroke="#000000" stroke-width="4" stroke-linecap="round" stroke-linejoin="round" stroke-miterlimit="10" d="
		M921.592,546.877v-13.999c6,0,15.997,11.645,15.997,15.999h-13.997C922.487,548.877,921.592,547.982,921.592,546.877z"/>
</g>
<g id="Turn_x5F_On_x5F_Off">
	<path fill="none" stroke="#000000" stroke-width="4" stroke-linecap="round" stroke-linejoin="round" stroke-miterlimit="10" d="
		M1018.883,538.794c4.528-4.528,10.462-6.792,16.396-6.792s11.868,2.264,16.396,6.792c4.527,4.527,6.79,10.459,6.792,16.392
		c0.001,5.936-2.263,11.872-6.792,16.4c-9.055,9.055-23.737,9.055-32.792,0C1009.827,562.531,1009.827,547.849,1018.883,538.794z"/>
	<path fill="none" stroke="#000000" stroke-width="4" stroke-linecap="round" stroke-linejoin="round" stroke-miterlimit="10" d="
		M1041.928,550.758c0.947,1.332,1.504,2.961,1.504,4.719v0c0,4.502-3.65,8.152-8.152,8.152l0,0c-4.503,0-8.152-3.65-8.152-8.152v0
		c0-1.8,0.583-3.463,1.571-4.812"/>
	
		<line fill="none" stroke="#000000" stroke-width="4" stroke-linecap="round" stroke-linejoin="round" stroke-miterlimit="10" x1="1035.279" y1="555.19" x2="1035.279" y2="547.229"/>
</g>
<g id="Full_x5F_Height">
	<path fill="none" stroke="#000000" stroke-width="4" stroke-linecap="round" stroke-linejoin="round" stroke-miterlimit="10" d="
		M52.091,675.19c0-6.403,2.595-12.2,6.791-16.396c4.196-4.196,9.993-6.792,16.396-6.792c6.402,0,12.197,2.594,16.393,6.788
		c4.198,4.196,6.795,9.995,6.795,16.399c0,12.806-10.381,23.188-23.188,23.188S52.091,687.996,52.091,675.19z"/>
	<g>
		<g>
			<path fill="none" stroke="#000000" stroke-width="4" stroke-linecap="round" stroke-linejoin="round" stroke-miterlimit="10" d="
				M81.686,666.032c-3.537-3.536-2.681-2.681-5.259-5.258c-0.781-0.781-2.044-0.777-2.825,0.004l-5.106,5.105"/>
			
				<line fill="none" stroke="#000000" stroke-width="4" stroke-linecap="round" stroke-linejoin="round" stroke-miterlimit="10" x1="75.092" y1="671.548" x2="75.092" y2="660.208"/>
		</g>
		<g>
			<path fill="none" stroke="#000000" stroke-width="4" stroke-linecap="round" stroke-linejoin="round" stroke-miterlimit="10" d="
				M68.497,684.539c3.537,3.536,2.681,2.681,5.259,5.258c0.781,0.781,2.044,0.777,2.825-0.004l5.106-5.105"/>
			
				<line fill="none" stroke="#000000" stroke-width="4" stroke-linecap="round" stroke-linejoin="round" stroke-miterlimit="10" x1="75.092" y1="679.024" x2="75.092" y2="690.363"/>
		</g>
	</g>
</g>
<g id="Full_x5F_Width">
	<path fill="none" stroke="#000000" stroke-width="4" stroke-linecap="round" stroke-linejoin="round" stroke-miterlimit="10" d="
		M195.279,698.378c-6.403,0-12.2-2.595-16.396-6.792c-4.196-4.196-6.792-9.993-6.792-16.396c0-6.402,2.594-12.197,6.788-16.393
		c4.196-4.198,9.995-6.795,16.399-6.795c12.806,0,23.188,10.381,23.188,23.188S208.085,698.378,195.279,698.378z"/>
	<g>
		<g>
			<path fill="none" stroke="#000000" stroke-width="4" stroke-linecap="round" stroke-linejoin="round" stroke-miterlimit="10" d="
				M186.122,668.782c-3.537,3.537-2.681,2.681-5.259,5.259c-0.781,0.781-0.777,2.044,0.004,2.825l5.105,5.106"/>
			
				<line fill="none" stroke="#000000" stroke-width="4" stroke-linecap="round" stroke-linejoin="round" stroke-miterlimit="10" x1="191.638" y1="675.377" x2="180.297" y2="675.377"/>
		</g>
		<g>
			<path fill="none" stroke="#000000" stroke-width="4" stroke-linecap="round" stroke-linejoin="round" stroke-miterlimit="10" d="
				M204.631,681.972c3.537-3.537,2.681-2.681,5.259-5.259c0.781-0.781,0.777-2.044-0.004-2.825l-5.105-5.106"/>
			
				<line fill="none" stroke="#000000" stroke-width="4" stroke-linecap="round" stroke-linejoin="round" stroke-miterlimit="10" x1="199.115" y1="675.377" x2="210.456" y2="675.377"/>
		</g>
	</g>
</g>
<g id="Full_x5F_Screen">
	<path fill="none" stroke="#000000" stroke-width="4" stroke-linecap="round" stroke-linejoin="round" stroke-miterlimit="10" d="
		M298.883,658.794c4.528-4.528,10.462-6.792,16.396-6.792s11.868,2.264,16.396,6.792c4.527,4.527,6.79,10.459,6.792,16.392
		c0.001,5.936-2.263,11.872-6.792,16.4c-9.055,9.055-23.737,9.055-32.792,0C289.827,682.531,289.827,667.849,298.883,658.794z"/>
	<g>
		<g>
			<path fill="none" stroke="#000000" stroke-width="4" stroke-linecap="round" stroke-linejoin="round" stroke-miterlimit="10" d="
				M326.285,673.246c0-5.002,0-3.792,0-7.437c0-1.105-0.895-1.995-2-1.995l-7.22,0"/>
			
				<line fill="none" stroke="#000000" stroke-width="4" stroke-linecap="round" stroke-linejoin="round" stroke-miterlimit="10" x1="317.721" y1="672.483" x2="325.74" y2="664.464"/>
		</g>
		<g>
			<path fill="none" stroke="#000000" stroke-width="4" stroke-linecap="round" stroke-linejoin="round" stroke-miterlimit="10" d="
				M303.87,677.008c0,5.002,0,3.792,0,7.437c0,1.105,0.895,1.995,2,1.995l7.22,0"/>
			
				<line fill="none" stroke="#000000" stroke-width="4" stroke-linecap="round" stroke-linejoin="round" stroke-miterlimit="10" x1="312.434" y1="677.771" x2="304.414" y2="685.79"/>
		</g>
	</g>
</g>
<g id="Compress_x5F_Screen">
	<path fill="none" stroke="#000000" stroke-width="4" stroke-linecap="round" stroke-linejoin="round" stroke-miterlimit="10" d="
		M418.883,658.794c4.528-4.528,10.462-6.792,16.396-6.792s11.868,2.264,16.396,6.792c4.527,4.527,6.79,10.459,6.792,16.392
		c0.001,5.936-2.263,11.872-6.792,16.4c-9.055,9.055-23.737,9.055-32.792,0C409.827,682.531,409.827,667.849,418.883,658.794z"/>
	<g>
		<g>
			<path fill="none" stroke="#000000" stroke-width="4" stroke-linecap="round" stroke-linejoin="round" stroke-miterlimit="10" d="
				M437.065,663.814c0,5.002,0,3.792,0,7.437c0,1.105,0.895,1.995,2,1.995l7.22,0"/>
			
				<line fill="none" stroke="#000000" stroke-width="4" stroke-linecap="round" stroke-linejoin="round" stroke-miterlimit="10" x1="445.628" y1="664.576" x2="437.609" y2="672.596"/>
		</g>
		<g>
			<path fill="none" stroke="#000000" stroke-width="4" stroke-linecap="round" stroke-linejoin="round" stroke-miterlimit="10" d="
				M433.09,686.44c0-5.002,0-3.792,0-7.437c0-1.105-0.895-1.995-2-1.995l-7.22,0"/>
			
				<line fill="none" stroke="#000000" stroke-width="4" stroke-linecap="round" stroke-linejoin="round" stroke-miterlimit="10" x1="424.526" y1="685.678" x2="432.546" y2="677.658"/>
		</g>
	</g>
</g>
<g id="Chat">
	<path fill="none" stroke="#000000" stroke-width="4" stroke-linecap="round" stroke-linejoin="round" stroke-miterlimit="10" d="
		M531.887,675.271c0-6.403,2.595-12.2,6.791-16.396c4.196-4.196,9.993-6.792,16.396-6.792c6.401,0,12.197,2.594,16.393,6.788
		c4.198,4.196,6.795,9.995,6.795,16.399c0,4.802-1.46,9.263-3.96,12.964c-0.833,1.234,5.289,9.454,4.24,10.503
		c-1.098,1.098-9.377-4.984-10.677-4.123c-3.666,2.429-8.063,3.844-12.791,3.844C542.268,698.459,531.887,688.078,531.887,675.271z"
		/>
	<g>
		
			<line fill="none" stroke="#000000" stroke-width="4" stroke-linecap="round" stroke-linejoin="round" stroke-miterlimit="10" x1="564.644" y1="667.19" x2="545.54" y2="667.19"/>
		
			<line fill="none" stroke="#000000" stroke-width="4" stroke-linecap="round" stroke-linejoin="round" stroke-miterlimit="10" x1="558.107" y1="675.19" x2="545.54" y2="675.19"/>
		
			<line fill="none" stroke="#000000" stroke-width="4" stroke-linecap="round" stroke-linejoin="round" stroke-miterlimit="10" x1="551.823" y1="683.19" x2="545.54" y2="683.19"/>
	</g>
</g>
<g id="Bluetooth">
	<path fill="none" stroke="#000000" stroke-width="4" stroke-linecap="round" stroke-linejoin="round" stroke-miterlimit="10" d="
		M675.107,698.378c-6.403,0-12.2-2.595-16.396-6.792c-4.196-4.196-6.792-9.993-6.792-16.396c0-6.402,2.594-12.197,6.788-16.393
		c4.196-4.198,9.995-6.795,16.399-6.795c12.806,0,23.188,10.381,23.188,23.188S687.914,698.378,675.107,698.378z"/>
	
		<polyline fill="none" stroke="#000000" stroke-width="4" stroke-linecap="round" stroke-linejoin="round" stroke-miterlimit="10" points="
		668.232,667.015 681.547,680.862 674.092,689.788 674.092,659.592 681.891,667.303 667.982,681.002 	"/>
</g>
<g id="Share_x5F_iOS">
	<path fill="none" stroke="#000000" stroke-width="4" stroke-linecap="round" stroke-linejoin="round" stroke-miterlimit="10" d="
		M795.107,698.378c-6.403,0-12.2-2.595-16.396-6.792c-4.196-4.196-6.792-9.993-6.792-16.396c0-6.402,2.594-12.197,6.788-16.393
		c4.196-4.198,9.995-6.795,16.399-6.795c12.806,0,23.188,10.381,23.188,23.188S807.914,698.378,795.107,698.378z"/>
	<g>
		<g>
			<path fill="none" stroke="#000000" stroke-width="4" stroke-linecap="round" stroke-linejoin="round" stroke-miterlimit="10" d="
				M801.78,667.036c-3.537-3.537-2.681-2.681-5.259-5.259c-0.781-0.781-2.044-0.777-2.825,0.004l-5.106,5.105"/>
			
				<line fill="none" stroke="#000000" stroke-width="4" stroke-linecap="round" stroke-linejoin="round" stroke-miterlimit="10" x1="795.186" y1="672.552" x2="795.186" y2="661.211"/>
		</g>
		
			<rect x="787.987" y="672.994" fill="none" stroke="#000000" stroke-width="4" stroke-linecap="round" stroke-linejoin="round" stroke-miterlimit="10" width="14.398" height="14.398"/>
	</g>
</g>
<g id="Share_x5F_Android">
	<path fill="none" stroke="#000000" stroke-width="4" stroke-linecap="round" stroke-linejoin="round" stroke-miterlimit="10" d="
		M915.107,698.378c-6.403,0-12.2-2.595-16.396-6.792c-4.196-4.196-6.792-9.993-6.792-16.396c0-6.402,2.594-12.197,6.788-16.393
		c4.196-4.198,9.995-6.795,16.399-6.795c12.806,0,23.188,10.381,23.188,23.188S927.914,698.378,915.107,698.378z"/>
	
		<circle fill="none" stroke="#000000" stroke-width="4" stroke-linecap="round" stroke-linejoin="round" stroke-miterlimit="10" cx="905.279" cy="675.19" r="5"/>
	<path fill="none" stroke="#000000" stroke-width="4" stroke-linecap="round" stroke-linejoin="round" stroke-miterlimit="10" d="
		M914.279,665.19c0-2.761,2.239-5,5-5c2.761,0,5,2.239,5,5s-2.239,5-5,5c-1.553,0-2.941-0.708-3.858-1.82
		C914.708,667.506,914.279,666.398,914.279,665.19z"/>
	
		<circle fill="none" stroke="#000000" stroke-width="4" stroke-linecap="round" stroke-linejoin="round" stroke-miterlimit="10" cx="919.279" cy="685.19" r="5"/>
	
		<line fill="none" stroke="#000000" stroke-width="4" stroke-linecap="round" stroke-linejoin="round" stroke-miterlimit="10" x1="909.261" y1="672.174" x2="915.107" y2="667.943"/>
	
		<line fill="none" stroke="#000000" stroke-width="4" stroke-linecap="round" stroke-linejoin="round" stroke-miterlimit="10" x1="915.107" y1="682.174" x2="910.139" y2="678.821"/>
</g>
<g id="Love__x2F__Favorite">
	<path fill="none" stroke="#000000" stroke-width="4" stroke-linecap="round" stroke-linejoin="round" stroke-miterlimit="10" d="
		M1035.108,698.378c-6.403,0-12.2-2.595-16.396-6.792c-4.196-4.196-6.792-9.993-6.792-16.396c0-6.402,2.594-12.197,6.788-16.393
		c4.196-4.198,9.995-6.795,16.399-6.795c12.806,0,23.188,10.381,23.188,23.188S1047.914,698.378,1035.108,698.378z"/>
	<path fill="none" stroke="#000000" stroke-width="4" stroke-linecap="round" stroke-linejoin="round" stroke-miterlimit="10" d="
		M1039.232,664.802c0.96-0.349,2.037-0.53,3.175-0.53c4.04,0,7.315,3.275,7.315,7.315c0,7.188-14.614,18.199-14.614,18.199
		s-14.645-11.011-14.645-18.199c0-4.04,3.275-7.315,7.315-7.315c4.04,0,7.315,3.275,7.315,7.315"/>
</g>
<g id="Hamburguer">
	<path fill="none" stroke="#000000" stroke-width="4" stroke-linecap="round" stroke-linejoin="round" stroke-miterlimit="10" d="
		M58.883,778.794c4.528-4.528,10.462-6.792,16.396-6.792c5.934,0,11.868,2.264,16.396,6.792c4.527,4.527,6.79,10.459,6.791,16.392
		c0.001,5.936-2.263,11.872-6.791,16.4c-9.055,9.055-23.737,9.055-32.792,0C49.827,802.531,49.827,787.849,58.883,778.794z"/>
	<g>
		
			<line fill="none" stroke="#000000" stroke-width="4" stroke-linecap="round" stroke-linejoin="round" stroke-miterlimit="10" x1="83.279" y1="795.19" x2="67.279" y2="795.19"/>
		
			<line fill="none" stroke="#000000" stroke-width="4" stroke-linecap="round" stroke-linejoin="round" stroke-miterlimit="10" x1="83.279" y1="787.19" x2="67.279" y2="787.19"/>
		
			<line fill="none" stroke="#000000" stroke-width="4" stroke-linecap="round" stroke-linejoin="round" stroke-miterlimit="10" x1="83.279" y1="803.19" x2="67.279" y2="803.19"/>
	</g>
</g>
<g id="Flying">
	<g>
		<path fill="none" stroke="#000000" stroke-width="4" stroke-linecap="round" stroke-linejoin="round" stroke-miterlimit="10" d="
			M172.124,795.19c0-6.403,2.595-12.2,6.791-16.396c4.196-4.196,9.993-6.792,16.396-6.792c6.402,0,12.197,2.594,16.393,6.788
			c4.198,4.196,6.795,9.995,6.795,16.399c0,12.806-10.381,23.188-23.188,23.188C182.506,818.378,172.124,807.996,172.124,795.19z"/>
		
			<line fill="none" stroke="#000000" stroke-width="4" stroke-linecap="round" stroke-linejoin="round" stroke-miterlimit="10" x1="207.592" y1="797.19" x2="182.592" y2="797.19"/>
		
			<line fill="none" stroke="#000000" stroke-width="4" stroke-linecap="round" stroke-linejoin="round" stroke-miterlimit="10" x1="195.092" y1="797.19" x2="187.903" y2="790.002"/>
		
			<line fill="none" stroke="#000000" stroke-width="4" stroke-linecap="round" stroke-linejoin="round" stroke-miterlimit="10" x1="182.592" y1="797.19" x2="182.592" y2="794.607"/>
	</g>
</g>
<g id="Take_x5F_Off">
	<g>
		<path fill="none" stroke="#000000" stroke-width="4" stroke-linecap="round" stroke-linejoin="round" stroke-miterlimit="10" d="
			M293.523,803.121c-2.19-6.017-1.734-12.352,0.774-17.73s7.068-9.8,13.085-11.99c6.015-2.189,12.349-1.734,17.726,0.772
			c5.38,2.508,9.803,7.068,11.994,13.086c4.38,12.034-1.825,25.34-13.859,29.72C311.209,821.359,297.903,815.154,293.523,803.121z"
			/>
		
			<line fill="none" stroke="#000000" stroke-width="4" stroke-linecap="round" stroke-linejoin="round" stroke-miterlimit="10" x1="327.535" y1="792.869" x2="304.043" y2="801.42"/>
		
			<line fill="none" stroke="#000000" stroke-width="4" stroke-linecap="round" stroke-linejoin="round" stroke-miterlimit="10" x1="315.789" y1="797.145" x2="306.576" y2="792.848"/>
		
			<line fill="none" stroke="#000000" stroke-width="4" stroke-linecap="round" stroke-linejoin="round" stroke-miterlimit="10" x1="304.043" y1="801.42" x2="303.16" y2="798.993"/>
	</g>
</g>
<g id="Land">
	<g>
		<path fill="none" stroke="#000000" stroke-width="4" stroke-linecap="round" stroke-linejoin="round" stroke-miterlimit="10" d="
			M413.523,787.259c2.19-6.017,6.611-10.577,11.99-13.084c5.378-2.508,11.713-2.964,17.73-0.774
			c6.015,2.189,10.574,6.609,13.083,11.986c2.51,5.379,2.966,11.716,0.776,17.734c-4.38,12.034-17.686,18.239-29.72,13.859
			C415.348,812.599,409.143,799.293,413.523,787.259z"/>
		
			<line fill="none" stroke="#000000" stroke-width="4" stroke-linecap="round" stroke-linejoin="round" stroke-miterlimit="10" x1="446.167" y1="801.269" x2="422.675" y2="792.719"/>
		
			<line fill="none" stroke="#000000" stroke-width="4" stroke-linecap="round" stroke-linejoin="round" stroke-miterlimit="10" x1="434.421" y1="796.994" x2="430.125" y2="787.781"/>
		
			<line fill="none" stroke="#000000" stroke-width="4" stroke-linecap="round" stroke-linejoin="round" stroke-miterlimit="10" x1="422.675" y1="792.719" x2="423.558" y2="790.292"/>
	</g>
</g>
<g id="City">
	<path fill="none" stroke="#000000" stroke-width="4" stroke-linecap="round" stroke-linejoin="round" stroke-miterlimit="10" d="
		M532.091,795.19c0-6.403,2.595-12.2,6.792-16.396c4.196-4.196,9.993-6.792,16.396-6.792c6.401,0,12.197,2.594,16.393,6.788
		c4.198,4.196,6.795,9.995,6.795,16.399c0,12.806-10.381,23.188-23.188,23.188S532.091,807.996,532.091,795.19z"/>
	<g>
		<defs>
			<path id="SVGID_15_" d="M532.091,795.19c0-6.403,2.595-12.2,6.792-16.396c4.196-4.196,9.993-6.792,16.396-6.792
				c6.401,0,12.197,2.594,16.393,6.788c4.198,4.196,6.795,9.995,6.795,16.399c0,12.806-10.381,23.188-23.188,23.188
				S532.091,807.996,532.091,795.19z"/>
		</defs>
		<clipPath id="SVGID_16_">
			<use xlink:href="#SVGID_15_"  overflow="visible"/>
		</clipPath>
		<g clip-path="url(#SVGID_16_)">
			
				<rect x="545.592" y="785.503" fill="none" stroke="#000000" stroke-width="4" stroke-linecap="round" stroke-linejoin="round" stroke-miterlimit="10" width="19.374" height="39.374"/>
			
				<rect x="526.218" y="803.185" fill="none" stroke="#000000" stroke-width="4" stroke-linecap="round" stroke-linejoin="round" stroke-miterlimit="10" width="19.374" height="21.692"/>
			
				<rect x="564.966" y="795.19" fill="none" stroke="#000000" stroke-width="4" stroke-linecap="round" stroke-linejoin="round" stroke-miterlimit="10" width="19.374" height="29.687"/>
			<g>
				<g>
					<circle cx="555.279" cy="793.503" r="2"/>
				</g>
				<g>
					<circle cx="562.967" cy="793.503" r="2"/>
				</g>
				<g>
					<circle cx="547.592" cy="793.503" r="2"/>
				</g>
			</g>
			<g>
				<g>
					<circle cx="555.279" cy="801.503" r="2"/>
				</g>
				<g>
					<circle cx="562.967" cy="801.503" r="2"/>
				</g>
				<g>
					<circle cx="547.592" cy="801.503" r="2"/>
				</g>
			</g>
			<g>
				<g>
					<circle cx="555.279" cy="809.503" r="2"/>
				</g>
				<g>
					<circle cx="562.967" cy="809.503" r="2"/>
				</g>
				<g>
					<circle cx="547.592" cy="809.503" r="2"/>
				</g>
			</g>
			
				<line fill="none" stroke="#000000" stroke-width="4" stroke-linecap="round" stroke-miterlimit="10" x1="560.108" y1="785.503" x2="560.108" y2="780.387"/>
		</g>
	</g>
</g>
<g id="Nature">
	<path fill="none" stroke="#000000" stroke-width="4" stroke-linecap="round" stroke-linejoin="round" stroke-miterlimit="10" d="
		M675.279,818.378c-6.403,0-12.2-2.595-16.396-6.792c-4.196-4.196-6.792-9.993-6.792-16.396c0-6.402,2.594-12.197,6.788-16.393
		c4.196-4.198,9.995-6.795,16.399-6.795c12.806,0,23.188,10.381,23.188,23.188S688.085,818.378,675.279,818.378z"/>
	
		<polyline fill="none" stroke="#000000" stroke-width="4" stroke-linecap="round" stroke-linejoin="round" stroke-miterlimit="10" points="
		652.833,801.025 661.342,792.19 667.814,796.672 679.245,780.497 697.267,802.559 	"/>
	
		<line fill="none" stroke="#000000" stroke-width="4" stroke-linecap="round" stroke-linejoin="round" stroke-miterlimit="10" x1="679.245" y1="780.497" x2="665.315" y2="800.208"/>
	<path fill="none" stroke="#000000" stroke-width="4" stroke-linecap="round" stroke-linejoin="round" stroke-miterlimit="10" d="
		M671.3,791.982c3.417,0,3.979,3.257,7.792,3.208c4.743-0.061,2.856-4.768,8.05-4.634"/>
	<g>
		<defs>
			<path id="SVGID_17_" d="M675.279,818.378c-6.403,0-12.2-2.595-16.396-6.792c-4.196-4.196-6.792-9.993-6.792-16.396
				c0-6.402,2.594-12.197,6.788-16.393c4.196-4.198,9.995-6.795,16.399-6.795c12.806,0,23.188,10.381,23.188,23.188
				S688.085,818.378,675.279,818.378z"/>
		</defs>
		<clipPath id="SVGID_18_">
			<use xlink:href="#SVGID_17_"  overflow="visible"/>
		</clipPath>
		
			<circle clip-path="url(#SVGID_18_)" fill="none" stroke="#000000" stroke-width="4" stroke-linecap="round" stroke-linejoin="round" stroke-miterlimit="10" cx="661.684" cy="778.03" r="5.467"/>
	</g>
</g>
<g id="Pointer">
	<path fill="none" stroke="#000000" stroke-width="4" stroke-linecap="round" stroke-linejoin="round" stroke-miterlimit="10" d="
		M778.883,811.586c-4.528-4.528-6.792-10.462-6.792-16.396c0-5.934,2.264-11.869,6.792-16.396c4.527-4.527,10.459-6.79,16.392-6.792
		c5.936-0.001,11.872,2.263,16.4,6.792c9.055,9.055,9.055,23.737,0,32.792C802.62,820.641,787.938,820.641,778.883,811.586z"/>
	<g>
		<path fill="none" stroke="#000000" stroke-width="4" stroke-linecap="round" stroke-linejoin="round" stroke-miterlimit="10" d="
			M786.512,783.75c2.421-2.421,5.594-3.631,8.767-3.631s6.346,1.211,8.767,3.631c2.42,2.42,3.631,5.592,3.631,8.765
			c0.001,3.174-1.21,6.348-3.631,8.769c-8.628,8.628-7.973,8.978-8.767,8.978c-0.831,0-0.289-0.5-8.767-8.978
			C781.67,796.442,781.67,788.591,786.512,783.75z"/>
		<path fill="none" stroke="#000000" stroke-width="4" stroke-linecap="round" stroke-linejoin="round" stroke-miterlimit="10" d="
			M795.279,797.974L795.279,797.974c-2.927,0-5.299-2.372-5.299-5.299v0c0-2.927,2.372-5.299,5.299-5.299l0,0
			c2.927,0,5.299,2.372,5.299,5.299v0C800.578,795.601,798.206,797.974,795.279,797.974z"/>
	</g>
</g>
<g id="Prize">
	<path fill="none" stroke="#000000" stroke-width="4" stroke-linecap="round" stroke-linejoin="round" stroke-miterlimit="10" d="
		M898.883,811.586c-4.528-4.528-6.792-10.462-6.792-16.396c0-5.934,2.264-11.869,6.792-16.396c4.527-4.527,10.459-6.79,16.392-6.792
		c5.936-0.001,11.872,2.263,16.4,6.792c9.055,9.055,9.055,23.737,0,32.792C922.62,820.641,907.938,820.641,898.883,811.586z"/>
	<g>
		<path fill="none" stroke="#000000" stroke-width="4" stroke-linecap="round" stroke-linejoin="round" stroke-miterlimit="10" d="
			M915.279,799.035L915.279,799.035c-4.347,0-7.87-3.524-7.87-7.87v0c0-4.347,3.524-7.87,7.87-7.87l0,0
			c4.347,0,7.87,3.524,7.87,7.87v0C923.15,795.511,919.626,799.035,915.279,799.035z"/>
		
			<polyline fill="none" stroke="#000000" stroke-width="4" stroke-linecap="round" stroke-linejoin="round" stroke-miterlimit="10" points="
			913.625,799.035 905.941,806.718 904.413,801.203 898.898,799.675 907.409,791.164 		"/>
		<path fill="none" stroke="#000000" stroke-width="4" stroke-linecap="round" stroke-linejoin="round" stroke-miterlimit="10" d="
			M918.81,798.207"/>
		<path fill="none" stroke="#000000" stroke-width="4" stroke-linecap="round" stroke-linejoin="round" stroke-miterlimit="10" d="
			M911.767,791.164"/>
		
			<polyline fill="none" stroke="#000000" stroke-width="4" stroke-linecap="round" stroke-linejoin="round" stroke-miterlimit="10" points="
			923.341,791.356 931.66,799.675 926.145,801.203 924.617,806.718 916.933,799.035 		"/>
		<path fill="none" stroke="#000000" stroke-width="4" stroke-linecap="round" stroke-linejoin="round" stroke-miterlimit="10" d="
			M918.792,791.164"/>
		<path fill="none" stroke="#000000" stroke-width="4" stroke-linecap="round" stroke-linejoin="round" stroke-miterlimit="10" d="
			M911.749,798.207"/>
	</g>
</g>
<g id="Extract">
	<path fill="none" stroke="#000000" stroke-width="4" stroke-linecap="round" stroke-linejoin="round" stroke-miterlimit="10" d="
		M1018.883,811.586c-4.528-4.528-6.792-10.462-6.792-16.396c0-5.934,2.264-11.869,6.792-16.396
		c4.527-4.527,10.459-6.79,16.392-6.792c5.936-0.001,11.872,2.263,16.401,6.792c9.055,9.055,9.055,23.737,0,32.792
		C1042.62,820.641,1027.938,820.641,1018.883,811.586z"/>
	<g>
		
			<polygon fill="none" stroke="#000000" stroke-width="4" stroke-linecap="round" stroke-linejoin="round" stroke-miterlimit="10" points="
			1025.214,793.747 1035.398,783.564 1045.581,793.747 		"/>
		
			<line fill="none" stroke="#000000" stroke-width="4" stroke-linecap="round" stroke-linejoin="round" stroke-miterlimit="10" x1="1025.279" y1="802.354" x2="1045.279" y2="802.354"/>
	</g>
</g>
<g id="Play">
	<path fill="none" stroke="#000000" stroke-width="4" stroke-linecap="round" stroke-linejoin="round" stroke-miterlimit="10" d="
		M58.883,898.794c4.528-4.528,10.462-6.792,16.396-6.792c5.934,0,11.868,2.264,16.396,6.792c4.527,4.527,6.79,10.459,6.791,16.392
		c0.001,5.936-2.263,11.872-6.791,16.4c-9.055,9.055-23.737,9.055-32.792,0C49.827,922.531,49.827,907.849,58.883,898.794z"/>
	
		<polygon fill="none" stroke="#000000" stroke-width="4" stroke-linecap="round" stroke-linejoin="round" stroke-miterlimit="10" points="
		71.445,905.125 81.629,915.309 71.445,925.492 	"/>
</g>
<g id="Pause">
	<path fill="none" stroke="#000000" stroke-width="4" stroke-linecap="round" stroke-linejoin="round" stroke-miterlimit="10" d="
		M179.216,898.794c4.528-4.528,10.462-6.792,16.396-6.792c5.934,0,11.868,2.264,16.396,6.792c4.527,4.527,6.79,10.459,6.792,16.392
		c0.001,5.936-2.263,11.872-6.792,16.4c-9.055,9.055-23.737,9.055-32.792,0C170.161,922.531,170.161,907.849,179.216,898.794z"/>
	<g>
		
			<line fill="none" stroke="#000000" stroke-width="4" stroke-linecap="round" stroke-linejoin="round" stroke-miterlimit="10" x1="190.839" y1="905.19" x2="190.839" y2="925.19"/>
		
			<line fill="none" stroke="#000000" stroke-width="4" stroke-linecap="round" stroke-linejoin="round" stroke-miterlimit="10" x1="200.385" y1="905.19" x2="200.385" y2="925.19"/>
	</g>
</g>
<g id="Stop">
	<path fill="none" stroke="#000000" stroke-width="4" stroke-linecap="round" stroke-linejoin="round" stroke-miterlimit="10" d="
		M298.883,898.794c4.528-4.528,10.462-6.792,16.396-6.792s11.868,2.264,16.396,6.792c4.527,4.527,6.79,10.459,6.792,16.392
		c0.001,5.936-2.263,11.872-6.792,16.4c-9.055,9.055-23.737,9.055-32.792,0C289.827,922.531,289.827,907.849,298.883,898.794z"/>
	
		<rect x="305.092" y="905.19" fill="none" stroke="#000000" stroke-width="4" stroke-linecap="round" stroke-linejoin="round" stroke-miterlimit="10" width="20" height="20"/>
</g>
<g id="Forward">
	<path fill="none" stroke="#000000" stroke-width="4" stroke-linecap="round" stroke-linejoin="round" stroke-miterlimit="10" d="
		M419.216,898.794c4.528-4.528,10.462-6.792,16.396-6.792s11.868,2.264,16.396,6.792c4.527,4.527,6.79,10.459,6.791,16.392
		c0.001,5.936-2.263,11.872-6.791,16.4c-9.055,9.055-23.737,9.055-32.792,0C410.161,922.531,410.161,907.849,419.216,898.794z"/>
	
		<polygon fill="none" stroke="#000000" stroke-width="4" stroke-linecap="round" stroke-linejoin="round" stroke-miterlimit="10" points="
		423.445,905.125 433.629,915.309 423.445,925.492 	"/>
	
		<polygon fill="none" stroke="#000000" stroke-width="4" stroke-linecap="round" stroke-linejoin="round" stroke-miterlimit="10" points="
		440.445,905.125 450.629,915.309 440.445,925.492 	"/>
</g>
<g id="Reverse">
	<path fill="none" stroke="#000000" stroke-width="4" stroke-linecap="round" stroke-linejoin="round" stroke-miterlimit="10" d="
		M572.008,931.586c-4.528,4.528-10.462,6.792-16.396,6.792c-5.934,0-11.868-2.264-16.396-6.792
		c-4.527-4.527-6.79-10.459-6.791-16.392c-0.001-5.936,2.263-11.872,6.791-16.4c9.055-9.055,23.737-9.055,32.792,0
		C581.064,907.849,581.064,922.531,572.008,931.586z"/>
	
		<polygon fill="none" stroke="#000000" stroke-width="4" stroke-linecap="round" stroke-linejoin="round" stroke-miterlimit="10" points="
		567.779,925.255 557.595,915.071 567.779,904.888 	"/>
	
		<polygon fill="none" stroke="#000000" stroke-width="4" stroke-linecap="round" stroke-linejoin="round" stroke-miterlimit="10" points="
		550.779,925.255 540.595,915.071 550.779,904.888 	"/>
</g>
<g id="Next_1_">
	<path fill="none" stroke="#000000" stroke-width="4" stroke-linecap="round" stroke-linejoin="round" stroke-miterlimit="10" d="
		M658.883,898.794c4.528-4.528,10.462-6.792,16.396-6.792c5.934,0,11.869,2.264,16.396,6.792c4.527,4.527,6.79,10.459,6.792,16.392
		c0.001,5.936-2.263,11.872-6.792,16.4c-9.055,9.055-23.737,9.055-32.792,0C649.827,922.531,649.827,907.849,658.883,898.794z"/>
	<g>
		
			<polygon fill="none" stroke="#000000" stroke-width="4" stroke-linecap="round" stroke-linejoin="round" stroke-miterlimit="10" points="
			676.721,905.125 686.905,915.309 676.721,925.492 		"/>
		
			<line fill="none" stroke="#000000" stroke-width="4" stroke-linecap="round" stroke-linejoin="round" stroke-miterlimit="10" x1="668.115" y1="905.19" x2="668.115" y2="925.19"/>
	</g>
</g>
<g id="Last_1_">
	<path fill="none" stroke="#000000" stroke-width="4" stroke-linecap="round" stroke-linejoin="round" stroke-miterlimit="10" d="
		M811.675,931.586c-4.528,4.528-10.462,6.792-16.396,6.792c-5.934,0-11.869-2.264-16.396-6.792
		c-4.527-4.527-6.79-10.459-6.792-16.392c-0.001-5.936,2.263-11.872,6.792-16.4c9.055-9.055,23.737-9.055,32.792,0
		S820.73,922.531,811.675,931.586z"/>
	<g>
		
			<polygon fill="none" stroke="#000000" stroke-width="4" stroke-linecap="round" stroke-linejoin="round" stroke-miterlimit="10" points="
			793.836,925.255 783.653,915.071 793.836,904.888 		"/>
		
			<line fill="none" stroke="#000000" stroke-width="4" stroke-linecap="round" stroke-linejoin="round" stroke-miterlimit="10" x1="802.443" y1="925.19" x2="802.443" y2="905.19"/>
	</g>
</g>
<g id="Empty_x5F_Basket">
	<path fill="none" stroke="#000000" stroke-width="4" stroke-linecap="round" stroke-linejoin="round" stroke-miterlimit="10" d="
		M898.883,898.794c4.528-4.528,10.462-6.792,16.396-6.792c5.934,0,11.869,2.264,16.396,6.792c4.527,4.527,6.79,10.459,6.792,16.392
		c0.001,5.936-2.263,11.872-6.792,16.4c-9.055,9.055-23.737,9.055-32.792,0C889.827,922.531,889.827,907.849,898.883,898.794z"/>
	
		<polyline fill="none" stroke="#000000" stroke-width="4" stroke-linecap="round" stroke-linejoin="round" stroke-miterlimit="10" points="
		900.092,910.19 903.092,910.19 907.092,925.19 923.092,925.19 925.517,920.34 	"/>
	<circle cx="909.529" cy="930.065" r="2"/>
	<circle cx="920.654" cy="930.065" r="2"/>
</g>
<g id="Add_x5F_Basket">
	<path fill="none" stroke="#000000" stroke-width="4" stroke-linecap="round" stroke-linejoin="round" stroke-miterlimit="10" d="
		M1018.883,898.794c4.528-4.528,10.462-6.792,16.396-6.792s11.868,2.264,16.396,6.792c4.527,4.527,6.79,10.459,6.792,16.392
		c0.001,5.936-2.263,11.872-6.792,16.4c-9.055,9.055-23.737,9.055-32.792,0C1009.827,922.531,1009.827,907.849,1018.883,898.794z"/>
	
		<polyline fill="none" stroke="#000000" stroke-width="4" stroke-linecap="round" stroke-linejoin="round" stroke-miterlimit="10" points="
		1020.092,910.19 1023.092,910.19 1027.092,925.19 1043.092,925.19 1045.517,920.34 	"/>
	<circle cx="1029.529" cy="930.065" r="2"/>
	<circle cx="1040.654" cy="930.065" r="2"/>
	<g>
		<path fill="none" stroke="#000000" stroke-width="4" stroke-linecap="round" stroke-linejoin="round" stroke-miterlimit="10" d="
			M1028.497,906.848c3.537,3.536,2.681,2.681,5.259,5.258c0.781,0.781,2.044,0.777,2.825-0.004l5.106-5.105"/>
		
			<line fill="none" stroke="#000000" stroke-width="4" stroke-linecap="round" stroke-linejoin="round" stroke-miterlimit="10" x1="1035.092" y1="901.332" x2="1035.092" y2="912.672"/>
	</g>
</g>
<g id="Delete_x5F_Basket">
	<path fill="none" stroke="#000000" stroke-width="4" stroke-linecap="round" stroke-linejoin="round" stroke-miterlimit="10" d="
		M58.883,1018.794c4.528-4.528,10.462-6.792,16.396-6.792c5.934,0,11.868,2.264,16.396,6.792c4.527,4.527,6.79,10.459,6.791,16.392
		c0.001,5.936-2.263,11.872-6.791,16.4c-9.055,9.055-23.737,9.055-32.792,0C49.827,1042.531,49.827,1027.849,58.883,1018.794z"/>
	
		<polyline fill="none" stroke="#000000" stroke-width="4" stroke-linecap="round" stroke-linejoin="round" stroke-miterlimit="10" points="
		60.092,1030.19 63.092,1030.19 67.092,1045.19 83.092,1045.19 85.517,1040.34 	"/>
	<circle cx="69.529" cy="1050.065" r="2"/>
	<circle cx="80.654" cy="1050.065" r="2"/>
	<g>
		<path fill="none" stroke="#000000" stroke-width="4" stroke-linecap="round" stroke-linejoin="round" stroke-miterlimit="10" d="
			M81.686,1027.175c-3.537-3.536-2.681-2.681-5.259-5.258c-0.781-0.781-2.044-0.777-2.825,0.004l-5.106,5.105"/>
		
			<line fill="none" stroke="#000000" stroke-width="4" stroke-linecap="round" stroke-linejoin="round" stroke-miterlimit="10" x1="75.092" y1="1032.69" x2="75.092" y2="1021.351"/>
	</g>
</g>
<g id="Error_x5F_Basket">
	<path fill="none" stroke="#000000" stroke-width="4" stroke-linecap="round" stroke-linejoin="round" stroke-miterlimit="10" d="
		M178.883,1018.794c4.528-4.528,10.462-6.792,16.396-6.792c5.934,0,11.868,2.264,16.396,6.792c4.527,4.527,6.79,10.459,6.791,16.392
		c0.001,5.936-2.263,11.872-6.791,16.4c-9.055,9.055-23.737,9.055-32.792,0C169.827,1042.531,169.827,1027.849,178.883,1018.794z"/>
	
		<polyline fill="none" stroke="#000000" stroke-width="4" stroke-linecap="round" stroke-linejoin="round" stroke-miterlimit="10" points="
		180.092,1030.19 183.092,1030.19 187.092,1045.19 203.092,1045.19 205.517,1040.34 	"/>
	<circle cx="189.529" cy="1050.065" r="2"/>
	<circle cx="200.654" cy="1050.065" r="2"/>
	<g>
		
			<line fill="none" stroke="#000000" stroke-width="4" stroke-linecap="round" stroke-linejoin="round" stroke-miterlimit="10" x1="199.7" y1="1031.728" x2="190.484" y2="1022.512"/>
		
			<line fill="none" stroke="#000000" stroke-width="4" stroke-linecap="round" stroke-linejoin="round" stroke-miterlimit="10" x1="199.7" y1="1022.512" x2="190.484" y2="1031.728"/>
	</g>
</g>
<g id="OK_x5F_Basket">
	<path fill="none" stroke="#000000" stroke-width="4" stroke-linecap="round" stroke-linejoin="round" stroke-miterlimit="10" d="
		M298.883,1018.794c4.528-4.528,10.462-6.792,16.396-6.792s11.868,2.264,16.396,6.792c4.527,4.527,6.79,10.459,6.792,16.392
		c0.001,5.936-2.263,11.872-6.792,16.4c-9.055,9.055-23.737,9.055-32.792,0C289.827,1042.531,289.827,1027.849,298.883,1018.794z"/>
	
		<polyline fill="none" stroke="#000000" stroke-width="4" stroke-linecap="round" stroke-linejoin="round" stroke-miterlimit="10" points="
		300.092,1030.19 303.092,1030.19 307.092,1045.19 323.092,1045.19 325.517,1040.34 	"/>
	<circle cx="309.529" cy="1050.065" r="2"/>
	<circle cx="320.654" cy="1050.065" r="2"/>
	<g>
		<path fill="none" stroke="#000000" stroke-width="4" stroke-linecap="round" stroke-linejoin="round" stroke-miterlimit="10" d="
			M309.457,1026.881c1.374,1.374,2.205,2.206,3.207,3.207c0.303,0.303,0.794,0.302,1.097-0.001l7.58-7.58"/>
	</g>
</g>
</svg>
