<?xml version="1.0" encoding="utf-8"?>
<!-- Generator: Adobe Illustrator 19.2.1, SVG Export Plug-In . SVG Version: 6.00 Build 0)  -->
<!DOCTYPE svg PUBLIC "-//W3C//DTD SVG 1.1//EN" "http://www.w3.org/Graphics/SVG/1.1/DTD/svg11.dtd">
<svg version="1.1" xmlns="http://www.w3.org/2000/svg" xmlns:xlink="http://www.w3.org/1999/xlink" x="0px" y="0px" width="100px"
	 height="100px" viewBox="0 0 100 100" enable-background="new 0 0 100 100" xml:space="preserve">
<g id="No_x5F_Sound">
</g>
<g id="Sound_x5F_Low">
</g>
<g id="Sound_x5F_Mid">
</g>
<g id="Sound_x5F_High">
</g>
<g id="List">
</g>
<g id="List_x5F_OK">
</g>
<g id="List_x5F_Fail">
</g>
<g id="Center">
</g>
<g id="Credit_x5F_Card">
</g>
<g id="Mail_x5F_Close">
</g>
<g id="Mail_x5F_Open">
</g>
<g id="Mail_x5F_Open_x5F_Card">
</g>
<g id="Receiving">
</g>
<g id="Sending">
</g>
<g id="Checking">
</g>
<g id="Alarm">
</g>
<g id="Alarm_x21_">
</g>
<g id="Pointer">
</g>
<g id="Calendar">
</g>
<g id="Calendar_x5F_OK">
</g>
<g id="Calendar_x5F_KO">
</g>
<g id="Calendar_x5F_Add">
</g>
<g id="Laptop">
</g>
<g id="iPod">
</g>
<g id="Tablet">
</g>
<g id="Mobile">
</g>
<g id="Display">
</g>
<g id="Battery_x5F_Death">
</g>
<g id="Battery_x5F_Low">
</g>
<g id="Battery_x5F_Mid">
</g>
<g id="Battery_x5F_High">
</g>
<g id="Battery_x5F_Full">
</g>
<g id="Battery_x5F_Charging">
</g>
<g id="Document">
</g>
<g id="Document_x5F_OK">
</g>
<g id="Document_x5F_KO">
</g>
<g id="Document_x5F_Add">
</g>
<g id="Document_x5F_Download">
</g>
<g id="Document_x5F_Upload">
</g>
<g id="Weather_x5F_Sun">
</g>
<g id="Weather_x5F_SunCloud">
</g>
<g id="Weather_x5F_Cloud">
</g>
<g id="Weather_x5F_Rain">
</g>
<g id="Weather_x5F_Storm">
</g>
<g id="Weather_x5F_Snow">
</g>
<g id="Moon_x5F_01">
</g>
<g id="Moon_x5F_02">
</g>
<g id="Moon_x5F_03">
</g>
<g id="Moon_x5F_04">
</g>
<g id="Earphones">
</g>
<g id="Cloud_x5F_upload">
</g>
<g id="Cloud_x5F_download">
</g>
<g id="Cloud_x5F_OK">
</g>
<g id="Cloud_x5F_KO">
</g>
<g id="Mouse">
</g>
<g id="Wacom">
</g>
<g id="iWatch">
</g>
<g id="MotoWatch">
</g>
<g id="CardBoard">
</g>
<g id="Penrive">
</g>
<g id="Action_x5F_Cam">
</g>
<g id="Prize">
</g>
<g id="Shield">
	<path fill="none" stroke="#000000" stroke-width="4" stroke-linecap="round" stroke-linejoin="round" stroke-miterlimit="10" d="
		M32.833,55c0-5.675,1.526-18.264,4.059-22.838c0.495-0.895,1.516-1.351,2.506-1.098c0.812,0.207,1.925,0.4,3.259,0.4
		c3.651,0,5.495-1.317,6.422-2.55c0.439-0.584,1.322-0.585,1.75,0.007c0.918,1.269,2.847,2.64,6.901,2.64
		c1.358,0,2.448-0.184,3.237-0.387c0.996-0.256,2.025,0.19,2.523,1.09c2.528,4.561,4.05,17.068,4.05,22.736
		c0,12.806-17.354,18.188-17.354,18.188S32.833,67.806,32.833,55z"/>
	<g>
		<defs>
			<path id="SVGID_21_" d="M32.833,55c0-5.675,1.526-18.264,4.059-22.838c0.495-0.895,1.516-1.351,2.506-1.098
				c0.812,0.207,1.925,0.4,3.259,0.4c3.651,0,5.495-1.317,6.422-2.55c0.439-0.584,1.322-0.585,1.75,0.007
				c0.918,1.269,2.847,2.64,6.901,2.64c1.358,0,2.448-0.184,3.237-0.387c0.996-0.256,2.025,0.19,2.523,1.09
				c2.528,4.561,4.05,17.068,4.05,22.736c0,12.806-17.354,18.188-17.354,18.188S32.833,67.806,32.833,55z"/>
		</defs>
		<clipPath id="SVGID_2_">
			<use xlink:href="#SVGID_21_"  overflow="visible"/>
		</clipPath>
		<g clip-path="url(#SVGID_2_)">
			
				<line fill="none" stroke="#000000" stroke-width="4" stroke-linecap="round" stroke-linejoin="round" stroke-miterlimit="10" x1="82.438" y1="3.849" x2="51.95" y2="34.337"/>
			
				<line fill="none" stroke="#000000" stroke-width="4" stroke-linecap="round" stroke-linejoin="round" stroke-miterlimit="10" x1="82.438" y1="13.849" x2="51.95" y2="44.337"/>
			
				<line fill="none" stroke="#000000" stroke-width="4" stroke-linecap="round" stroke-linejoin="round" stroke-miterlimit="10" x1="82.438" y1="23.849" x2="51.95" y2="54.337"/>
			
				<line fill="none" stroke="#000000" stroke-width="4" stroke-linecap="round" stroke-linejoin="round" stroke-miterlimit="10" x1="82.438" y1="33.849" x2="51.95" y2="64.337"/>
			
				<line fill="none" stroke="#000000" stroke-width="4" stroke-linecap="round" stroke-linejoin="round" stroke-miterlimit="10" x1="82.438" y1="43.849" x2="51.95" y2="74.337"/>
		</g>
	</g>
</g>
<g id="Health">
</g>
<g id="Sound">
</g>
<g id="Stats">
</g>
<g id="Bag">
</g>
<g id="Camera">
</g>
<g id="Photo">
</g>
<g id="Chat">
</g>
<g id="Chat_x5F_2">
</g>
<g id="Documents">
</g>
<g id="Tag">
</g>
<g id="Games">
</g>
<g id="Wereable">
</g>
</svg>
