<?xml version="1.0" encoding="utf-8"?>
<!-- Generator: Adobe Illustrator 19.2.1, SVG Export Plug-In . SVG Version: 6.00 Build 0)  -->
<!DOCTYPE svg PUBLIC "-//W3C//DTD SVG 1.1//EN" "http://www.w3.org/Graphics/SVG/1.1/DTD/svg11.dtd">
<svg version="1.1" xmlns="http://www.w3.org/2000/svg" xmlns:xlink="http://www.w3.org/1999/xlink" x="0px" y="0px" width="100px"
	 height="100px" viewBox="0 0 100 100" enable-background="new 0 0 100 100" xml:space="preserve">
<g id="No_x5F_Sound">
</g>
<g id="Sound_x5F_Low">
</g>
<g id="Sound_x5F_Mid">
</g>
<g id="Sound_x5F_High">
</g>
<g id="List">
</g>
<g id="List_x5F_OK">
</g>
<g id="List_x5F_Fail">
</g>
<g id="Center">
</g>
<g id="Credit_x5F_Card">
</g>
<g id="Mail_x5F_Close">
</g>
<g id="Mail_x5F_Open">
</g>
<g id="Mail_x5F_Open_x5F_Card">
</g>
<g id="Receiving">
</g>
<g id="Sending">
</g>
<g id="Checking">
</g>
<g id="Alarm">
</g>
<g id="Alarm_x21_">
</g>
<g id="Pointer">
</g>
<g id="Calendar">
</g>
<g id="Calendar_x5F_OK">
</g>
<g id="Calendar_x5F_KO">
</g>
<g id="Calendar_x5F_Add">
</g>
<g id="Laptop">
</g>
<g id="iPod">
</g>
<g id="Tablet">
</g>
<g id="Mobile">
</g>
<g id="Display">
</g>
<g id="Battery_x5F_Death">
</g>
<g id="Battery_x5F_Low">
</g>
<g id="Battery_x5F_Mid">
</g>
<g id="Battery_x5F_High">
</g>
<g id="Battery_x5F_Full">
</g>
<g id="Battery_x5F_Charging">
</g>
<g id="Document">
</g>
<g id="Document_x5F_OK">
</g>
<g id="Document_x5F_KO">
</g>
<g id="Document_x5F_Add">
</g>
<g id="Document_x5F_Download">
</g>
<g id="Document_x5F_Upload">
</g>
<g id="Weather_x5F_Sun">
</g>
<g id="Weather_x5F_SunCloud">
</g>
<g id="Weather_x5F_Cloud">
</g>
<g id="Weather_x5F_Rain">
</g>
<g id="Weather_x5F_Storm">
</g>
<g id="Weather_x5F_Snow">
</g>
<g id="Moon_x5F_01">
</g>
<g id="Moon_x5F_02">
</g>
<g id="Moon_x5F_03">
</g>
<g id="Moon_x5F_04">
</g>
<g id="Earphones">
	<g>
		<path fill="none" stroke="#000000" stroke-width="4" stroke-linecap="round" stroke-linejoin="round" stroke-miterlimit="10" d="
			M27,62.911V50c0-6.403,2.595-12.2,6.791-16.396c4.196-4.196,9.993-6.792,16.396-6.792c6.402,0,12.197,2.594,16.393,6.788
			c4.198,4.196,6.795,9.995,6.795,16.399v13.793"/>
		<path fill="none" stroke="#000000" stroke-width="4" stroke-linecap="round" stroke-linejoin="round" stroke-miterlimit="10" d="
			M33.791,33.604c0,5.479,5.154,3.678,5.154,3.678c2.877-2.877,6.852-4.657,11.242-4.657c4.389,0,8.363,1.779,11.24,4.654
			c0,0,5.573,1.471,4.401-4.401"/>
		<path fill="none" stroke="#000000" stroke-width="4" stroke-linecap="round" stroke-linejoin="round" stroke-miterlimit="10" d="
			M27,62.911c0-4.363,2.659-8.104,6.445-9.692c1.934-0.811,4.06,0.711,4.06,2.808l0,6.884v6.884c0,2.097-2.126,3.619-4.06,2.808
			C29.659,71.015,27,67.274,27,62.911z"/>
		<path fill="none" stroke="#000000" stroke-width="4" stroke-linecap="round" stroke-linejoin="round" stroke-miterlimit="10" d="
			M73.375,62.911c0,4.363-2.659,8.104-6.445,9.692c-1.934,0.811-4.06-0.711-4.06-2.808v-6.884v-6.884
			c0-2.097,2.126-3.619,4.06-2.808C70.716,54.807,73.375,58.549,73.375,62.911z"/>
	</g>
</g>
<g id="Cloud_x5F_upload">
</g>
<g id="Cloud_x5F_download">
</g>
<g id="Cloud_x5F_OK">
</g>
<g id="Cloud_x5F_KO">
</g>
<g id="Mouse">
</g>
<g id="Wacom">
</g>
<g id="iWatch">
</g>
<g id="MotoWatch">
</g>
<g id="CardBoard">
</g>
<g id="Penrive">
</g>
<g id="Action_x5F_Cam">
</g>
<g id="Prize">
</g>
<g id="Shield">
</g>
<g id="Health">
</g>
<g id="Sound">
</g>
<g id="Stats">
</g>
<g id="Bag">
</g>
<g id="Camera">
</g>
<g id="Photo">
</g>
<g id="Chat">
</g>
<g id="Chat_x5F_2">
</g>
<g id="Documents">
</g>
<g id="Tag">
</g>
<g id="Games">
</g>
<g id="Wereable">
</g>
</svg>
