<?xml version="1.0" encoding="utf-8"?>
<!-- Generator: Adobe Illustrator 19.2.1, SVG Export Plug-In . SVG Version: 6.00 Build 0)  -->
<!DOCTYPE svg PUBLIC "-//W3C//DTD SVG 1.1//EN" "http://www.w3.org/Graphics/SVG/1.1/DTD/svg11.dtd">
<svg version="1.1" xmlns="http://www.w3.org/2000/svg" xmlns:xlink="http://www.w3.org/1999/xlink" x="0px" y="0px" width="100px"
	 height="100px" viewBox="0 0 100 100" enable-background="new 0 0 100 100" xml:space="preserve">
<g id="No_x5F_Sound">
</g>
<g id="Sound_x5F_Low">
</g>
<g id="Sound_x5F_Mid">
</g>
<g id="Sound_x5F_High">
</g>
<g id="List">
</g>
<g id="List_x5F_OK">
</g>
<g id="List_x5F_Fail">
</g>
<g id="Center">
</g>
<g id="Credit_x5F_Card">
</g>
<g id="Mail_x5F_Close">
</g>
<g id="Mail_x5F_Open">
</g>
<g id="Mail_x5F_Open_x5F_Card">
</g>
<g id="Receiving">
</g>
<g id="Sending">
</g>
<g id="Checking">
</g>
<g id="Alarm">
</g>
<g id="Alarm_x21_">
</g>
<g id="Pointer">
</g>
<g id="Calendar">
	<path fill="none" stroke="#000000" stroke-width="4" stroke-linecap="round" stroke-linejoin="round" stroke-miterlimit="10" d="
		M62.687,72.5H36.999c-3.314,0-6-2.686-6-6V40.812c0-3.314,2.686-6,6-6h25.688c3.314,0,6,2.686,6,6V66.5
		C68.687,69.814,66.001,72.5,62.687,72.5z"/>
	<g>
		
			<line fill="none" stroke="#000000" stroke-width="4" stroke-linecap="round" stroke-linejoin="round" stroke-miterlimit="10" x1="40.843" y1="29" x2="40.843" y2="39.5"/>
		
			<line fill="none" stroke="#000000" stroke-width="4" stroke-linecap="round" stroke-linejoin="round" stroke-miterlimit="10" x1="49.843" y1="29" x2="49.843" y2="39.5"/>
		
			<line fill="none" stroke="#000000" stroke-width="4" stroke-linecap="round" stroke-linejoin="round" stroke-miterlimit="10" x1="58.843" y1="29" x2="58.843" y2="39.5"/>
	</g>
	<g>
		<path d="M47.849,62.417h-7.583c-0.803,0-1.455-0.651-1.455-1.455v0c0-0.37,0.141-0.726,0.394-0.995l4.435-4.728
			c0.663-0.725,1.153-1.356,1.472-1.896c0.317-0.54,0.477-1.053,0.477-1.539c0-0.662-0.168-1.184-0.502-1.563
			c-0.336-0.379-0.814-0.569-1.436-0.569c-0.671,0-1.198,0.231-1.585,0.692c-0.194,0.233-0.34,0.502-0.436,0.808
			c-0.19,0.601-0.743,1.013-1.373,1.013h0c-1.013,0-1.752-1.031-1.356-1.963c0.077-0.18,0.165-0.356,0.264-0.528
			c0.434-0.752,1.047-1.342,1.84-1.77c0.793-0.427,1.692-0.641,2.697-0.641c1.538,0,2.732,0.369,3.584,1.107
			c0.851,0.738,1.276,1.781,1.276,3.127c0,0.738-0.191,1.491-0.574,2.256c-0.383,0.767-1.039,1.658-1.969,2.677l-3.394,3.579h5.224
			c0.66,0,1.194,0.535,1.194,1.194l0,0C49.043,61.882,48.508,62.417,47.849,62.417z"/>
		<path d="M53.873,54.798c0-0.64,0.519-1.159,1.159-1.159h0.421c0.751,0,1.309-0.188,1.671-0.564
			c0.362-0.375,0.544-0.874,0.544-1.496c0-0.602-0.18-1.07-0.539-1.405c-0.358-0.335-0.853-0.503-1.481-0.503
			c-0.567,0-1.043,0.156-1.425,0.467c-0.156,0.127-0.28,0.269-0.373,0.427c-0.268,0.459-0.71,0.788-1.242,0.788h-0.124
			c-1.066,0-1.775-1.193-1.181-2.078c0.004-0.006,0.008-0.012,0.013-0.019c0.42-0.618,1.008-1.103,1.764-1.45
			c0.755-0.35,1.587-0.523,2.497-0.523c1.578,0,2.815,0.378,3.711,1.133c0.896,0.756,1.344,1.797,1.344,3.123
			c0,0.684-0.209,1.312-0.625,1.887c-0.418,0.574-0.965,1.015-1.641,1.322c0.84,0.301,1.468,0.752,1.881,1.354
			c0.414,0.602,0.621,1.312,0.621,2.133c0,1.326-0.484,2.389-1.451,3.189c-0.968,0.799-2.248,1.199-3.84,1.199
			c-1.491,0-2.709-0.393-3.656-1.18c-0.323-0.268-0.591-0.566-0.804-0.893c-0.621-0.956,0.093-2.224,1.233-2.224l0,0
			c0.566,0,1.048,0.346,1.312,0.846c0.104,0.196,0.248,0.373,0.433,0.529c0.421,0.355,0.938,0.533,1.554,0.533
			c0.704,0,1.256-0.187,1.656-0.56c0.399-0.372,0.6-0.866,0.6-1.481c0-1.49-0.82-2.235-2.461-2.235h-0.411
			C54.392,55.957,53.873,55.438,53.873,54.798L53.873,54.798z"/>
	</g>
</g>
<g id="Calendar_x5F_OK">
</g>
<g id="Calendar_x5F_KO">
</g>
<g id="Calendar_x5F_Add">
</g>
<g id="Laptop">
</g>
<g id="iPod">
</g>
<g id="Tablet">
</g>
<g id="Mobile">
</g>
<g id="Display">
</g>
<g id="Battery_x5F_Death">
</g>
<g id="Battery_x5F_Low">
</g>
<g id="Battery_x5F_Mid">
</g>
<g id="Battery_x5F_High">
</g>
<g id="Battery_x5F_Full">
</g>
<g id="Battery_x5F_Charging">
</g>
<g id="Document">
</g>
<g id="Document_x5F_OK">
</g>
<g id="Document_x5F_KO">
</g>
<g id="Document_x5F_Add">
</g>
<g id="Document_x5F_Download">
</g>
<g id="Document_x5F_Upload">
</g>
<g id="Weather_x5F_Sun">
</g>
<g id="Weather_x5F_SunCloud">
</g>
<g id="Weather_x5F_Cloud">
</g>
<g id="Weather_x5F_Rain">
</g>
<g id="Weather_x5F_Storm">
</g>
<g id="Weather_x5F_Snow">
</g>
<g id="Moon_x5F_01">
</g>
<g id="Moon_x5F_02">
</g>
<g id="Moon_x5F_03">
</g>
<g id="Moon_x5F_04">
</g>
<g id="Earphones">
</g>
<g id="Cloud_x5F_upload">
</g>
<g id="Cloud_x5F_download">
</g>
<g id="Cloud_x5F_OK">
</g>
<g id="Cloud_x5F_KO">
</g>
<g id="Mouse">
</g>
<g id="Wacom">
</g>
<g id="iWatch">
</g>
<g id="MotoWatch">
</g>
<g id="CardBoard">
</g>
<g id="Penrive">
</g>
<g id="Action_x5F_Cam">
</g>
<g id="Prize">
</g>
<g id="Shield">
</g>
<g id="Health">
</g>
<g id="Sound">
</g>
<g id="Stats">
</g>
<g id="Bag">
</g>
<g id="Camera">
</g>
<g id="Photo">
</g>
<g id="Chat">
</g>
<g id="Chat_x5F_2">
</g>
<g id="Documents">
</g>
<g id="Tag">
</g>
<g id="Games">
</g>
<g id="Wereable">
</g>
</svg>
