<?xml version="1.0" encoding="utf-8"?>
<!-- Generator: Adobe Illustrator 19.2.1, SVG Export Plug-In . SVG Version: 6.00 Build 0)  -->
<!DOCTYPE svg PUBLIC "-//W3C//DTD SVG 1.1//EN" "http://www.w3.org/Graphics/SVG/1.1/DTD/svg11.dtd">
<svg version="1.1" xmlns="http://www.w3.org/2000/svg" xmlns:xlink="http://www.w3.org/1999/xlink" x="0px" y="0px" width="100px"
	 height="100px" viewBox="0 0 100 100" enable-background="new 0 0 100 100" xml:space="preserve">
<g id="No_x5F_Sound">
</g>
<g id="Sound_x5F_Low">
</g>
<g id="Sound_x5F_Mid">
</g>
<g id="Sound_x5F_High">
</g>
<g id="List">
</g>
<g id="List_x5F_OK">
</g>
<g id="List_x5F_Fail">
</g>
<g id="Center">
</g>
<g id="Credit_x5F_Card">
</g>
<g id="Mail_x5F_Close">
</g>
<g id="Mail_x5F_Open">
</g>
<g id="Mail_x5F_Open_x5F_Card">
</g>
<g id="Receiving">
</g>
<g id="Sending">
</g>
<g id="Checking">
</g>
<g id="Alarm">
</g>
<g id="Alarm_x21_">
</g>
<g id="Pointer">
</g>
<g id="Calendar">
</g>
<g id="Calendar_x5F_OK">
</g>
<g id="Calendar_x5F_KO">
</g>
<g id="Calendar_x5F_Add">
</g>
<g id="Laptop">
</g>
<g id="iPod">
</g>
<g id="Tablet">
</g>
<g id="Mobile">
</g>
<g id="Display">
</g>
<g id="Battery_x5F_Death">
</g>
<g id="Battery_x5F_Low">
</g>
<g id="Battery_x5F_Mid">
</g>
<g id="Battery_x5F_High">
</g>
<g id="Battery_x5F_Full">
</g>
<g id="Battery_x5F_Charging">
</g>
<g id="Document">
</g>
<g id="Document_x5F_OK">
</g>
<g id="Document_x5F_KO">
</g>
<g id="Document_x5F_Add">
</g>
<g id="Document_x5F_Download">
</g>
<g id="Document_x5F_Upload">
</g>
<g id="Weather_x5F_Sun">
</g>
<g id="Weather_x5F_SunCloud">
</g>
<g id="Weather_x5F_Cloud">
</g>
<g id="Weather_x5F_Rain">
</g>
<g id="Weather_x5F_Storm">
</g>
<g id="Weather_x5F_Snow">
</g>
<g id="Moon_x5F_01">
</g>
<g id="Moon_x5F_02">
</g>
<g id="Moon_x5F_03">
</g>
<g id="Moon_x5F_04">
</g>
<g id="Earphones">
</g>
<g id="Cloud_x5F_upload">
</g>
<g id="Cloud_x5F_download">
</g>
<g id="Cloud_x5F_OK">
</g>
<g id="Cloud_x5F_KO">
</g>
<g id="Mouse">
</g>
<g id="Wacom">
</g>
<g id="iWatch">
</g>
<g id="MotoWatch">
</g>
<g id="CardBoard">
</g>
<g id="Penrive">
</g>
<g id="Action_x5F_Cam">
</g>
<g id="Prize">
</g>
<g id="Shield">
</g>
<g id="Health">
</g>
<g id="Sound">
</g>
<g id="Stats">
</g>
<g id="Bag">
</g>
<g id="Camera">
</g>
<g id="Photo">
</g>
<g id="Chat">
</g>
<g id="Chat_x5F_2">
</g>
<g id="Documents">
</g>
<g id="Tag">
</g>
<g id="Games">
</g>
<g id="Wereable">
	<path fill="none" stroke="#000000" stroke-width="4" stroke-linecap="round" stroke-linejoin="round" stroke-miterlimit="10" d="
		M57.239,64.805v1.33c0,3.895-3.157,7.052-7.052,7.052h0c-3.895,0-7.052-3.157-7.052-7.052v-1.222V34.989v-1.124
		c0-3.895,3.157-7.052,7.052-7.052h0c3.895,0,7.052,3.157,7.052,7.052v1.124V64.805z"/>
	<path fill="none" stroke="#000000" stroke-width="4" stroke-linecap="round" stroke-linejoin="round" stroke-miterlimit="10" d="
		M57.239,57.613L57.239,57.613c0,3.305-2.704,6.008-6.008,6.008h-2.112c-3.262,0-5.931-2.669-5.931-5.931v0V42.239v0
		c0-3.223,2.637-5.861,5.861-5.861h2.331c3.223,0,5.861,2.637,5.861,5.861v0V57.613z"/>
	<ellipse transform="matrix(0.7071 -0.7071 0.7071 0.7071 -20.6559 50.1322)" cx="50.187" cy="50" rx="2" ry="2"/>
	<ellipse transform="matrix(0.7071 -0.7071 0.7071 0.7071 -15.7062 48.082)" cx="50.187" cy="43" rx="2" ry="2"/>
	<ellipse transform="matrix(0.7071 -0.7071 0.7071 0.7071 -25.6056 52.1825)" cx="50.187" cy="57" rx="2" ry="2"/>
</g>
</svg>
