<?xml version="1.0" encoding="utf-8"?>
<!-- Generator: Adobe Illustrator 19.2.1, SVG Export Plug-In . SVG Version: 6.00 Build 0)  -->
<!DOCTYPE svg PUBLIC "-//W3C//DTD SVG 1.1//EN" "http://www.w3.org/Graphics/SVG/1.1/DTD/svg11.dtd">
<svg version="1.1" xmlns="http://www.w3.org/2000/svg" xmlns:xlink="http://www.w3.org/1999/xlink" x="0px" y="0px" width="100px"
	 height="100px" viewBox="0 0 100 100" enable-background="new 0 0 100 100" xml:space="preserve">
<g id="No_x5F_Sound">
</g>
<g id="Sound_x5F_Low">
</g>
<g id="Sound_x5F_Mid">
</g>
<g id="Sound_x5F_High">
</g>
<g id="List">
</g>
<g id="List_x5F_OK">
</g>
<g id="List_x5F_Fail">
</g>
<g id="Center">
</g>
<g id="Credit_x5F_Card">
</g>
<g id="Mail_x5F_Close">
</g>
<g id="Mail_x5F_Open">
</g>
<g id="Mail_x5F_Open_x5F_Card">
</g>
<g id="Receiving">
</g>
<g id="Sending">
</g>
<g id="Checking">
</g>
<g id="Alarm">
</g>
<g id="Alarm_x21_">
</g>
<g id="Pointer">
</g>
<g id="Calendar">
</g>
<g id="Calendar_x5F_OK">
</g>
<g id="Calendar_x5F_KO">
</g>
<g id="Calendar_x5F_Add">
</g>
<g id="Laptop">
</g>
<g id="iPod">
</g>
<g id="Tablet">
</g>
<g id="Mobile">
</g>
<g id="Display">
</g>
<g id="Battery_x5F_Death">
</g>
<g id="Battery_x5F_Low">
</g>
<g id="Battery_x5F_Mid">
</g>
<g id="Battery_x5F_High">
</g>
<g id="Battery_x5F_Full">
</g>
<g id="Battery_x5F_Charging">
</g>
<g id="Document">
</g>
<g id="Document_x5F_OK">
</g>
<g id="Document_x5F_KO">
</g>
<g id="Document_x5F_Add">
</g>
<g id="Document_x5F_Download">
</g>
<g id="Document_x5F_Upload">
</g>
<g id="Weather_x5F_Sun">
</g>
<g id="Weather_x5F_SunCloud">
</g>
<g id="Weather_x5F_Cloud">
</g>
<g id="Weather_x5F_Rain">
</g>
<g id="Weather_x5F_Storm">
</g>
<g id="Weather_x5F_Snow">
</g>
<g id="Moon_x5F_01">
</g>
<g id="Moon_x5F_02">
</g>
<g id="Moon_x5F_03">
</g>
<g id="Moon_x5F_04">
</g>
<g id="Earphones">
</g>
<g id="Cloud_x5F_upload">
</g>
<g id="Cloud_x5F_download">
</g>
<g id="Cloud_x5F_OK">
</g>
<g id="Cloud_x5F_KO">
</g>
<g id="Mouse">
</g>
<g id="Wacom">
</g>
<g id="iWatch">
</g>
<g id="MotoWatch">
</g>
<g id="CardBoard">
</g>
<g id="Penrive">
</g>
<g id="Action_x5F_Cam">
	<path fill="none" stroke="#000000" stroke-width="4" stroke-linecap="round" stroke-linejoin="round" stroke-miterlimit="10" d="
		M67.187,73.188H32.812c-3.314,0-6-2.686-6-6V32.812c0-3.314,2.686-6,6-6h34.375c3.314,0,6,2.686,6,6v34.375
		C73.187,70.501,70.501,73.188,67.187,73.188z"/>
	<path fill="none" stroke="#000000" stroke-width="4" stroke-linecap="round" stroke-linejoin="round" stroke-miterlimit="10" d="
		M71.187,52.605H49.395c-1.105,0-2-0.895-2-2V28.813c0-1.105,0.895-2,2-2h16.499c4.028,0,7.293,3.265,7.293,7.293v16.499
		C73.187,51.709,72.292,52.605,71.187,52.605z"/>
	<path fill="none" stroke="#000000" stroke-width="4" stroke-linecap="round" stroke-linejoin="round" stroke-miterlimit="10" d="
		M36.461,60.212L36.461,60.212c-2.482,0-4.513-2.031-4.513-4.513v0c0-2.482,2.031-4.513,4.513-4.513h0
		c2.482,0,4.513,2.031,4.513,4.513v0C40.974,58.181,38.943,60.212,36.461,60.212z"/>
	<path d="M47.395,59.462L47.395,59.462c1.1,0,2,0.9,2,2v0c0,1.1-0.9,2-2,2h0c-1.1,0-2-0.9-2-2v0
		C45.395,60.362,46.295,59.462,47.395,59.462z"/>
	
		<circle fill="#FFFFFF" stroke="#000000" stroke-width="4" stroke-linecap="round" stroke-linejoin="round" stroke-miterlimit="10" cx="60.291" cy="39.709" r="6.823"/>
	<path fill="none" stroke="#000000" stroke-width="4" stroke-linecap="round" stroke-linejoin="round" stroke-miterlimit="10" d="
		M40.717,42.306h-7.421c-0.55,0-1-0.45-1-1v-7.421c0-0.55,0.45-1,1-1h7.421c0.55,0,1,0.45,1,1v7.421
		C41.717,41.856,41.267,42.306,40.717,42.306z"/>
</g>
<g id="Prize">
</g>
<g id="Shield">
</g>
<g id="Health">
</g>
<g id="Sound">
</g>
<g id="Stats">
</g>
<g id="Bag">
</g>
<g id="Camera">
</g>
<g id="Photo">
</g>
<g id="Chat">
</g>
<g id="Chat_x5F_2">
</g>
<g id="Documents">
</g>
<g id="Tag">
</g>
<g id="Games">
</g>
<g id="Wereable">
</g>
</svg>
