<?xml version="1.0" encoding="utf-8"?>
<!-- Generator: Adobe Illustrator 19.2.1, SVG Export Plug-In . SVG Version: 6.00 Build 0)  -->
<!DOCTYPE svg PUBLIC "-//W3C//DTD SVG 1.1//EN" "http://www.w3.org/Graphics/SVG/1.1/DTD/svg11.dtd">
<svg version="1.1" xmlns="http://www.w3.org/2000/svg" xmlns:xlink="http://www.w3.org/1999/xlink" x="0px" y="0px" width="100px"
	 height="100px" viewBox="0 0 100 100" enable-background="new 0 0 100 100" xml:space="preserve">
<g id="No_x5F_Sound">
</g>
<g id="Sound_x5F_Low">
</g>
<g id="Sound_x5F_Mid">
</g>
<g id="Sound_x5F_High">
</g>
<g id="List">
</g>
<g id="List_x5F_OK">
</g>
<g id="List_x5F_Fail">
</g>
<g id="Center">
</g>
<g id="Credit_x5F_Card">
</g>
<g id="Mail_x5F_Close">
</g>
<g id="Mail_x5F_Open">
</g>
<g id="Mail_x5F_Open_x5F_Card">
</g>
<g id="Receiving">
</g>
<g id="Sending">
</g>
<g id="Checking">
</g>
<g id="Alarm">
</g>
<g id="Alarm_x21_">
</g>
<g id="Pointer">
</g>
<g id="Calendar">
</g>
<g id="Calendar_x5F_OK">
</g>
<g id="Calendar_x5F_KO">
</g>
<g id="Calendar_x5F_Add">
</g>
<g id="Laptop">
</g>
<g id="iPod">
</g>
<g id="Tablet">
</g>
<g id="Mobile">
</g>
<g id="Display">
</g>
<g id="Battery_x5F_Death">
</g>
<g id="Battery_x5F_Low">
</g>
<g id="Battery_x5F_Mid">
</g>
<g id="Battery_x5F_High">
</g>
<g id="Battery_x5F_Full">
</g>
<g id="Battery_x5F_Charging">
</g>
<g id="Document">
</g>
<g id="Document_x5F_OK">
</g>
<g id="Document_x5F_KO">
</g>
<g id="Document_x5F_Add">
</g>
<g id="Document_x5F_Download">
</g>
<g id="Document_x5F_Upload">
</g>
<g id="Weather_x5F_Sun">
</g>
<g id="Weather_x5F_SunCloud">
</g>
<g id="Weather_x5F_Cloud">
</g>
<g id="Weather_x5F_Rain">
</g>
<g id="Weather_x5F_Storm">
</g>
<g id="Weather_x5F_Snow">
</g>
<g id="Moon_x5F_01">
</g>
<g id="Moon_x5F_02">
</g>
<g id="Moon_x5F_03">
</g>
<g id="Moon_x5F_04">
</g>
<g id="Earphones">
</g>
<g id="Cloud_x5F_upload">
</g>
<g id="Cloud_x5F_download">
</g>
<g id="Cloud_x5F_OK">
</g>
<g id="Cloud_x5F_KO">
</g>
<g id="Mouse">
</g>
<g id="Wacom">
	<g>
		<path d="M63.829,38.325l-1.183-1.183c-0.781-0.781-0.781-2.047,0-2.828l1.017-1.017c0.781-0.781,2.047-0.781,2.828,0l1.183,1.183
			c0.781,0.781,0.781,2.047,0,2.828l-1.017,1.017C65.877,39.106,64.61,39.106,63.829,38.325z"/>
		<path d="M32.917,68.054L32.917,68.054l0.428-4.44l2.771-2.771c0.672-0.672,1.85-0.584,2.631,0.197l1.183,1.183
			c0.781,0.781,0.869,1.959,0.197,2.631l-2.771,2.771L32.917,68.054z"/>
		<path fill="none" stroke="#000000" stroke-width="4" stroke-miterlimit="10" d="M40.037,63.984l-3.05-3.05
			c-0.781-0.781-0.781-2.047,0-2.828l21.897-21.897c0.781-0.781,2.047-0.781,2.828,0l3.05,3.05c0.781,0.781,0.781,2.047,0,2.828
			L42.866,63.984C42.085,64.765,40.818,64.765,40.037,63.984z"/>
		<line fill="none" stroke="#000000" stroke-width="4" stroke-miterlimit="10" x1="43.253" y1="51.84" x2="49.131" y2="57.719"/>
		<line fill="none" stroke="#000000" stroke-width="4" stroke-miterlimit="10" x1="55.274" y1="39.82" x2="61.152" y2="45.698"/>
	</g>
	<path fill="none" stroke="#000000" stroke-width="4" stroke-linecap="round" stroke-linejoin="round" stroke-miterlimit="10" d="
		M67.375,73.188H33c-3.314,0-6-2.686-6-6V32.812c0-3.314,2.686-6,6-6h34.375c3.314,0,6,2.686,6,6v34.375
		C73.375,70.501,70.688,73.188,67.375,73.188z"/>
	<path d="M34.716,36.938L34.716,36.938c-1.1,0-2-0.9-2-2v0c0-1.1,0.9-2,2-2h0c1.1,0,2,0.9,2,2v0
		C36.716,36.038,35.816,36.938,34.716,36.938z"/>
	<path d="M64.716,66.938L64.716,66.938c-1.1,0-2-0.9-2-2l0,0c0-1.1,0.9-2,2-2l0,0c1.1,0,2,0.9,2,2l0,0
		C66.716,66.037,65.816,66.938,64.716,66.938z"/>
</g>
<g id="iWatch">
</g>
<g id="MotoWatch">
</g>
<g id="CardBoard">
</g>
<g id="Penrive">
</g>
<g id="Action_x5F_Cam">
</g>
<g id="Prize">
</g>
<g id="Shield">
</g>
<g id="Health">
</g>
<g id="Sound">
</g>
<g id="Stats">
</g>
<g id="Bag">
</g>
<g id="Camera">
</g>
<g id="Photo">
</g>
<g id="Chat">
</g>
<g id="Chat_x5F_2">
</g>
<g id="Documents">
</g>
<g id="Tag">
</g>
<g id="Games">
</g>
<g id="Wereable">
</g>
</svg>
