<?xml version="1.0" encoding="utf-8"?>
<!-- Generator: Adobe Illustrator 19.2.1, SVG Export Plug-In . SVG Version: 6.00 Build 0)  -->
<!DOCTYPE svg PUBLIC "-//W3C//DTD SVG 1.1//EN" "http://www.w3.org/Graphics/SVG/1.1/DTD/svg11.dtd">
<svg version="1.1" xmlns="http://www.w3.org/2000/svg" xmlns:xlink="http://www.w3.org/1999/xlink" x="0px" y="0px" width="100px"
	 height="100px" viewBox="0 0 100 100" enable-background="new 0 0 100 100" xml:space="preserve">
<g id="Download_x5F_25_x25_">
</g>
<g id="Download_x5F_50_x25_">
</g>
<g id="Download_x5F_75_x25_">
</g>
<g id="Download_x5F_100_x25_">
</g>
<g id="Upload">
</g>
<g id="Next">
</g>
<g id="Last">
</g>
<g id="OK">
</g>
<g id="Fail">
</g>
<g id="Add">
</g>
<g id="Spinner_x5F_0_x25_">
</g>
<g id="Spinner_x5F_25_x25_">
</g>
<g id="Spinner_x5F_50_x25_">
</g>
<g id="Spinner_x5F_75_x25_">
</g>
<g id="Brightest_x5F_25_x25_">
</g>
<g id="Brightest_x5F_50_x25_">
</g>
<g id="Brightest_x5F_75_x25_">
</g>
<g id="Brightest_x5F_100_x25_">
</g>
<g id="Reload">
</g>
<g id="Forbidden">
</g>
<g id="Clock">
</g>
<g id="Compass">
</g>
<g id="World">
</g>
<g id="Speed">
	
		<circle fill="none" stroke="#000000" stroke-width="4" stroke-linecap="round" stroke-linejoin="round" stroke-miterlimit="10" cx="50.188" cy="50" r="23.188"/>
	<path d="M50.747,35.607c-1.489,0.359-2.796-0.949-2.438-2.438c0.169-0.7,0.743-1.274,1.442-1.442
		c1.489-0.359,2.796,0.949,2.438,2.438C52.02,34.864,51.446,35.438,50.747,35.607z"/>
	<path d="M55.791,36.671c-1.496-0.169-2.277-1.792-1.497-3.059c0.39-0.635,1.149-1.01,1.889-0.926
		c1.496,0.169,2.277,1.792,1.497,3.059C57.29,36.38,56.532,36.755,55.791,36.671z"/>
	<path d="M60.407,39.5c-1.672-0.608-1.863-2.791-0.322-3.679c0.471-0.272,1.063-0.323,1.574-0.138
		c1.672,0.608,1.863,2.791,0.322,3.679C61.51,39.634,60.918,39.686,60.407,39.5z"/>
	<path d="M63.295,43.4c-0.988-1.113-0.501-2.847,0.943-3.273c0.715-0.211,1.527,0.026,2.022,0.584
		c0.988,1.113,0.501,2.847-0.943,3.273C64.602,44.195,63.79,43.958,63.295,43.4z"/>
	<path d="M34.237,60.177c-0.988-1.113-0.501-2.847,0.943-3.273c0.715-0.211,1.527,0.026,2.022,0.584
		c0.988,1.113,0.501,2.847-0.943,3.273C35.544,60.971,34.732,60.734,34.237,60.177z"/>
	<path d="M45.574,36.366c-1.263,0.776-2.88-0.001-3.049-1.492c-0.083-0.738,0.29-1.494,0.923-1.883
		c1.263-0.776,2.88,0.001,3.049,1.492C46.58,35.222,46.207,35.977,45.574,36.366z"/>
	<path d="M41.214,38.528c-0.877,1.522-3.033,1.334-3.633-0.318c-0.183-0.505-0.132-1.089,0.136-1.554
		c0.877-1.522,3.033-1.334,3.633,0.318C41.533,37.478,41.482,38.063,41.214,38.528z"/>
	<path d="M37.63,42.589c-0.422,1.43-2.139,1.912-3.241,0.934c-0.552-0.49-0.787-1.294-0.578-2.002
		c0.422-1.43,2.139-1.912,3.241-0.934C37.604,41.077,37.839,41.881,37.63,42.589z"/>
	<path d="M66.687,59.366c-0.422,1.43-2.139,1.912-3.241,0.934c-0.552-0.49-0.787-1.294-0.578-2.002
		c0.422-1.43,2.139-1.912,3.241-0.934C66.662,57.854,66.896,58.658,66.687,59.366z"/>
	<path d="M35.723,47.377c0.093,1.502-1.369,2.552-2.752,2.005c-0.693-0.274-1.193-0.955-1.24-1.699
		c-0.093-1.502,1.369-2.552,2.752-2.005C35.176,45.952,35.677,46.634,35.723,47.377z"/>
	<path d="M68.766,53.204c0.093,1.502-1.369,2.552-2.752,2.005c-0.693-0.274-1.193-0.955-1.24-1.699
		c-0.093-1.502,1.369-2.552,2.752-2.005C68.22,51.779,68.72,52.46,68.766,53.204z"/>
	<path d="M35.58,52.6c0.547,1.384-0.503,2.846-2.006,2.753c-0.744-0.046-1.426-0.547-1.7-1.24c-0.547-1.384,0.503-2.846,2.006-2.753
		C34.624,51.406,35.306,51.907,35.58,52.6z"/>
	<path d="M68.624,46.774c0.547,1.384-0.503,2.846-2.006,2.753c-0.744-0.046-1.426-0.547-1.7-1.24
		c-0.547-1.384,0.503-2.846,2.006-2.753C67.668,45.58,68.349,46.081,68.624,46.774z"/>
	<g>
		
			<line fill="none" stroke="#000000" stroke-width="4" stroke-linecap="round" stroke-miterlimit="10" x1="49.73" y1="59.192" x2="60.299" y2="48.623"/>
		<path fill="#FFFFFF" stroke="#000000" stroke-width="4" stroke-miterlimit="10" d="M46.152,60.798
			c-1.556-4.644,3.816-7.745,7.06-4.076c0.176,0.199,0.315,0.44,0.4,0.692c1.556,4.644-3.816,7.745-7.06,4.076
			C46.376,61.291,46.237,61.05,46.152,60.798z"/>
	</g>
</g>
<g id="Microphone">
</g>
<g id="Options">
</g>
<g id="Chronometer">
</g>
<g id="Lock">
</g>
<g id="User">
</g>
<g id="Position">
</g>
<g id="No_x5F_Signal">
</g>
<g id="Low_x5F_Signal">
</g>
<g id="Mid_x5F_Signal">
</g>
<g id="High_x5F_Signal">
</g>
<g id="Options_1_">
</g>
<g id="Flash">
</g>
<g id="No_x5F_Signal_x5F_02">
</g>
<g id="Low_x5F_Signal_x5F_02">
</g>
<g id="Mid_x5F_Signal_x5F_02">
</g>
<g id="High_x5F_Signal_x5F_02">
</g>
<g id="Favorite">
</g>
<g id="Search">
</g>
<g id="Stats_x5F_01">
</g>
<g id="Stats_x5F_02">
</g>
<g id="Turn_x5F_On_x5F_Off">
</g>
<g id="Full_x5F_Height">
</g>
<g id="Full_x5F_Width">
</g>
<g id="Full_x5F_Screen">
</g>
<g id="Compress_x5F_Screen">
</g>
<g id="Chat">
</g>
<g id="Bluetooth">
</g>
<g id="Share_x5F_iOS">
</g>
<g id="Share_x5F_Android">
</g>
<g id="Love__x2F__Favorite">
</g>
<g id="Hamburguer">
</g>
<g id="Flying">
</g>
<g id="Take_x5F_Off">
</g>
<g id="Land">
</g>
<g id="City">
</g>
<g id="Nature">
</g>
<g id="Pointer">
</g>
<g id="Prize">
</g>
<g id="Extract">
</g>
<g id="Play">
</g>
<g id="Pause">
</g>
<g id="Stop">
</g>
<g id="Forward">
</g>
<g id="Reverse">
</g>
<g id="Next_1_">
</g>
<g id="Last_1_">
</g>
<g id="Empty_x5F_Basket">
</g>
<g id="Add_x5F_Basket">
</g>
<g id="Delete_x5F_Basket">
</g>
<g id="Error_x5F_Basket">
</g>
<g id="OK_x5F_Basket">
</g>
</svg>
