<?xml version="1.0" encoding="utf-8"?>
<!-- Generator: Adobe Illustrator 19.2.1, SVG Export Plug-In . SVG Version: 6.00 Build 0)  -->
<!DOCTYPE svg PUBLIC "-//W3C//DTD SVG 1.1//EN" "http://www.w3.org/Graphics/SVG/1.1/DTD/svg11.dtd">
<svg version="1.1" xmlns="http://www.w3.org/2000/svg" xmlns:xlink="http://www.w3.org/1999/xlink" x="0px" y="0px" width="100px"
	 height="100px" viewBox="0 0 100 100" enable-background="new 0 0 100 100" xml:space="preserve">
<g id="Download_x5F_25_x25_">
</g>
<g id="Download_x5F_50_x25_">
</g>
<g id="Download_x5F_75_x25_">
</g>
<g id="Download_x5F_100_x25_">
</g>
<g id="Upload">
</g>
<g id="Next">
</g>
<g id="Last">
</g>
<g id="OK">
</g>
<g id="Fail">
</g>
<g id="Add">
</g>
<g id="Spinner_x5F_0_x25_">
</g>
<g id="Spinner_x5F_25_x25_">
</g>
<g id="Spinner_x5F_50_x25_">
</g>
<g id="Spinner_x5F_75_x25_">
</g>
<g id="Brightest_x5F_25_x25_">
</g>
<g id="Brightest_x5F_50_x25_">
</g>
<g id="Brightest_x5F_75_x25_">
</g>
<g id="Brightest_x5F_100_x25_">
</g>
<g id="Reload">
</g>
<g id="Forbidden">
</g>
<g id="Clock">
</g>
<g id="Compass">
</g>
<g id="World">
</g>
<g id="Speed">
</g>
<g id="Microphone">
</g>
<g id="Options">
</g>
<g id="Chronometer">
</g>
<g id="Lock">
</g>
<g id="User">
</g>
<g id="Position">
</g>
<g id="No_x5F_Signal">
</g>
<g id="Low_x5F_Signal">
</g>
<g id="Mid_x5F_Signal">
</g>
<g id="High_x5F_Signal">
</g>
<g id="Options_1_">
</g>
<g id="Flash">
</g>
<g id="No_x5F_Signal_x5F_02">
</g>
<g id="Low_x5F_Signal_x5F_02">
</g>
<g id="Mid_x5F_Signal_x5F_02">
</g>
<g id="High_x5F_Signal_x5F_02">
</g>
<g id="Favorite">
</g>
<g id="Search">
</g>
<g id="Stats_x5F_01">
</g>
<g id="Stats_x5F_02">
</g>
<g id="Turn_x5F_On_x5F_Off">
</g>
<g id="Full_x5F_Height">
</g>
<g id="Full_x5F_Width">
</g>
<g id="Full_x5F_Screen">
</g>
<g id="Compress_x5F_Screen">
</g>
<g id="Chat">
</g>
<g id="Bluetooth">
</g>
<g id="Share_x5F_iOS">
</g>
<g id="Share_x5F_Android">
</g>
<g id="Love__x2F__Favorite">
</g>
<g id="Hamburguer">
</g>
<g id="Flying">
</g>
<g id="Take_x5F_Off">
</g>
<g id="Land">
</g>
<g id="City">
</g>
<g id="Nature">
</g>
<g id="Pointer">
	<path fill="none" stroke="#000000" stroke-width="4" stroke-linecap="round" stroke-linejoin="round" stroke-miterlimit="10" d="
		M33.791,66.396C29.263,61.868,26.999,55.934,26.999,50c0-5.934,2.264-11.868,6.791-16.396c4.527-4.527,10.459-6.79,16.392-6.791
		c5.936-0.001,11.872,2.263,16.4,6.791c9.055,9.055,9.055,23.737,0,32.792S42.846,75.451,33.791,66.396z"/>
	<g>
		<path fill="none" stroke="#000000" stroke-width="4" stroke-linecap="round" stroke-linejoin="round" stroke-miterlimit="10" d="
			M41.42,38.56c2.421-2.421,5.594-3.631,8.767-3.631c3.173,0,6.346,1.21,8.767,3.631c2.42,2.42,3.631,5.592,3.631,8.765
			c0.001,3.174-1.21,6.348-3.631,8.769c-8.629,8.629-7.973,8.978-8.767,8.978c-0.83,0-0.288-0.5-8.767-8.978
			C36.578,51.252,36.578,43.401,41.42,38.56z"/>
		<path fill="none" stroke="#000000" stroke-width="4" stroke-linecap="round" stroke-linejoin="round" stroke-miterlimit="10" d="
			M50.187,52.784L50.187,52.784c-2.927,0-5.299-2.372-5.299-5.299v0c0-2.927,2.372-5.299,5.299-5.299h0
			c2.927,0,5.299,2.372,5.299,5.299v0C55.487,50.411,53.114,52.784,50.187,52.784z"/>
	</g>
</g>
<g id="Prize">
</g>
<g id="Extract">
</g>
<g id="Play">
</g>
<g id="Pause">
</g>
<g id="Stop">
</g>
<g id="Forward">
</g>
<g id="Reverse">
</g>
<g id="Next_1_">
</g>
<g id="Last_1_">
</g>
<g id="Empty_x5F_Basket">
</g>
<g id="Add_x5F_Basket">
</g>
<g id="Delete_x5F_Basket">
</g>
<g id="Error_x5F_Basket">
</g>
<g id="OK_x5F_Basket">
</g>
</svg>
