<?xml version="1.0" encoding="utf-8"?>
<!-- Generator: Adobe Illustrator 19.2.1, SVG Export Plug-In . SVG Version: 6.00 Build 0)  -->
<!DOCTYPE svg PUBLIC "-//W3C//DTD SVG 1.1//EN" "http://www.w3.org/Graphics/SVG/1.1/DTD/svg11.dtd">
<svg version="1.1" xmlns="http://www.w3.org/2000/svg" xmlns:xlink="http://www.w3.org/1999/xlink" x="0px" y="0px" width="100px"
	 height="100px" viewBox="0 0 100 100" enable-background="new 0 0 100 100" xml:space="preserve">
<g id="Download_x5F_25_x25_">
</g>
<g id="Download_x5F_50_x25_">
</g>
<g id="Download_x5F_75_x25_">
</g>
<g id="Download_x5F_100_x25_">
</g>
<g id="Upload">
</g>
<g id="Next">
</g>
<g id="Last">
</g>
<g id="OK">
</g>
<g id="Fail">
</g>
<g id="Add">
</g>
<g id="Spinner_x5F_0_x25_">
</g>
<g id="Spinner_x5F_25_x25_">
</g>
<g id="Spinner_x5F_50_x25_">
</g>
<g id="Spinner_x5F_75_x25_">
</g>
<g id="Brightest_x5F_25_x25_">
</g>
<g id="Brightest_x5F_50_x25_">
</g>
<g id="Brightest_x5F_75_x25_">
</g>
<g id="Brightest_x5F_100_x25_">
</g>
<g id="Reload">
</g>
<g id="Forbidden">
</g>
<g id="Clock">
</g>
<g id="Compass">
</g>
<g id="World">
</g>
<g id="Speed">
</g>
<g id="Microphone">
</g>
<g id="Options">
</g>
<g id="Chronometer">
</g>
<g id="Lock">
</g>
<g id="User">
</g>
<g id="Position">
</g>
<g id="No_x5F_Signal">
</g>
<g id="Low_x5F_Signal">
</g>
<g id="Mid_x5F_Signal">
</g>
<g id="High_x5F_Signal">
</g>
<g id="Options_1_">
	<g>
		<path fill="none" stroke="#000000" stroke-width="4" stroke-linecap="round" stroke-linejoin="round" stroke-miterlimit="10" d="
			M26.812,50c0-6.403,2.595-12.2,6.791-16.396C37.8,29.408,43.597,26.812,50,26.812c6.402,0,12.197,2.594,16.393,6.788
			c4.198,4.196,6.795,9.995,6.795,16.399c0,12.806-10.381,23.188-23.188,23.188S26.812,62.806,26.812,50z"/>
		<g>
			<defs>
				<path id="SVGID_13_" d="M26.812,50c0-6.403,2.595-12.2,6.791-16.396C37.8,29.408,43.597,26.812,50,26.812
					c6.402,0,12.197,2.594,16.393,6.788c4.198,4.196,6.795,9.995,6.795,16.399c0,12.806-10.381,23.188-23.188,23.188
					S26.812,62.806,26.812,50z"/>
			</defs>
			<clipPath id="SVGID_2_">
				<use xlink:href="#SVGID_13_"  overflow="visible"/>
			</clipPath>
		</g>
		<g>
			<g>
				
					<path fill="none" stroke="#000000" stroke-width="4" stroke-linecap="round" stroke-linejoin="round" stroke-miterlimit="10" d="
					M39.862,50c0-2.799,1.135-5.334,2.969-7.168c1.835-1.835,4.369-2.969,7.168-2.969c2.799,0,5.333,1.134,7.167,2.968
					c1.835,1.835,2.971,4.37,2.971,7.17c0,5.599-4.539,10.138-10.138,10.138S39.862,55.599,39.862,50z"/>
				<path d="M48.235,50c0-0.488,0.198-0.929,0.517-1.248c0.319-0.319,0.761-0.517,1.248-0.517c0.487,0,0.929,0.198,1.248,0.517
					c0.32,0.32,0.517,0.761,0.517,1.249c0,0.975-0.79,1.765-1.765,1.765S48.235,50.975,48.235,50z"/>
				<g>
					<g>
						
							<line fill="none" stroke="#000000" stroke-width="4" stroke-linecap="round" stroke-linejoin="round" stroke-miterlimit="10" x1="50" y1="39.862" x2="50" y2="34.99"/>
						
							<line fill="none" stroke="#000000" stroke-width="4" stroke-linecap="round" stroke-linejoin="round" stroke-miterlimit="10" x1="50" y1="65.01" x2="50" y2="60.138"/>
					</g>
					<g>
						
							<line fill="none" stroke="#000000" stroke-width="4" stroke-linecap="round" stroke-linejoin="round" stroke-miterlimit="10" x1="39.862" y1="50" x2="34.99" y2="50"/>
						
							<line fill="none" stroke="#000000" stroke-width="4" stroke-linecap="round" stroke-linejoin="round" stroke-miterlimit="10" x1="65.01" y1="50" x2="60.138" y2="50"/>
					</g>
				</g>
				<g>
					<g>
						
							<line fill="none" stroke="#000000" stroke-width="4" stroke-linecap="round" stroke-linejoin="round" stroke-miterlimit="10" x1="44.931" y1="41.221" x2="42.495" y2="37.001"/>
						
							<line fill="none" stroke="#000000" stroke-width="4" stroke-linecap="round" stroke-linejoin="round" stroke-miterlimit="10" x1="57.505" y1="62.999" x2="55.069" y2="58.779"/>
					</g>
					<g>
						
							<line fill="none" stroke="#000000" stroke-width="4" stroke-linecap="round" stroke-linejoin="round" stroke-miterlimit="10" x1="41.221" y1="55.069" x2="37.001" y2="57.505"/>
						
							<line fill="none" stroke="#000000" stroke-width="4" stroke-linecap="round" stroke-linejoin="round" stroke-miterlimit="10" x1="62.999" y1="42.495" x2="58.779" y2="44.931"/>
					</g>
				</g>
				<g>
					<g>
						
							<line fill="none" stroke="#000000" stroke-width="4" stroke-linecap="round" stroke-linejoin="round" stroke-miterlimit="10" x1="41.221" y1="44.931" x2="37.001" y2="42.495"/>
						
							<line fill="none" stroke="#000000" stroke-width="4" stroke-linecap="round" stroke-linejoin="round" stroke-miterlimit="10" x1="62.999" y1="57.505" x2="58.779" y2="55.069"/>
					</g>
					<g>
						
							<line fill="none" stroke="#000000" stroke-width="4" stroke-linecap="round" stroke-linejoin="round" stroke-miterlimit="10" x1="44.931" y1="58.779" x2="42.495" y2="62.999"/>
						
							<line fill="none" stroke="#000000" stroke-width="4" stroke-linecap="round" stroke-linejoin="round" stroke-miterlimit="10" x1="57.505" y1="37.001" x2="55.069" y2="41.221"/>
					</g>
				</g>
			</g>
		</g>
	</g>
</g>
<g id="Flash">
</g>
<g id="No_x5F_Signal_x5F_02">
</g>
<g id="Low_x5F_Signal_x5F_02">
</g>
<g id="Mid_x5F_Signal_x5F_02">
</g>
<g id="High_x5F_Signal_x5F_02">
</g>
<g id="Favorite">
</g>
<g id="Search">
</g>
<g id="Stats_x5F_01">
</g>
<g id="Stats_x5F_02">
</g>
<g id="Turn_x5F_On_x5F_Off">
</g>
<g id="Full_x5F_Height">
</g>
<g id="Full_x5F_Width">
</g>
<g id="Full_x5F_Screen">
</g>
<g id="Compress_x5F_Screen">
</g>
<g id="Chat">
</g>
<g id="Bluetooth">
</g>
<g id="Share_x5F_iOS">
</g>
<g id="Share_x5F_Android">
</g>
<g id="Love__x2F__Favorite">
</g>
<g id="Hamburguer">
</g>
<g id="Flying">
</g>
<g id="Take_x5F_Off">
</g>
<g id="Land">
</g>
<g id="City">
</g>
<g id="Nature">
</g>
<g id="Pointer">
</g>
<g id="Prize">
</g>
<g id="Extract">
</g>
<g id="Play">
</g>
<g id="Pause">
</g>
<g id="Stop">
</g>
<g id="Forward">
</g>
<g id="Reverse">
</g>
<g id="Next_1_">
</g>
<g id="Last_1_">
</g>
<g id="Empty_x5F_Basket">
</g>
<g id="Add_x5F_Basket">
</g>
<g id="Delete_x5F_Basket">
</g>
<g id="Error_x5F_Basket">
</g>
<g id="OK_x5F_Basket">
</g>
</svg>
