<?xml version="1.0" encoding="utf-8"?>
<!-- Generator: Adobe Illustrator 19.2.1, SVG Export Plug-In . SVG Version: 6.00 Build 0)  -->
<!DOCTYPE svg PUBLIC "-//W3C//DTD SVG 1.1//EN" "http://www.w3.org/Graphics/SVG/1.1/DTD/svg11.dtd">
<svg version="1.1" xmlns="http://www.w3.org/2000/svg" xmlns:xlink="http://www.w3.org/1999/xlink" x="0px" y="0px" width="100px"
	 height="100px" viewBox="0 0 100 100" enable-background="new 0 0 100 100" xml:space="preserve">
<g id="Download_x5F_25_x25_">
</g>
<g id="Download_x5F_50_x25_">
</g>
<g id="Download_x5F_75_x25_">
</g>
<g id="Download_x5F_100_x25_">
</g>
<g id="Upload">
</g>
<g id="Next">
</g>
<g id="Last">
</g>
<g id="OK">
</g>
<g id="Fail">
</g>
<g id="Add">
</g>
<g id="Spinner_x5F_0_x25_">
</g>
<g id="Spinner_x5F_25_x25_">
</g>
<g id="Spinner_x5F_50_x25_">
</g>
<g id="Spinner_x5F_75_x25_">
</g>
<g id="Brightest_x5F_25_x25_">
</g>
<g id="Brightest_x5F_50_x25_">
</g>
<g id="Brightest_x5F_75_x25_">
</g>
<g id="Brightest_x5F_100_x25_">
</g>
<g id="Reload">
</g>
<g id="Forbidden">
</g>
<g id="Clock">
</g>
<g id="Compass">
</g>
<g id="World">
</g>
<g id="Speed">
</g>
<g id="Microphone">
</g>
<g id="Options">
</g>
<g id="Chronometer">
</g>
<g id="Lock">
</g>
<g id="User">
</g>
<g id="Position">
</g>
<g id="No_x5F_Signal">
</g>
<g id="Low_x5F_Signal">
</g>
<g id="Mid_x5F_Signal">
</g>
<g id="High_x5F_Signal">
</g>
<g id="Options_1_">
</g>
<g id="Flash">
</g>
<g id="No_x5F_Signal_x5F_02">
</g>
<g id="Low_x5F_Signal_x5F_02">
</g>
<g id="Mid_x5F_Signal_x5F_02">
</g>
<g id="High_x5F_Signal_x5F_02">
</g>
<g id="Favorite">
</g>
<g id="Search">
</g>
<g id="Stats_x5F_01">
</g>
<g id="Stats_x5F_02">
</g>
<g id="Turn_x5F_On_x5F_Off">
</g>
<g id="Full_x5F_Height">
</g>
<g id="Full_x5F_Width">
</g>
<g id="Full_x5F_Screen">
</g>
<g id="Compress_x5F_Screen">
</g>
<g id="Chat">
</g>
<g id="Bluetooth">
</g>
<g id="Share_x5F_iOS">
</g>
<g id="Share_x5F_Android">
</g>
<g id="Love__x2F__Favorite">
</g>
<g id="Hamburguer">
</g>
<g id="Flying">
</g>
<g id="Take_x5F_Off">
</g>
<g id="Land">
</g>
<g id="City">
	<path fill="none" stroke="#000000" stroke-width="4" stroke-linecap="round" stroke-linejoin="round" stroke-miterlimit="10" d="
		M26.999,50c0-6.403,2.595-12.2,6.791-16.396c4.196-4.196,9.993-6.792,16.396-6.792c6.402,0,12.197,2.594,16.393,6.788
		c4.198,4.196,6.795,9.995,6.795,16.399c0,12.806-10.381,23.188-23.188,23.188S26.999,62.806,26.999,50z"/>
	<g>
		<defs>
			<path id="SVGID_15_" d="M26.999,50c0-6.403,2.595-12.2,6.791-16.396c4.196-4.196,9.993-6.792,16.396-6.792
				c6.402,0,12.197,2.594,16.393,6.788c4.198,4.196,6.795,9.995,6.795,16.399c0,12.806-10.381,23.188-23.188,23.188
				S26.999,62.806,26.999,50z"/>
		</defs>
		<clipPath id="SVGID_2_">
			<use xlink:href="#SVGID_15_"  overflow="visible"/>
		</clipPath>
		<g clip-path="url(#SVGID_2_)">
			
				<rect x="40.5" y="40.313" fill="none" stroke="#000000" stroke-width="4" stroke-linecap="round" stroke-linejoin="round" stroke-miterlimit="10" width="19.374" height="39.374"/>
			
				<rect x="21.126" y="57.995" fill="none" stroke="#000000" stroke-width="4" stroke-linecap="round" stroke-linejoin="round" stroke-miterlimit="10" width="19.374" height="21.692"/>
			
				<rect x="59.874" y="50" fill="none" stroke="#000000" stroke-width="4" stroke-linecap="round" stroke-linejoin="round" stroke-miterlimit="10" width="19.374" height="29.687"/>
			<g>
				<g>
					<circle cx="50.188" cy="48.313" r="2"/>
				</g>
				<g>
					<circle cx="57.875" cy="48.313" r="2"/>
				</g>
				<g>
					<circle cx="42.5" cy="48.313" r="2"/>
				</g>
			</g>
			<g>
				<g>
					<circle cx="50.188" cy="56.313" r="2"/>
				</g>
				<g>
					<circle cx="57.875" cy="56.313" r="2"/>
				</g>
				<g>
					<circle cx="42.5" cy="56.313" r="2"/>
				</g>
			</g>
			<g>
				<g>
					<circle cx="50.188" cy="64.313" r="2"/>
				</g>
				<g>
					<circle cx="57.875" cy="64.313" r="2"/>
				</g>
				<g>
					<circle cx="42.5" cy="64.313" r="2"/>
				</g>
			</g>
			
				<line fill="none" stroke="#000000" stroke-width="4" stroke-linecap="round" stroke-miterlimit="10" x1="55.016" y1="40.313" x2="55.016" y2="35.197"/>
		</g>
	</g>
</g>
<g id="Nature">
</g>
<g id="Pointer">
</g>
<g id="Prize">
</g>
<g id="Extract">
</g>
<g id="Play">
</g>
<g id="Pause">
</g>
<g id="Stop">
</g>
<g id="Forward">
</g>
<g id="Reverse">
</g>
<g id="Next_1_">
</g>
<g id="Last_1_">
</g>
<g id="Empty_x5F_Basket">
</g>
<g id="Add_x5F_Basket">
</g>
<g id="Delete_x5F_Basket">
</g>
<g id="Error_x5F_Basket">
</g>
<g id="OK_x5F_Basket">
</g>
</svg>
