<?xml version="1.0" encoding="utf-8"?>
<!-- Generator: Adobe Illustrator 19.2.1, SVG Export Plug-In . SVG Version: 6.00 Build 0)  -->
<!DOCTYPE svg PUBLIC "-//W3C//DTD SVG 1.1//EN" "http://www.w3.org/Graphics/SVG/1.1/DTD/svg11.dtd">
<svg version="1.1" xmlns="http://www.w3.org/2000/svg" xmlns:xlink="http://www.w3.org/1999/xlink" x="0px" y="0px" width="100px"
	 height="100px" viewBox="0 0 100 100" enable-background="new 0 0 100 100" xml:space="preserve">
<g id="Download_x5F_25_x25_">
</g>
<g id="Download_x5F_50_x25_">
</g>
<g id="Download_x5F_75_x25_">
</g>
<g id="Download_x5F_100_x25_">
</g>
<g id="Upload">
</g>
<g id="Next">
</g>
<g id="Last">
</g>
<g id="OK">
</g>
<g id="Fail">
</g>
<g id="Add">
</g>
<g id="Spinner_x5F_0_x25_">
</g>
<g id="Spinner_x5F_25_x25_">
</g>
<g id="Spinner_x5F_50_x25_">
</g>
<g id="Spinner_x5F_75_x25_">
</g>
<g id="Brightest_x5F_25_x25_">
</g>
<g id="Brightest_x5F_50_x25_">
</g>
<g id="Brightest_x5F_75_x25_">
</g>
<g id="Brightest_x5F_100_x25_">
</g>
<g id="Reload">
</g>
<g id="Forbidden">
</g>
<g id="Clock">
	
		<circle fill="none" stroke="#000000" stroke-width="4" stroke-linecap="round" stroke-linejoin="round" stroke-miterlimit="10" cx="50.188" cy="50" r="23.188"/>
	<g>
		<path fill="none" stroke="#000000" stroke-width="4" stroke-linecap="round" stroke-linejoin="round" stroke-miterlimit="10" d="
			M43.578,44.65c3.537,3.537,2.63,2.63,5.208,5.208c0.781,0.781,2.044,0.777,2.825-0.004l9.792-9.792"/>
	</g>
	<path d="M27.133,50.498c-0.359-1.489,0.949-2.796,2.438-2.438c0.7,0.169,1.274,0.743,1.442,1.442
		c0.359,1.489-0.949,2.796-2.438,2.438C27.876,51.771,27.302,51.197,27.133,50.498z"/>
	<path d="M69.485,50.498c-0.359-1.489,0.949-2.796,2.438-2.438c0.7,0.169,1.274,0.743,1.442,1.442
		c0.359,1.489-0.949,2.796-2.438,2.438C70.227,51.771,69.653,51.197,69.485,50.498z"/>
	<path d="M30.428,61.932c-0.988-1.113-0.501-2.847,0.943-3.273c0.715-0.211,1.527,0.026,2.022,0.584
		c0.988,1.113,0.501,2.847-0.943,3.273C31.734,62.727,30.923,62.49,30.428,61.932z"/>
	<path d="M67.105,40.757c-0.988-1.113-0.501-2.847,0.943-3.273c0.715-0.211,1.527,0.026,2.022,0.584
		c0.988,1.113,0.501,2.847-0.943,3.273C68.412,41.552,67.6,41.315,67.105,40.757z"/>
	<path d="M39.122,70.267c-1.444-0.426-1.931-2.16-0.943-3.273c0.495-0.558,1.307-0.795,2.022-0.584
		c1.444,0.426,1.931,2.16,0.943,3.273C40.649,70.241,39.837,70.478,39.122,70.267z"/>
	<path d="M60.298,33.59c-1.444-0.426-1.931-2.16-0.943-3.273c0.495-0.558,1.307-0.795,2.022-0.584
		c1.444,0.426,1.931,2.16,0.943,3.273C61.824,33.564,61.013,33.801,60.298,33.59z"/>
	<path d="M50.747,73.116c-1.489,0.359-2.796-0.949-2.438-2.438c0.169-0.7,0.743-1.274,1.442-1.442
		c1.489-0.359,2.796,0.949,2.438,2.438C52.02,72.373,51.446,72.947,50.747,73.116z"/>
	<path d="M50.747,30.764c-1.489,0.359-2.796-0.949-2.438-2.438c0.169-0.7,0.743-1.274,1.442-1.442
		c1.489-0.359,2.796,0.949,2.438,2.438C52.02,30.022,51.446,30.596,50.747,30.764z"/>
	<path d="M70.492,61.12c-0.421,1.426-2.133,1.907-3.232,0.932c-0.551-0.489-0.785-1.29-0.576-1.996
		c0.421-1.426,2.133-1.907,3.232-0.932C70.466,59.613,70.7,60.414,70.492,61.12z"/>
	<path d="M33.815,39.944c-0.421,1.426-2.133,1.907-3.232,0.932c-0.551-0.489-0.785-1.29-0.576-1.996
		c0.421-1.426,2.133-1.907,3.232-0.932C33.789,38.437,34.023,39.238,33.815,39.944z"/>
	<path d="M62.164,69.802c-1.099,0.975-2.811,0.494-3.232-0.932c-0.208-0.706,0.026-1.507,0.576-1.996
		c1.099-0.975,2.811-0.494,3.232,0.932C62.949,68.512,62.715,69.314,62.164,69.802z"/>
	<path d="M40.989,33.125c-1.099,0.975-2.811,0.494-3.232-0.932c-0.208-0.706,0.026-1.507,0.576-1.996
		c1.099-0.975,2.811-0.494,3.232,0.932C41.774,31.835,41.539,32.637,40.989,33.125z"/>
</g>
<g id="Compass">
</g>
<g id="World">
</g>
<g id="Speed">
</g>
<g id="Microphone">
</g>
<g id="Options">
</g>
<g id="Chronometer">
</g>
<g id="Lock">
</g>
<g id="User">
</g>
<g id="Position">
</g>
<g id="No_x5F_Signal">
</g>
<g id="Low_x5F_Signal">
</g>
<g id="Mid_x5F_Signal">
</g>
<g id="High_x5F_Signal">
</g>
<g id="Options_1_">
</g>
<g id="Flash">
</g>
<g id="No_x5F_Signal_x5F_02">
</g>
<g id="Low_x5F_Signal_x5F_02">
</g>
<g id="Mid_x5F_Signal_x5F_02">
</g>
<g id="High_x5F_Signal_x5F_02">
</g>
<g id="Favorite">
</g>
<g id="Search">
</g>
<g id="Stats_x5F_01">
</g>
<g id="Stats_x5F_02">
</g>
<g id="Turn_x5F_On_x5F_Off">
</g>
<g id="Full_x5F_Height">
</g>
<g id="Full_x5F_Width">
</g>
<g id="Full_x5F_Screen">
</g>
<g id="Compress_x5F_Screen">
</g>
<g id="Chat">
</g>
<g id="Bluetooth">
</g>
<g id="Share_x5F_iOS">
</g>
<g id="Share_x5F_Android">
</g>
<g id="Love__x2F__Favorite">
</g>
<g id="Hamburguer">
</g>
<g id="Flying">
</g>
<g id="Take_x5F_Off">
</g>
<g id="Land">
</g>
<g id="City">
</g>
<g id="Nature">
</g>
<g id="Pointer">
</g>
<g id="Prize">
</g>
<g id="Extract">
</g>
<g id="Play">
</g>
<g id="Pause">
</g>
<g id="Stop">
</g>
<g id="Forward">
</g>
<g id="Reverse">
</g>
<g id="Next_1_">
</g>
<g id="Last_1_">
</g>
<g id="Empty_x5F_Basket">
</g>
<g id="Add_x5F_Basket">
</g>
<g id="Delete_x5F_Basket">
</g>
<g id="Error_x5F_Basket">
</g>
<g id="OK_x5F_Basket">
</g>
</svg>
